solid OpenSCAD_Model
  facet normal -1 0 0
    outer loop
      vertex -12.7 12.7 -12.7
      vertex -12.7 6.35 0
      vertex -12.7 12.7 12.7
    endloop
  endfacet
  facet normal -1 0 0
    outer loop
      vertex -12.7 12.7 -12.7
      vertex -12.7 6.03921 -1.96226
      vertex -12.7 6.35 0
    endloop
  endfacet
  facet normal -1 0 0
    outer loop
      vertex -12.7 12.7 -12.7
      vertex -12.7 5.13726 -3.73244
      vertex -12.7 6.03921 -1.96226
    endloop
  endfacet
  facet normal -1 0 0
    outer loop
      vertex -12.7 12.7 -12.7
      vertex -12.7 3.73244 -5.13726
      vertex -12.7 5.13726 -3.73244
    endloop
  endfacet
  facet normal -1 0 0
    outer loop
      vertex -12.7 12.7 -12.7
      vertex -12.7 1.96226 -6.03921
      vertex -12.7 3.73244 -5.13726
    endloop
  endfacet
  facet normal -1 0 0
    outer loop
      vertex -12.7 12.7 -12.7
      vertex -12.7 0 -6.35
      vertex -12.7 1.96226 -6.03921
    endloop
  endfacet
  facet normal -1 0 0
    outer loop
      vertex -12.7 -12.7 -12.7
      vertex -12.7 0 -6.35
      vertex -12.7 12.7 -12.7
    endloop
  endfacet
  facet normal -1 -0 0
    outer loop
      vertex -12.7 -6.03921 -1.96226
      vertex -12.7 -12.7 -12.7
      vertex -12.7 -6.35 0
    endloop
  endfacet
  facet normal -1 -0 0
    outer loop
      vertex -12.7 -5.13726 -3.73244
      vertex -12.7 -12.7 -12.7
      vertex -12.7 -6.03921 -1.96226
    endloop
  endfacet
  facet normal -1 -0 0
    outer loop
      vertex -12.7 -3.73244 -5.13726
      vertex -12.7 -12.7 -12.7
      vertex -12.7 -5.13726 -3.73244
    endloop
  endfacet
  facet normal -1 -0 0
    outer loop
      vertex -12.7 -1.96226 -6.03921
      vertex -12.7 -12.7 -12.7
      vertex -12.7 -3.73244 -5.13726
    endloop
  endfacet
  facet normal -1 -0 0
    outer loop
      vertex -12.7 0 -6.35
      vertex -12.7 -12.7 -12.7
      vertex -12.7 -1.96226 -6.03921
    endloop
  endfacet
  facet normal -1 0 0
    outer loop
      vertex -12.7 6.03921 1.96226
      vertex -12.7 12.7 12.7
      vertex -12.7 6.35 0
    endloop
  endfacet
  facet normal -1 0 0
    outer loop
      vertex -12.7 5.13726 3.73244
      vertex -12.7 12.7 12.7
      vertex -12.7 6.03921 1.96226
    endloop
  endfacet
  facet normal -1 0 0
    outer loop
      vertex -12.7 3.73244 5.13726
      vertex -12.7 12.7 12.7
      vertex -12.7 5.13726 3.73244
    endloop
  endfacet
  facet normal -1 0 0
    outer loop
      vertex -12.7 1.96226 6.03921
      vertex -12.7 12.7 12.7
      vertex -12.7 3.73244 5.13726
    endloop
  endfacet
  facet normal -1 0 0
    outer loop
      vertex -12.7 0 6.35
      vertex -12.7 12.7 12.7
      vertex -12.7 1.96226 6.03921
    endloop
  endfacet
  facet normal -1 0 0
    outer loop
      vertex -12.7 -12.7 12.7
      vertex -12.7 0 6.35
      vertex -12.7 -1.96226 6.03921
    endloop
  endfacet
  facet normal -1 0 0
    outer loop
      vertex -12.7 -12.7 12.7
      vertex -12.7 -6.35 0
      vertex -12.7 -12.7 -12.7
    endloop
  endfacet
  facet normal -1 0 0
    outer loop
      vertex -12.7 0 6.35
      vertex -12.7 -12.7 12.7
      vertex -12.7 12.7 12.7
    endloop
  endfacet
  facet normal -1 0 0
    outer loop
      vertex -12.7 -3.73244 5.13726
      vertex -12.7 -12.7 12.7
      vertex -12.7 -1.96226 6.03921
    endloop
  endfacet
  facet normal -1 0 0
    outer loop
      vertex -12.7 -5.13726 3.73244
      vertex -12.7 -12.7 12.7
      vertex -12.7 -3.73244 5.13726
    endloop
  endfacet
  facet normal -1 0 0
    outer loop
      vertex -12.7 -6.03921 1.96226
      vertex -12.7 -12.7 12.7
      vertex -12.7 -5.13726 3.73244
    endloop
  endfacet
  facet normal -1 0 0
    outer loop
      vertex -12.7 -6.35 0
      vertex -12.7 -12.7 12.7
      vertex -12.7 -6.03921 1.96226
    endloop
  endfacet
  facet normal 0 0 1
    outer loop
      vertex 12.7 12.7 12.7
      vertex 6.35 0 12.7
      vertex 12.7 -12.7 12.7
    endloop
  endfacet
  facet normal 0 0 1
    outer loop
      vertex 12.7 12.7 12.7
      vertex 6.03921 1.96226 12.7
      vertex 6.35 0 12.7
    endloop
  endfacet
  facet normal 0 0 1
    outer loop
      vertex 12.7 12.7 12.7
      vertex 5.13726 3.73244 12.7
      vertex 6.03921 1.96226 12.7
    endloop
  endfacet
  facet normal 0 0 1
    outer loop
      vertex 12.7 12.7 12.7
      vertex 3.73244 5.13726 12.7
      vertex 5.13726 3.73244 12.7
    endloop
  endfacet
  facet normal 0 0 1
    outer loop
      vertex 12.7 12.7 12.7
      vertex 1.96226 6.03921 12.7
      vertex 3.73244 5.13726 12.7
    endloop
  endfacet
  facet normal 0 0 1
    outer loop
      vertex 12.7 12.7 12.7
      vertex 0 6.35 12.7
      vertex 1.96226 6.03921 12.7
    endloop
  endfacet
  facet normal -0 0 1
    outer loop
      vertex -12.7 12.7 12.7
      vertex 0 6.35 12.7
      vertex 12.7 12.7 12.7
    endloop
  endfacet
  facet normal 0 0 1
    outer loop
      vertex -6.03921 1.96226 12.7
      vertex -12.7 12.7 12.7
      vertex -6.35 0 12.7
    endloop
  endfacet
  facet normal 0 0 1
    outer loop
      vertex -5.13726 3.73244 12.7
      vertex -12.7 12.7 12.7
      vertex -6.03921 1.96226 12.7
    endloop
  endfacet
  facet normal 0 0 1
    outer loop
      vertex -3.73244 5.13726 12.7
      vertex -12.7 12.7 12.7
      vertex -5.13726 3.73244 12.7
    endloop
  endfacet
  facet normal 0 0 1
    outer loop
      vertex -1.96226 6.03921 12.7
      vertex -12.7 12.7 12.7
      vertex -3.73244 5.13726 12.7
    endloop
  endfacet
  facet normal 0 0 1
    outer loop
      vertex 0 6.35 12.7
      vertex -12.7 12.7 12.7
      vertex -1.96226 6.03921 12.7
    endloop
  endfacet
  facet normal -0 0 1
    outer loop
      vertex 6.03921 -1.96226 12.7
      vertex 12.7 -12.7 12.7
      vertex 6.35 0 12.7
    endloop
  endfacet
  facet normal -0 0 1
    outer loop
      vertex 5.13726 -3.73244 12.7
      vertex 12.7 -12.7 12.7
      vertex 6.03921 -1.96226 12.7
    endloop
  endfacet
  facet normal -0 0 1
    outer loop
      vertex 3.73244 -5.13726 12.7
      vertex 12.7 -12.7 12.7
      vertex 5.13726 -3.73244 12.7
    endloop
  endfacet
  facet normal -0 0 1
    outer loop
      vertex 1.96226 -6.03921 12.7
      vertex 12.7 -12.7 12.7
      vertex 3.73244 -5.13726 12.7
    endloop
  endfacet
  facet normal -0 0 1
    outer loop
      vertex 0 -6.35 12.7
      vertex 12.7 -12.7 12.7
      vertex 1.96226 -6.03921 12.7
    endloop
  endfacet
  facet normal 0 0 1
    outer loop
      vertex -12.7 -12.7 12.7
      vertex 0 -6.35 12.7
      vertex -1.96226 -6.03921 12.7
    endloop
  endfacet
  facet normal 0 0 1
    outer loop
      vertex -12.7 -12.7 12.7
      vertex -6.35 0 12.7
      vertex -12.7 12.7 12.7
    endloop
  endfacet
  facet normal 0 0 1
    outer loop
      vertex 0 -6.35 12.7
      vertex -12.7 -12.7 12.7
      vertex 12.7 -12.7 12.7
    endloop
  endfacet
  facet normal 0 0 1
    outer loop
      vertex -3.73244 -5.13726 12.7
      vertex -12.7 -12.7 12.7
      vertex -1.96226 -6.03921 12.7
    endloop
  endfacet
  facet normal 0 0 1
    outer loop
      vertex -5.13726 -3.73244 12.7
      vertex -12.7 -12.7 12.7
      vertex -3.73244 -5.13726 12.7
    endloop
  endfacet
  facet normal 0 0 1
    outer loop
      vertex -6.03921 -1.96226 12.7
      vertex -12.7 -12.7 12.7
      vertex -5.13726 -3.73244 12.7
    endloop
  endfacet
  facet normal 0 0 1
    outer loop
      vertex -6.35 0 12.7
      vertex -12.7 -12.7 12.7
      vertex -6.03921 -1.96226 12.7
    endloop
  endfacet
  facet normal 1 0 0
    outer loop
      vertex 12.7 12.7 12.7
      vertex 12.7 6.35 0
      vertex 12.7 12.7 -12.7
    endloop
  endfacet
  facet normal 1 0 0
    outer loop
      vertex 12.7 12.7 12.7
      vertex 12.7 6.03921 1.96226
      vertex 12.7 6.35 0
    endloop
  endfacet
  facet normal 1 0 0
    outer loop
      vertex 12.7 12.7 12.7
      vertex 12.7 5.13726 3.73244
      vertex 12.7 6.03921 1.96226
    endloop
  endfacet
  facet normal 1 0 0
    outer loop
      vertex 12.7 12.7 12.7
      vertex 12.7 3.73244 5.13726
      vertex 12.7 5.13726 3.73244
    endloop
  endfacet
  facet normal 1 0 0
    outer loop
      vertex 12.7 12.7 12.7
      vertex 12.7 1.96226 6.03921
      vertex 12.7 3.73244 5.13726
    endloop
  endfacet
  facet normal 1 0 0
    outer loop
      vertex 12.7 12.7 12.7
      vertex 12.7 0 6.35
      vertex 12.7 1.96226 6.03921
    endloop
  endfacet
  facet normal 1 -0 0
    outer loop
      vertex 12.7 -12.7 12.7
      vertex 12.7 0 6.35
      vertex 12.7 12.7 12.7
    endloop
  endfacet
  facet normal 1 0 0
    outer loop
      vertex 12.7 -6.03921 1.96226
      vertex 12.7 -12.7 12.7
      vertex 12.7 -6.35 0
    endloop
  endfacet
  facet normal 1 0 0
    outer loop
      vertex 12.7 -5.13726 3.73244
      vertex 12.7 -12.7 12.7
      vertex 12.7 -6.03921 1.96226
    endloop
  endfacet
  facet normal 1 0 0
    outer loop
      vertex 12.7 -3.73244 5.13726
      vertex 12.7 -12.7 12.7
      vertex 12.7 -5.13726 3.73244
    endloop
  endfacet
  facet normal 1 0 0
    outer loop
      vertex 12.7 -1.96226 6.03921
      vertex 12.7 -12.7 12.7
      vertex 12.7 -3.73244 5.13726
    endloop
  endfacet
  facet normal 1 0 0
    outer loop
      vertex 12.7 0 6.35
      vertex 12.7 -12.7 12.7
      vertex 12.7 -1.96226 6.03921
    endloop
  endfacet
  facet normal 1 -0 0
    outer loop
      vertex 12.7 6.03921 -1.96226
      vertex 12.7 12.7 -12.7
      vertex 12.7 6.35 0
    endloop
  endfacet
  facet normal 1 -0 0
    outer loop
      vertex 12.7 5.13726 -3.73244
      vertex 12.7 12.7 -12.7
      vertex 12.7 6.03921 -1.96226
    endloop
  endfacet
  facet normal 1 -0 0
    outer loop
      vertex 12.7 3.73244 -5.13726
      vertex 12.7 12.7 -12.7
      vertex 12.7 5.13726 -3.73244
    endloop
  endfacet
  facet normal 1 -0 0
    outer loop
      vertex 12.7 1.96226 -6.03921
      vertex 12.7 12.7 -12.7
      vertex 12.7 3.73244 -5.13726
    endloop
  endfacet
  facet normal 1 -0 0
    outer loop
      vertex 12.7 0 -6.35
      vertex 12.7 12.7 -12.7
      vertex 12.7 1.96226 -6.03921
    endloop
  endfacet
  facet normal 1 0 0
    outer loop
      vertex 12.7 -12.7 -12.7
      vertex 12.7 0 -6.35
      vertex 12.7 -1.96226 -6.03921
    endloop
  endfacet
  facet normal 1 0 0
    outer loop
      vertex 12.7 -12.7 -12.7
      vertex 12.7 -6.35 0
      vertex 12.7 -12.7 12.7
    endloop
  endfacet
  facet normal 1 0 0
    outer loop
      vertex 12.7 0 -6.35
      vertex 12.7 -12.7 -12.7
      vertex 12.7 12.7 -12.7
    endloop
  endfacet
  facet normal 1 0 0
    outer loop
      vertex 12.7 -3.73244 -5.13726
      vertex 12.7 -12.7 -12.7
      vertex 12.7 -1.96226 -6.03921
    endloop
  endfacet
  facet normal 1 0 0
    outer loop
      vertex 12.7 -5.13726 -3.73244
      vertex 12.7 -12.7 -12.7
      vertex 12.7 -3.73244 -5.13726
    endloop
  endfacet
  facet normal 1 0 0
    outer loop
      vertex 12.7 -6.03921 -1.96226
      vertex 12.7 -12.7 -12.7
      vertex 12.7 -5.13726 -3.73244
    endloop
  endfacet
  facet normal 1 0 0
    outer loop
      vertex 12.7 -6.35 0
      vertex 12.7 -12.7 -12.7
      vertex 12.7 -6.03921 -1.96226
    endloop
  endfacet
  facet normal 0 1 0
    outer loop
      vertex 12.7 12.7 12.7
      vertex 0 12.7 6.35
      vertex -12.7 12.7 12.7
    endloop
  endfacet
  facet normal 0 1 0
    outer loop
      vertex 12.7 12.7 12.7
      vertex 1.96226 12.7 6.03921
      vertex 0 12.7 6.35
    endloop
  endfacet
  facet normal 0 1 0
    outer loop
      vertex 12.7 12.7 12.7
      vertex 3.73244 12.7 5.13726
      vertex 1.96226 12.7 6.03921
    endloop
  endfacet
  facet normal 0 1 0
    outer loop
      vertex 12.7 12.7 12.7
      vertex 5.13726 12.7 3.73244
      vertex 3.73244 12.7 5.13726
    endloop
  endfacet
  facet normal 0 1 0
    outer loop
      vertex 12.7 12.7 12.7
      vertex 6.03921 12.7 1.96226
      vertex 5.13726 12.7 3.73244
    endloop
  endfacet
  facet normal 0 1 0
    outer loop
      vertex 12.7 12.7 12.7
      vertex 6.35 12.7 0
      vertex 6.03921 12.7 1.96226
    endloop
  endfacet
  facet normal 0 1 -0
    outer loop
      vertex 12.7 12.7 -12.7
      vertex 6.35 12.7 0
      vertex 12.7 12.7 12.7
    endloop
  endfacet
  facet normal 0 1 0
    outer loop
      vertex 1.96226 12.7 -6.03921
      vertex 12.7 12.7 -12.7
      vertex 0 12.7 -6.35
    endloop
  endfacet
  facet normal 0 1 0
    outer loop
      vertex 3.73244 12.7 -5.13726
      vertex 12.7 12.7 -12.7
      vertex 1.96226 12.7 -6.03921
    endloop
  endfacet
  facet normal 0 1 0
    outer loop
      vertex 5.13726 12.7 -3.73244
      vertex 12.7 12.7 -12.7
      vertex 3.73244 12.7 -5.13726
    endloop
  endfacet
  facet normal 0 1 0
    outer loop
      vertex 6.03921 12.7 -1.96226
      vertex 12.7 12.7 -12.7
      vertex 5.13726 12.7 -3.73244
    endloop
  endfacet
  facet normal 0 1 0
    outer loop
      vertex 6.35 12.7 0
      vertex 12.7 12.7 -12.7
      vertex 6.03921 12.7 -1.96226
    endloop
  endfacet
  facet normal 0 1 -0
    outer loop
      vertex -1.96226 12.7 6.03921
      vertex -12.7 12.7 12.7
      vertex 0 12.7 6.35
    endloop
  endfacet
  facet normal 0 1 -0
    outer loop
      vertex -3.73244 12.7 5.13726
      vertex -12.7 12.7 12.7
      vertex -1.96226 12.7 6.03921
    endloop
  endfacet
  facet normal 0 1 -0
    outer loop
      vertex -5.13726 12.7 3.73244
      vertex -12.7 12.7 12.7
      vertex -3.73244 12.7 5.13726
    endloop
  endfacet
  facet normal 0 1 -0
    outer loop
      vertex -6.03921 12.7 1.96226
      vertex -12.7 12.7 12.7
      vertex -5.13726 12.7 3.73244
    endloop
  endfacet
  facet normal 0 1 -0
    outer loop
      vertex -6.35 12.7 0
      vertex -12.7 12.7 12.7
      vertex -6.03921 12.7 1.96226
    endloop
  endfacet
  facet normal 0 1 0
    outer loop
      vertex -12.7 12.7 -12.7
      vertex -6.35 12.7 0
      vertex -6.03921 12.7 -1.96226
    endloop
  endfacet
  facet normal 0 1 0
    outer loop
      vertex -12.7 12.7 -12.7
      vertex 0 12.7 -6.35
      vertex 12.7 12.7 -12.7
    endloop
  endfacet
  facet normal 0 1 0
    outer loop
      vertex -6.35 12.7 0
      vertex -12.7 12.7 -12.7
      vertex -12.7 12.7 12.7
    endloop
  endfacet
  facet normal 0 1 0
    outer loop
      vertex -5.13726 12.7 -3.73244
      vertex -12.7 12.7 -12.7
      vertex -6.03921 12.7 -1.96226
    endloop
  endfacet
  facet normal 0 1 0
    outer loop
      vertex -3.73244 12.7 -5.13726
      vertex -12.7 12.7 -12.7
      vertex -5.13726 12.7 -3.73244
    endloop
  endfacet
  facet normal 0 1 0
    outer loop
      vertex -1.96226 12.7 -6.03921
      vertex -12.7 12.7 -12.7
      vertex -3.73244 12.7 -5.13726
    endloop
  endfacet
  facet normal 0 1 0
    outer loop
      vertex 0 12.7 -6.35
      vertex -12.7 12.7 -12.7
      vertex -1.96226 12.7 -6.03921
    endloop
  endfacet
  facet normal 0 0 -1
    outer loop
      vertex 12.7 -12.7 -12.7
      vertex 6.35 0 -12.7
      vertex 12.7 12.7 -12.7
    endloop
  endfacet
  facet normal 0 0 -1
    outer loop
      vertex 12.7 -12.7 -12.7
      vertex 6.03921 -1.96226 -12.7
      vertex 6.35 0 -12.7
    endloop
  endfacet
  facet normal 0 0 -1
    outer loop
      vertex 12.7 -12.7 -12.7
      vertex 5.13726 -3.73244 -12.7
      vertex 6.03921 -1.96226 -12.7
    endloop
  endfacet
  facet normal 0 0 -1
    outer loop
      vertex 12.7 -12.7 -12.7
      vertex 3.73244 -5.13726 -12.7
      vertex 5.13726 -3.73244 -12.7
    endloop
  endfacet
  facet normal 0 0 -1
    outer loop
      vertex 12.7 -12.7 -12.7
      vertex 1.96226 -6.03921 -12.7
      vertex 3.73244 -5.13726 -12.7
    endloop
  endfacet
  facet normal 0 0 -1
    outer loop
      vertex 12.7 -12.7 -12.7
      vertex 0 -6.35 -12.7
      vertex 1.96226 -6.03921 -12.7
    endloop
  endfacet
  facet normal 0 0 -1
    outer loop
      vertex -12.7 -12.7 -12.7
      vertex 0 -6.35 -12.7
      vertex 12.7 -12.7 -12.7
    endloop
  endfacet
  facet normal -0 0 -1
    outer loop
      vertex -6.03921 -1.96226 -12.7
      vertex -12.7 -12.7 -12.7
      vertex -6.35 0 -12.7
    endloop
  endfacet
  facet normal -0 0 -1
    outer loop
      vertex -5.13726 -3.73244 -12.7
      vertex -12.7 -12.7 -12.7
      vertex -6.03921 -1.96226 -12.7
    endloop
  endfacet
  facet normal -0 0 -1
    outer loop
      vertex -3.73244 -5.13726 -12.7
      vertex -12.7 -12.7 -12.7
      vertex -5.13726 -3.73244 -12.7
    endloop
  endfacet
  facet normal -0 0 -1
    outer loop
      vertex -1.96226 -6.03921 -12.7
      vertex -12.7 -12.7 -12.7
      vertex -3.73244 -5.13726 -12.7
    endloop
  endfacet
  facet normal -0 0 -1
    outer loop
      vertex 0 -6.35 -12.7
      vertex -12.7 -12.7 -12.7
      vertex -1.96226 -6.03921 -12.7
    endloop
  endfacet
  facet normal 0 0 -1
    outer loop
      vertex 6.03921 1.96226 -12.7
      vertex 12.7 12.7 -12.7
      vertex 6.35 0 -12.7
    endloop
  endfacet
  facet normal 0 0 -1
    outer loop
      vertex 5.13726 3.73244 -12.7
      vertex 12.7 12.7 -12.7
      vertex 6.03921 1.96226 -12.7
    endloop
  endfacet
  facet normal 0 0 -1
    outer loop
      vertex 3.73244 5.13726 -12.7
      vertex 12.7 12.7 -12.7
      vertex 5.13726 3.73244 -12.7
    endloop
  endfacet
  facet normal 0 0 -1
    outer loop
      vertex 1.96226 6.03921 -12.7
      vertex 12.7 12.7 -12.7
      vertex 3.73244 5.13726 -12.7
    endloop
  endfacet
  facet normal 0 0 -1
    outer loop
      vertex 0 6.35 -12.7
      vertex 12.7 12.7 -12.7
      vertex 1.96226 6.03921 -12.7
    endloop
  endfacet
  facet normal 0 0 -1
    outer loop
      vertex -12.7 12.7 -12.7
      vertex 0 6.35 -12.7
      vertex -1.96226 6.03921 -12.7
    endloop
  endfacet
  facet normal 0 0 -1
    outer loop
      vertex -12.7 12.7 -12.7
      vertex -6.35 0 -12.7
      vertex -12.7 -12.7 -12.7
    endloop
  endfacet
  facet normal 0 0 -1
    outer loop
      vertex 0 6.35 -12.7
      vertex -12.7 12.7 -12.7
      vertex 12.7 12.7 -12.7
    endloop
  endfacet
  facet normal 0 0 -1
    outer loop
      vertex -3.73244 5.13726 -12.7
      vertex -12.7 12.7 -12.7
      vertex -1.96226 6.03921 -12.7
    endloop
  endfacet
  facet normal 0 0 -1
    outer loop
      vertex -5.13726 3.73244 -12.7
      vertex -12.7 12.7 -12.7
      vertex -3.73244 5.13726 -12.7
    endloop
  endfacet
  facet normal 0 0 -1
    outer loop
      vertex -6.03921 1.96226 -12.7
      vertex -12.7 12.7 -12.7
      vertex -5.13726 3.73244 -12.7
    endloop
  endfacet
  facet normal 0 0 -1
    outer loop
      vertex -6.35 0 -12.7
      vertex -12.7 12.7 -12.7
      vertex -6.03921 1.96226 -12.7
    endloop
  endfacet
  facet normal 0 -1 0
    outer loop
      vertex -12.7 -12.7 12.7
      vertex 0 -12.7 6.35
      vertex 12.7 -12.7 12.7
    endloop
  endfacet
  facet normal 0 -1 0
    outer loop
      vertex -12.7 -12.7 12.7
      vertex -1.96226 -12.7 6.03921
      vertex 0 -12.7 6.35
    endloop
  endfacet
  facet normal 0 -1 0
    outer loop
      vertex -12.7 -12.7 12.7
      vertex -3.73244 -12.7 5.13726
      vertex -1.96226 -12.7 6.03921
    endloop
  endfacet
  facet normal 0 -1 0
    outer loop
      vertex -12.7 -12.7 12.7
      vertex -5.13726 -12.7 3.73244
      vertex -3.73244 -12.7 5.13726
    endloop
  endfacet
  facet normal 0 -1 0
    outer loop
      vertex -12.7 -12.7 12.7
      vertex -6.03921 -12.7 1.96226
      vertex -5.13726 -12.7 3.73244
    endloop
  endfacet
  facet normal 0 -1 0
    outer loop
      vertex -12.7 -12.7 12.7
      vertex -6.35 -12.7 0
      vertex -6.03921 -12.7 1.96226
    endloop
  endfacet
  facet normal 0 -1 0
    outer loop
      vertex -12.7 -12.7 -12.7
      vertex -6.35 -12.7 0
      vertex -12.7 -12.7 12.7
    endloop
  endfacet
  facet normal 0 -1 -0
    outer loop
      vertex -1.96226 -12.7 -6.03921
      vertex -12.7 -12.7 -12.7
      vertex 0 -12.7 -6.35
    endloop
  endfacet
  facet normal 0 -1 -0
    outer loop
      vertex -3.73244 -12.7 -5.13726
      vertex -12.7 -12.7 -12.7
      vertex -1.96226 -12.7 -6.03921
    endloop
  endfacet
  facet normal 0 -1 -0
    outer loop
      vertex -5.13726 -12.7 -3.73244
      vertex -12.7 -12.7 -12.7
      vertex -3.73244 -12.7 -5.13726
    endloop
  endfacet
  facet normal 0 -1 -0
    outer loop
      vertex -6.03921 -12.7 -1.96226
      vertex -12.7 -12.7 -12.7
      vertex -5.13726 -12.7 -3.73244
    endloop
  endfacet
  facet normal 0 -1 -0
    outer loop
      vertex -6.35 -12.7 0
      vertex -12.7 -12.7 -12.7
      vertex -6.03921 -12.7 -1.96226
    endloop
  endfacet
  facet normal 0 -1 0
    outer loop
      vertex 1.96226 -12.7 6.03921
      vertex 12.7 -12.7 12.7
      vertex 0 -12.7 6.35
    endloop
  endfacet
  facet normal 0 -1 0
    outer loop
      vertex 3.73244 -12.7 5.13726
      vertex 12.7 -12.7 12.7
      vertex 1.96226 -12.7 6.03921
    endloop
  endfacet
  facet normal 0 -1 0
    outer loop
      vertex 5.13726 -12.7 3.73244
      vertex 12.7 -12.7 12.7
      vertex 3.73244 -12.7 5.13726
    endloop
  endfacet
  facet normal 0 -1 0
    outer loop
      vertex 6.03921 -12.7 1.96226
      vertex 12.7 -12.7 12.7
      vertex 5.13726 -12.7 3.73244
    endloop
  endfacet
  facet normal 0 -1 0
    outer loop
      vertex 6.35 -12.7 0
      vertex 12.7 -12.7 12.7
      vertex 6.03921 -12.7 1.96226
    endloop
  endfacet
  facet normal 0 -1 0
    outer loop
      vertex 12.7 -12.7 -12.7
      vertex 6.35 -12.7 0
      vertex 6.03921 -12.7 -1.96226
    endloop
  endfacet
  facet normal 0 -1 0
    outer loop
      vertex 12.7 -12.7 -12.7
      vertex 0 -12.7 -6.35
      vertex -12.7 -12.7 -12.7
    endloop
  endfacet
  facet normal 0 -1 0
    outer loop
      vertex 6.35 -12.7 0
      vertex 12.7 -12.7 -12.7
      vertex 12.7 -12.7 12.7
    endloop
  endfacet
  facet normal 0 -1 0
    outer loop
      vertex 5.13726 -12.7 -3.73244
      vertex 12.7 -12.7 -12.7
      vertex 6.03921 -12.7 -1.96226
    endloop
  endfacet
  facet normal 0 -1 0
    outer loop
      vertex 3.73244 -12.7 -5.13726
      vertex 12.7 -12.7 -12.7
      vertex 5.13726 -12.7 -3.73244
    endloop
  endfacet
  facet normal 0 -1 0
    outer loop
      vertex 1.96226 -12.7 -6.03921
      vertex 12.7 -12.7 -12.7
      vertex 3.73244 -12.7 -5.13726
    endloop
  endfacet
  facet normal 0 -1 0
    outer loop
      vertex 0 -12.7 -6.35
      vertex 12.7 -12.7 -12.7
      vertex 1.96226 -12.7 -6.03921
    endloop
  endfacet
  facet normal -0.45399 -0.891007 0
    outer loop
      vertex 1.96226 6.03921 6.03921
      vertex 3.73244 5.13726 12.7
      vertex 1.96226 6.03921 12.7
    endloop
  endfacet
  facet normal -0.45399 -0.891007 -0
    outer loop
      vertex 3.73244 5.13726 12.7
      vertex 1.96226 6.03921 6.03921
      vertex 3.73244 5.13726 5.13726
    endloop
  endfacet
  facet normal -0.45399 -0.891007 0
    outer loop
      vertex 3.73244 5.13726 -12.7
      vertex 1.96226 6.03921 -6.03921
      vertex 1.96226 6.03921 -12.7
    endloop
  endfacet
  facet normal -0.45399 -0.891007 0
    outer loop
      vertex 1.96226 6.03921 -6.03921
      vertex 3.73244 5.13726 -12.7
      vertex 3.73244 5.13726 -5.13726
    endloop
  endfacet
  facet normal -0.987688 0.156434 0
    outer loop
      vertex 6.03921 -1.96226 12.7
      vertex 6.35 0 6.35
      vertex 6.03921 -1.96226 6.03921
    endloop
  endfacet
  facet normal -0.987688 0.156434 0
    outer loop
      vertex 6.35 0 6.35
      vertex 6.03921 -1.96226 12.7
      vertex 6.35 0 12.7
    endloop
  endfacet
  facet normal -0.987688 0.156434 0
    outer loop
      vertex 6.03921 -1.96226 -12.7
      vertex 6.35 0 -6.35
      vertex 6.35 0 -12.7
    endloop
  endfacet
  facet normal -0.987688 0.156434 0
    outer loop
      vertex 6.35 0 -6.35
      vertex 6.03921 -1.96226 -12.7
      vertex 6.03921 -1.96226 -6.03921
    endloop
  endfacet
  facet normal 0.45399 0.891007 0
    outer loop
      vertex -3.73244 -5.13726 -12.7
      vertex -1.96226 -6.03921 -6.03921
      vertex -1.96226 -6.03921 -12.7
    endloop
  endfacet
  facet normal 0.45399 0.891007 0
    outer loop
      vertex -1.96226 -6.03921 -6.03921
      vertex -3.73244 -5.13726 -12.7
      vertex -3.73244 -5.13726 -5.13726
    endloop
  endfacet
  facet normal 0.45399 0.891007 -0
    outer loop
      vertex -1.96226 -6.03921 6.03921
      vertex -3.73244 -5.13726 12.7
      vertex -1.96226 -6.03921 12.7
    endloop
  endfacet
  facet normal 0.45399 0.891007 0
    outer loop
      vertex -3.73244 -5.13726 12.7
      vertex -1.96226 -6.03921 6.03921
      vertex -3.73244 -5.13726 5.13726
    endloop
  endfacet
  facet normal -0.707107 -0.707107 0
    outer loop
      vertex 5.13726 3.73244 5.13726
      vertex 3.73244 5.13726 5.13726
      vertex 4.43485 4.43485 4.43485
    endloop
  endfacet
  facet normal -0.707107 -0.707107 0
    outer loop
      vertex 3.73244 5.13726 5.13726
      vertex 5.13726 3.73244 5.13726
      vertex 3.73244 5.13726 12.7
    endloop
  endfacet
  facet normal -0.707107 -0.707107 0
    outer loop
      vertex 3.73244 5.13726 12.7
      vertex 5.13726 3.73244 5.13726
      vertex 5.13726 3.73244 12.7
    endloop
  endfacet
  facet normal -0.707107 -0.707107 0
    outer loop
      vertex 5.13726 3.73244 -5.13726
      vertex 3.73244 5.13726 -5.13726
      vertex 3.73244 5.13726 -12.7
    endloop
  endfacet
  facet normal -0.707107 -0.707107 -0
    outer loop
      vertex 5.13726 3.73244 -5.13726
      vertex 3.73244 5.13726 -12.7
      vertex 5.13726 3.73244 -12.7
    endloop
  endfacet
  facet normal -0.707107 -0.707107 0
    outer loop
      vertex 3.73244 5.13726 -5.13726
      vertex 5.13726 3.73244 -5.13726
      vertex 4.43485 4.43485 -4.43485
    endloop
  endfacet
  facet normal -0.891007 -0.45399 -0
    outer loop
      vertex 6.03921 1.96226 -6.03921
      vertex 5.13726 3.73244 -12.7
      vertex 6.03921 1.96226 -12.7
    endloop
  endfacet
  facet normal -0.891007 -0.45399 0
    outer loop
      vertex 5.13726 3.73244 -12.7
      vertex 6.03921 1.96226 -6.03921
      vertex 5.13726 3.73244 -5.13726
    endloop
  endfacet
  facet normal -0.891007 -0.45399 0
    outer loop
      vertex 6.03921 1.96226 6.03921
      vertex 5.13726 3.73244 12.7
      vertex 5.13726 3.73244 5.13726
    endloop
  endfacet
  facet normal -0.891007 -0.45399 0
    outer loop
      vertex 5.13726 3.73244 12.7
      vertex 6.03921 1.96226 6.03921
      vertex 6.03921 1.96226 12.7
    endloop
  endfacet
  facet normal -0.156434 -0.987688 0
    outer loop
      vertex 1.96226 6.03921 -12.7
      vertex 0 6.35 -6.35
      vertex 0 6.35 -12.7
    endloop
  endfacet
  facet normal -0.156434 -0.987688 0
    outer loop
      vertex 0 6.35 -6.35
      vertex 1.96226 6.03921 -12.7
      vertex 1.96226 6.03921 -6.03921
    endloop
  endfacet
  facet normal -0.156434 -0.987688 0
    outer loop
      vertex 0 6.35 6.35
      vertex 1.96226 6.03921 12.7
      vertex 0 6.35 12.7
    endloop
  endfacet
  facet normal -0.156434 -0.987688 -0
    outer loop
      vertex 1.96226 6.03921 12.7
      vertex 0 6.35 6.35
      vertex 1.96226 6.03921 6.03921
    endloop
  endfacet
  facet normal 0.156434 -0.987688 0
    outer loop
      vertex -1.96226 6.03921 -12.7
      vertex 0 6.35 -6.35
      vertex -1.96226 6.03921 -6.03921
    endloop
  endfacet
  facet normal 0.156434 -0.987688 0
    outer loop
      vertex 0 6.35 -6.35
      vertex -1.96226 6.03921 -12.7
      vertex 0 6.35 -12.7
    endloop
  endfacet
  facet normal 0.156434 -0.987688 0
    outer loop
      vertex -1.96226 6.03921 12.7
      vertex 0 6.35 6.35
      vertex 0 6.35 12.7
    endloop
  endfacet
  facet normal 0.156434 -0.987688 0
    outer loop
      vertex 0 6.35 6.35
      vertex -1.96226 6.03921 12.7
      vertex -1.96226 6.03921 6.03921
    endloop
  endfacet
  facet normal 0.707107 -0.707107 0
    outer loop
      vertex -5.13726 3.73244 -5.13726
      vertex -3.73244 5.13726 -5.13726
      vertex -4.43485 4.43485 -4.43485
    endloop
  endfacet
  facet normal 0.707107 -0.707107 0
    outer loop
      vertex -3.73244 5.13726 -5.13726
      vertex -5.13726 3.73244 -5.13726
      vertex -3.73244 5.13726 -12.7
    endloop
  endfacet
  facet normal 0.707107 -0.707107 0
    outer loop
      vertex -3.73244 5.13726 -12.7
      vertex -5.13726 3.73244 -5.13726
      vertex -5.13726 3.73244 -12.7
    endloop
  endfacet
  facet normal 0.707107 -0.707107 0
    outer loop
      vertex -5.13726 3.73244 5.13726
      vertex -3.73244 5.13726 5.13726
      vertex -3.73244 5.13726 12.7
    endloop
  endfacet
  facet normal 0.707107 -0.707107 0
    outer loop
      vertex -5.13726 3.73244 5.13726
      vertex -3.73244 5.13726 12.7
      vertex -5.13726 3.73244 12.7
    endloop
  endfacet
  facet normal 0.707107 -0.707107 0
    outer loop
      vertex -3.73244 5.13726 5.13726
      vertex -5.13726 3.73244 5.13726
      vertex -4.43485 4.43485 4.43485
    endloop
  endfacet
  facet normal 0.45399 -0.891007 0
    outer loop
      vertex -3.73244 5.13726 12.7
      vertex -1.96226 6.03921 6.03921
      vertex -1.96226 6.03921 12.7
    endloop
  endfacet
  facet normal 0.45399 -0.891007 0
    outer loop
      vertex -1.96226 6.03921 6.03921
      vertex -3.73244 5.13726 12.7
      vertex -3.73244 5.13726 5.13726
    endloop
  endfacet
  facet normal 0.45399 -0.891007 0
    outer loop
      vertex -3.73244 5.13726 -12.7
      vertex -1.96226 6.03921 -6.03921
      vertex -3.73244 5.13726 -5.13726
    endloop
  endfacet
  facet normal 0.45399 -0.891007 0
    outer loop
      vertex -1.96226 6.03921 -6.03921
      vertex -3.73244 5.13726 -12.7
      vertex -1.96226 6.03921 -12.7
    endloop
  endfacet
  facet normal -0.707107 0.707107 0
    outer loop
      vertex 3.73244 -5.13726 -5.13726
      vertex 5.13726 -3.73244 -5.13726
      vertex 5.13726 -3.73244 -12.7
    endloop
  endfacet
  facet normal -0.707107 0.707107 0
    outer loop
      vertex 3.73244 -5.13726 -5.13726
      vertex 5.13726 -3.73244 -12.7
      vertex 3.73244 -5.13726 -12.7
    endloop
  endfacet
  facet normal -0.707107 0.707107 0
    outer loop
      vertex 5.13726 -3.73244 -5.13726
      vertex 3.73244 -5.13726 -5.13726
      vertex 4.43485 -4.43485 -4.43485
    endloop
  endfacet
  facet normal -0.707107 0.707107 0
    outer loop
      vertex 3.73244 -5.13726 5.13726
      vertex 5.13726 -3.73244 5.13726
      vertex 4.43485 -4.43485 4.43485
    endloop
  endfacet
  facet normal -0.707107 0.707107 0
    outer loop
      vertex 5.13726 -3.73244 5.13726
      vertex 3.73244 -5.13726 5.13726
      vertex 5.13726 -3.73244 12.7
    endloop
  endfacet
  facet normal -0.707107 0.707107 0
    outer loop
      vertex 5.13726 -3.73244 12.7
      vertex 3.73244 -5.13726 5.13726
      vertex 3.73244 -5.13726 12.7
    endloop
  endfacet
  facet normal -0.891007 0.45399 0
    outer loop
      vertex 5.13726 -3.73244 -12.7
      vertex 6.03921 -1.96226 -6.03921
      vertex 6.03921 -1.96226 -12.7
    endloop
  endfacet
  facet normal -0.891007 0.45399 0
    outer loop
      vertex 6.03921 -1.96226 -6.03921
      vertex 5.13726 -3.73244 -12.7
      vertex 5.13726 -3.73244 -5.13726
    endloop
  endfacet
  facet normal -0.891007 0.45399 0
    outer loop
      vertex 5.13726 -3.73244 12.7
      vertex 6.03921 -1.96226 6.03921
      vertex 5.13726 -3.73244 5.13726
    endloop
  endfacet
  facet normal -0.891007 0.45399 0
    outer loop
      vertex 6.03921 -1.96226 6.03921
      vertex 5.13726 -3.73244 12.7
      vertex 6.03921 -1.96226 12.7
    endloop
  endfacet
  facet normal 0.987688 0.156434 -0
    outer loop
      vertex -6.03921 -1.96226 -12.7
      vertex -6.35 0 -6.35
      vertex -6.03921 -1.96226 -6.03921
    endloop
  endfacet
  facet normal 0.987688 0.156434 0
    outer loop
      vertex -6.35 0 -6.35
      vertex -6.03921 -1.96226 -12.7
      vertex -6.35 0 -12.7
    endloop
  endfacet
  facet normal 0.987688 0.156434 0
    outer loop
      vertex -6.03921 -1.96226 12.7
      vertex -6.35 0 6.35
      vertex -6.35 0 12.7
    endloop
  endfacet
  facet normal 0.987688 0.156434 0
    outer loop
      vertex -6.35 0 6.35
      vertex -6.03921 -1.96226 12.7
      vertex -6.03921 -1.96226 6.03921
    endloop
  endfacet
  facet normal 0.707107 0.707107 0
    outer loop
      vertex -3.73244 -5.13726 -5.13726
      vertex -5.13726 -3.73244 -5.13726
      vertex -4.43485 -4.43485 -4.43485
    endloop
  endfacet
  facet normal 0.707107 0.707107 0
    outer loop
      vertex -5.13726 -3.73244 -5.13726
      vertex -3.73244 -5.13726 -5.13726
      vertex -5.13726 -3.73244 -12.7
    endloop
  endfacet
  facet normal 0.707107 0.707107 0
    outer loop
      vertex -5.13726 -3.73244 -12.7
      vertex -3.73244 -5.13726 -5.13726
      vertex -3.73244 -5.13726 -12.7
    endloop
  endfacet
  facet normal 0.707107 0.707107 0
    outer loop
      vertex -3.73244 -5.13726 5.13726
      vertex -5.13726 -3.73244 5.13726
      vertex -5.13726 -3.73244 12.7
    endloop
  endfacet
  facet normal 0.707107 0.707107 -0
    outer loop
      vertex -3.73244 -5.13726 5.13726
      vertex -5.13726 -3.73244 12.7
      vertex -3.73244 -5.13726 12.7
    endloop
  endfacet
  facet normal 0.707107 0.707107 0
    outer loop
      vertex -5.13726 -3.73244 5.13726
      vertex -3.73244 -5.13726 5.13726
      vertex -4.43485 -4.43485 4.43485
    endloop
  endfacet
  facet normal 0.987688 -0.156434 0
    outer loop
      vertex -6.35 0 -6.35
      vertex -6.03921 1.96226 -12.7
      vertex -6.03921 1.96226 -6.03921
    endloop
  endfacet
  facet normal 0.987688 -0.156434 0
    outer loop
      vertex -6.03921 1.96226 -12.7
      vertex -6.35 0 -6.35
      vertex -6.35 0 -12.7
    endloop
  endfacet
  facet normal 0.987688 -0.156434 0
    outer loop
      vertex -6.35 0 6.35
      vertex -6.03921 1.96226 12.7
      vertex -6.35 0 12.7
    endloop
  endfacet
  facet normal 0.987688 -0.156434 0
    outer loop
      vertex -6.03921 1.96226 12.7
      vertex -6.35 0 6.35
      vertex -6.03921 1.96226 6.03921
    endloop
  endfacet
  facet normal -0.987688 -0.156434 -0
    outer loop
      vertex 6.35 0 -6.35
      vertex 6.03921 1.96226 -12.7
      vertex 6.35 0 -12.7
    endloop
  endfacet
  facet normal -0.987688 -0.156434 0
    outer loop
      vertex 6.03921 1.96226 -12.7
      vertex 6.35 0 -6.35
      vertex 6.03921 1.96226 -6.03921
    endloop
  endfacet
  facet normal -0.987688 -0.156434 0
    outer loop
      vertex 6.35 0 6.35
      vertex 6.03921 1.96226 12.7
      vertex 6.03921 1.96226 6.03921
    endloop
  endfacet
  facet normal -0.987688 -0.156434 0
    outer loop
      vertex 6.03921 1.96226 12.7
      vertex 6.35 0 6.35
      vertex 6.35 0 12.7
    endloop
  endfacet
  facet normal -0.156434 0.987688 0
    outer loop
      vertex 1.96226 -6.03921 12.7
      vertex 0 -6.35 6.35
      vertex 0 -6.35 12.7
    endloop
  endfacet
  facet normal -0.156434 0.987688 0
    outer loop
      vertex 0 -6.35 6.35
      vertex 1.96226 -6.03921 12.7
      vertex 1.96226 -6.03921 6.03921
    endloop
  endfacet
  facet normal -0.156434 0.987688 0
    outer loop
      vertex 1.96226 -6.03921 -12.7
      vertex 0 -6.35 -6.35
      vertex 1.96226 -6.03921 -6.03921
    endloop
  endfacet
  facet normal -0.156434 0.987688 0
    outer loop
      vertex 0 -6.35 -6.35
      vertex 1.96226 -6.03921 -12.7
      vertex 0 -6.35 -12.7
    endloop
  endfacet
  facet normal -0.45399 0.891007 0
    outer loop
      vertex 3.73244 -5.13726 -12.7
      vertex 1.96226 -6.03921 -6.03921
      vertex 3.73244 -5.13726 -5.13726
    endloop
  endfacet
  facet normal -0.45399 0.891007 0
    outer loop
      vertex 1.96226 -6.03921 -6.03921
      vertex 3.73244 -5.13726 -12.7
      vertex 1.96226 -6.03921 -12.7
    endloop
  endfacet
  facet normal -0.45399 0.891007 0
    outer loop
      vertex 3.73244 -5.13726 12.7
      vertex 1.96226 -6.03921 6.03921
      vertex 1.96226 -6.03921 12.7
    endloop
  endfacet
  facet normal -0.45399 0.891007 0
    outer loop
      vertex 1.96226 -6.03921 6.03921
      vertex 3.73244 -5.13726 12.7
      vertex 3.73244 -5.13726 5.13726
    endloop
  endfacet
  facet normal 0.156434 0.987688 -0
    outer loop
      vertex 0 -6.35 6.35
      vertex -1.96226 -6.03921 12.7
      vertex 0 -6.35 12.7
    endloop
  endfacet
  facet normal 0.156434 0.987688 0
    outer loop
      vertex -1.96226 -6.03921 12.7
      vertex 0 -6.35 6.35
      vertex -1.96226 -6.03921 6.03921
    endloop
  endfacet
  facet normal 0.156434 0.987688 0
    outer loop
      vertex -1.96226 -6.03921 -12.7
      vertex 0 -6.35 -6.35
      vertex 0 -6.35 -12.7
    endloop
  endfacet
  facet normal 0.156434 0.987688 0
    outer loop
      vertex 0 -6.35 -6.35
      vertex -1.96226 -6.03921 -12.7
      vertex -1.96226 -6.03921 -6.03921
    endloop
  endfacet
  facet normal 0.891007 0.45399 -0
    outer loop
      vertex -5.13726 -3.73244 -12.7
      vertex -6.03921 -1.96226 -6.03921
      vertex -5.13726 -3.73244 -5.13726
    endloop
  endfacet
  facet normal 0.891007 0.45399 0
    outer loop
      vertex -6.03921 -1.96226 -6.03921
      vertex -5.13726 -3.73244 -12.7
      vertex -6.03921 -1.96226 -12.7
    endloop
  endfacet
  facet normal 0.891007 0.45399 0
    outer loop
      vertex -5.13726 -3.73244 12.7
      vertex -6.03921 -1.96226 6.03921
      vertex -6.03921 -1.96226 12.7
    endloop
  endfacet
  facet normal 0.891007 0.45399 0
    outer loop
      vertex -6.03921 -1.96226 6.03921
      vertex -5.13726 -3.73244 12.7
      vertex -5.13726 -3.73244 5.13726
    endloop
  endfacet
  facet normal 0.891007 -0.45399 0
    outer loop
      vertex -6.03921 1.96226 -6.03921
      vertex -5.13726 3.73244 -12.7
      vertex -5.13726 3.73244 -5.13726
    endloop
  endfacet
  facet normal 0.891007 -0.45399 0
    outer loop
      vertex -5.13726 3.73244 -12.7
      vertex -6.03921 1.96226 -6.03921
      vertex -6.03921 1.96226 -12.7
    endloop
  endfacet
  facet normal 0.891007 -0.45399 0
    outer loop
      vertex -6.03921 1.96226 6.03921
      vertex -5.13726 3.73244 12.7
      vertex -6.03921 1.96226 12.7
    endloop
  endfacet
  facet normal 0.891007 -0.45399 0
    outer loop
      vertex -5.13726 3.73244 12.7
      vertex -6.03921 1.96226 6.03921
      vertex -5.13726 3.73244 5.13726
    endloop
  endfacet
  facet normal -0.987688 0 -0.156434
    outer loop
      vertex 6.35 6.35 0
      vertex 6.03921 12.7 1.96226
      vertex 6.35 12.7 0
    endloop
  endfacet
  facet normal -0.987688 -0 -0.156434
    outer loop
      vertex 6.03921 12.7 1.96226
      vertex 6.35 6.35 0
      vertex 6.03921 6.03921 1.96226
    endloop
  endfacet
  facet normal -0.987688 0 -0.156434
    outer loop
      vertex 6.03921 -12.7 1.96226
      vertex 6.35 -6.35 0
      vertex 6.35 -12.7 0
    endloop
  endfacet
  facet normal -0.987688 0 -0.156434
    outer loop
      vertex 6.35 -6.35 0
      vertex 6.03921 -12.7 1.96226
      vertex 6.03921 -6.03921 1.96226
    endloop
  endfacet
  facet normal -0.891007 0 -0.45399
    outer loop
      vertex 6.03921 6.03921 1.96226
      vertex 5.13726 12.7 3.73244
      vertex 6.03921 12.7 1.96226
    endloop
  endfacet
  facet normal -0.891007 -0 -0.45399
    outer loop
      vertex 5.13726 12.7 3.73244
      vertex 6.03921 6.03921 1.96226
      vertex 5.13726 5.13726 3.73244
    endloop
  endfacet
  facet normal -0.891007 0 -0.45399
    outer loop
      vertex 5.13726 -12.7 3.73244
      vertex 6.03921 -6.03921 1.96226
      vertex 6.03921 -12.7 1.96226
    endloop
  endfacet
  facet normal -0.891007 0 -0.45399
    outer loop
      vertex 6.03921 -6.03921 1.96226
      vertex 5.13726 -12.7 3.73244
      vertex 5.13726 -5.13726 3.73244
    endloop
  endfacet
  facet normal -0.156434 0 -0.987688
    outer loop
      vertex 0 6.35 6.35
      vertex 1.96226 12.7 6.03921
      vertex 1.96226 6.03921 6.03921
    endloop
  endfacet
  facet normal -0.156434 0 -0.987688
    outer loop
      vertex 1.96226 12.7 6.03921
      vertex 0 6.35 6.35
      vertex 0 12.7 6.35
    endloop
  endfacet
  facet normal -0.156434 -0 -0.987688
    outer loop
      vertex 0 -6.35 6.35
      vertex 1.96226 -12.7 6.03921
      vertex 0 -12.7 6.35
    endloop
  endfacet
  facet normal -0.156434 0 -0.987688
    outer loop
      vertex 1.96226 -12.7 6.03921
      vertex 0 -6.35 6.35
      vertex 1.96226 -6.03921 6.03921
    endloop
  endfacet
  facet normal -0.707107 0 -0.707107
    outer loop
      vertex 5.13726 5.13726 3.73244
      vertex 3.73244 12.7 5.13726
      vertex 5.13726 12.7 3.73244
    endloop
  endfacet
  facet normal -0.707107 0 -0.707107
    outer loop
      vertex 5.13726 5.13726 3.73244
      vertex 3.73244 5.13726 5.13726
      vertex 3.73244 12.7 5.13726
    endloop
  endfacet
  facet normal -0.707107 0 -0.707107
    outer loop
      vertex 3.73244 5.13726 5.13726
      vertex 5.13726 5.13726 3.73244
      vertex 4.43485 4.43485 4.43485
    endloop
  endfacet
  facet normal -0.707107 0 -0.707107
    outer loop
      vertex 5.13726 -5.13726 3.73244
      vertex 3.73244 -5.13726 5.13726
      vertex 4.43485 -4.43485 4.43485
    endloop
  endfacet
  facet normal -0.707107 0 -0.707107
    outer loop
      vertex 5.13726 -12.7 3.73244
      vertex 3.73244 -5.13726 5.13726
      vertex 5.13726 -5.13726 3.73244
    endloop
  endfacet
  facet normal -0.707107 -0 -0.707107
    outer loop
      vertex 3.73244 -5.13726 5.13726
      vertex 5.13726 -12.7 3.73244
      vertex 3.73244 -12.7 5.13726
    endloop
  endfacet
  facet normal 0.45399 0 -0.891007
    outer loop
      vertex -3.73244 -12.7 5.13726
      vertex -1.96226 -6.03921 6.03921
      vertex -1.96226 -12.7 6.03921
    endloop
  endfacet
  facet normal 0.45399 0 -0.891007
    outer loop
      vertex -1.96226 -6.03921 6.03921
      vertex -3.73244 -12.7 5.13726
      vertex -3.73244 -5.13726 5.13726
    endloop
  endfacet
  facet normal 0.45399 0 -0.891007
    outer loop
      vertex -3.73244 12.7 5.13726
      vertex -1.96226 6.03921 6.03921
      vertex -3.73244 5.13726 5.13726
    endloop
  endfacet
  facet normal 0.45399 0 -0.891007
    outer loop
      vertex -1.96226 6.03921 6.03921
      vertex -3.73244 12.7 5.13726
      vertex -1.96226 12.7 6.03921
    endloop
  endfacet
  facet normal 0.156434 0 -0.987688
    outer loop
      vertex -1.96226 12.7 6.03921
      vertex 0 6.35 6.35
      vertex -1.96226 6.03921 6.03921
    endloop
  endfacet
  facet normal 0.156434 0 -0.987688
    outer loop
      vertex 0 6.35 6.35
      vertex -1.96226 12.7 6.03921
      vertex 0 12.7 6.35
    endloop
  endfacet
  facet normal 0.156434 0 -0.987688
    outer loop
      vertex -1.96226 -12.7 6.03921
      vertex 0 -6.35 6.35
      vertex 0 -12.7 6.35
    endloop
  endfacet
  facet normal 0.156434 0 -0.987688
    outer loop
      vertex 0 -6.35 6.35
      vertex -1.96226 -12.7 6.03921
      vertex -1.96226 -6.03921 6.03921
    endloop
  endfacet
  facet normal -0.156434 0 0.987688
    outer loop
      vertex 0 -6.35 -6.35
      vertex 1.96226 -12.7 -6.03921
      vertex 1.96226 -6.03921 -6.03921
    endloop
  endfacet
  facet normal -0.156434 0 0.987688
    outer loop
      vertex 1.96226 -12.7 -6.03921
      vertex 0 -6.35 -6.35
      vertex 0 -12.7 -6.35
    endloop
  endfacet
  facet normal -0.156434 0 0.987688
    outer loop
      vertex 0 6.35 -6.35
      vertex 1.96226 12.7 -6.03921
      vertex 0 12.7 -6.35
    endloop
  endfacet
  facet normal -0.156434 0 0.987688
    outer loop
      vertex 1.96226 12.7 -6.03921
      vertex 0 6.35 -6.35
      vertex 1.96226 6.03921 -6.03921
    endloop
  endfacet
  facet normal 0.987688 -0 0.156434
    outer loop
      vertex -6.35 6.35 0
      vertex -6.03921 12.7 -1.96226
      vertex -6.35 12.7 0
    endloop
  endfacet
  facet normal 0.987688 0 0.156434
    outer loop
      vertex -6.03921 12.7 -1.96226
      vertex -6.35 6.35 0
      vertex -6.03921 6.03921 -1.96226
    endloop
  endfacet
  facet normal 0.987688 0 0.156434
    outer loop
      vertex -6.03921 -12.7 -1.96226
      vertex -6.35 -6.35 0
      vertex -6.35 -12.7 0
    endloop
  endfacet
  facet normal 0.987688 0 0.156434
    outer loop
      vertex -6.35 -6.35 0
      vertex -6.03921 -12.7 -1.96226
      vertex -6.03921 -6.03921 -1.96226
    endloop
  endfacet
  facet normal -0.45399 0 -0.891007
    outer loop
      vertex 1.96226 6.03921 6.03921
      vertex 3.73244 12.7 5.13726
      vertex 3.73244 5.13726 5.13726
    endloop
  endfacet
  facet normal -0.45399 0 -0.891007
    outer loop
      vertex 3.73244 12.7 5.13726
      vertex 1.96226 6.03921 6.03921
      vertex 1.96226 12.7 6.03921
    endloop
  endfacet
  facet normal -0.45399 -0 -0.891007
    outer loop
      vertex 1.96226 -6.03921 6.03921
      vertex 3.73244 -12.7 5.13726
      vertex 1.96226 -12.7 6.03921
    endloop
  endfacet
  facet normal -0.45399 0 -0.891007
    outer loop
      vertex 3.73244 -12.7 5.13726
      vertex 1.96226 -6.03921 6.03921
      vertex 3.73244 -5.13726 5.13726
    endloop
  endfacet
  facet normal 0.707107 0 -0.707107
    outer loop
      vertex -3.73244 -5.13726 5.13726
      vertex -5.13726 -5.13726 3.73244
      vertex -4.43485 -4.43485 4.43485
    endloop
  endfacet
  facet normal 0.707107 0 -0.707107
    outer loop
      vertex -3.73244 -12.7 5.13726
      vertex -5.13726 -5.13726 3.73244
      vertex -3.73244 -5.13726 5.13726
    endloop
  endfacet
  facet normal 0.707107 0 -0.707107
    outer loop
      vertex -5.13726 -5.13726 3.73244
      vertex -3.73244 -12.7 5.13726
      vertex -5.13726 -12.7 3.73244
    endloop
  endfacet
  facet normal 0.707107 0 -0.707107
    outer loop
      vertex -3.73244 5.13726 5.13726
      vertex -5.13726 12.7 3.73244
      vertex -3.73244 12.7 5.13726
    endloop
  endfacet
  facet normal 0.707107 0 -0.707107
    outer loop
      vertex -3.73244 5.13726 5.13726
      vertex -5.13726 5.13726 3.73244
      vertex -5.13726 12.7 3.73244
    endloop
  endfacet
  facet normal 0.707107 0 -0.707107
    outer loop
      vertex -5.13726 5.13726 3.73244
      vertex -3.73244 5.13726 5.13726
      vertex -4.43485 4.43485 4.43485
    endloop
  endfacet
  facet normal -0.707107 0 0.707107
    outer loop
      vertex 3.73244 5.13726 -5.13726
      vertex 5.13726 12.7 -3.73244
      vertex 3.73244 12.7 -5.13726
    endloop
  endfacet
  facet normal -0.707107 0 0.707107
    outer loop
      vertex 3.73244 5.13726 -5.13726
      vertex 5.13726 5.13726 -3.73244
      vertex 5.13726 12.7 -3.73244
    endloop
  endfacet
  facet normal -0.707107 0 0.707107
    outer loop
      vertex 5.13726 5.13726 -3.73244
      vertex 3.73244 5.13726 -5.13726
      vertex 4.43485 4.43485 -4.43485
    endloop
  endfacet
  facet normal -0.707107 0 0.707107
    outer loop
      vertex 3.73244 -5.13726 -5.13726
      vertex 5.13726 -5.13726 -3.73244
      vertex 4.43485 -4.43485 -4.43485
    endloop
  endfacet
  facet normal -0.707107 0 0.707107
    outer loop
      vertex 3.73244 -12.7 -5.13726
      vertex 5.13726 -5.13726 -3.73244
      vertex 3.73244 -5.13726 -5.13726
    endloop
  endfacet
  facet normal -0.707107 0 0.707107
    outer loop
      vertex 5.13726 -5.13726 -3.73244
      vertex 3.73244 -12.7 -5.13726
      vertex 5.13726 -12.7 -3.73244
    endloop
  endfacet
  facet normal -0.891007 0 0.45399
    outer loop
      vertex 5.13726 12.7 -3.73244
      vertex 6.03921 6.03921 -1.96226
      vertex 6.03921 12.7 -1.96226
    endloop
  endfacet
  facet normal -0.891007 0 0.45399
    outer loop
      vertex 6.03921 6.03921 -1.96226
      vertex 5.13726 12.7 -3.73244
      vertex 5.13726 5.13726 -3.73244
    endloop
  endfacet
  facet normal -0.891007 0 0.45399
    outer loop
      vertex 5.13726 -12.7 -3.73244
      vertex 6.03921 -6.03921 -1.96226
      vertex 5.13726 -5.13726 -3.73244
    endloop
  endfacet
  facet normal -0.891007 0 0.45399
    outer loop
      vertex 6.03921 -6.03921 -1.96226
      vertex 5.13726 -12.7 -3.73244
      vertex 6.03921 -12.7 -1.96226
    endloop
  endfacet
  facet normal -0.987688 0 0.156434
    outer loop
      vertex 6.03921 -12.7 -1.96226
      vertex 6.35 -6.35 0
      vertex 6.03921 -6.03921 -1.96226
    endloop
  endfacet
  facet normal -0.987688 0 0.156434
    outer loop
      vertex 6.35 -6.35 0
      vertex 6.03921 -12.7 -1.96226
      vertex 6.35 -12.7 0
    endloop
  endfacet
  facet normal -0.987688 0 0.156434
    outer loop
      vertex 6.03921 12.7 -1.96226
      vertex 6.35 6.35 0
      vertex 6.35 12.7 0
    endloop
  endfacet
  facet normal -0.987688 0 0.156434
    outer loop
      vertex 6.35 6.35 0
      vertex 6.03921 12.7 -1.96226
      vertex 6.03921 6.03921 -1.96226
    endloop
  endfacet
  facet normal 0.707107 -0 0.707107
    outer loop
      vertex -5.13726 5.13726 -3.73244
      vertex -3.73244 12.7 -5.13726
      vertex -5.13726 12.7 -3.73244
    endloop
  endfacet
  facet normal 0.707107 0 0.707107
    outer loop
      vertex -5.13726 5.13726 -3.73244
      vertex -3.73244 5.13726 -5.13726
      vertex -3.73244 12.7 -5.13726
    endloop
  endfacet
  facet normal 0.707107 0 0.707107
    outer loop
      vertex -3.73244 5.13726 -5.13726
      vertex -5.13726 5.13726 -3.73244
      vertex -4.43485 4.43485 -4.43485
    endloop
  endfacet
  facet normal 0.707107 0 0.707107
    outer loop
      vertex -5.13726 -5.13726 -3.73244
      vertex -3.73244 -5.13726 -5.13726
      vertex -4.43485 -4.43485 -4.43485
    endloop
  endfacet
  facet normal 0.707107 -0 0.707107
    outer loop
      vertex -5.13726 -12.7 -3.73244
      vertex -3.73244 -5.13726 -5.13726
      vertex -5.13726 -5.13726 -3.73244
    endloop
  endfacet
  facet normal 0.707107 0 0.707107
    outer loop
      vertex -3.73244 -5.13726 -5.13726
      vertex -5.13726 -12.7 -3.73244
      vertex -3.73244 -12.7 -5.13726
    endloop
  endfacet
  facet normal 0.891007 -0 0.45399
    outer loop
      vertex -6.03921 6.03921 -1.96226
      vertex -5.13726 12.7 -3.73244
      vertex -6.03921 12.7 -1.96226
    endloop
  endfacet
  facet normal 0.891007 0 0.45399
    outer loop
      vertex -5.13726 12.7 -3.73244
      vertex -6.03921 6.03921 -1.96226
      vertex -5.13726 5.13726 -3.73244
    endloop
  endfacet
  facet normal 0.891007 0 0.45399
    outer loop
      vertex -5.13726 -12.7 -3.73244
      vertex -6.03921 -6.03921 -1.96226
      vertex -6.03921 -12.7 -1.96226
    endloop
  endfacet
  facet normal 0.891007 0 0.45399
    outer loop
      vertex -6.03921 -6.03921 -1.96226
      vertex -5.13726 -12.7 -3.73244
      vertex -5.13726 -5.13726 -3.73244
    endloop
  endfacet
  facet normal 0.891007 0 -0.45399
    outer loop
      vertex -5.13726 12.7 3.73244
      vertex -6.03921 6.03921 1.96226
      vertex -6.03921 12.7 1.96226
    endloop
  endfacet
  facet normal 0.891007 0 -0.45399
    outer loop
      vertex -6.03921 6.03921 1.96226
      vertex -5.13726 12.7 3.73244
      vertex -5.13726 5.13726 3.73244
    endloop
  endfacet
  facet normal 0.891007 0 -0.45399
    outer loop
      vertex -5.13726 -12.7 3.73244
      vertex -6.03921 -6.03921 1.96226
      vertex -5.13726 -5.13726 3.73244
    endloop
  endfacet
  facet normal 0.891007 0 -0.45399
    outer loop
      vertex -6.03921 -6.03921 1.96226
      vertex -5.13726 -12.7 3.73244
      vertex -6.03921 -12.7 1.96226
    endloop
  endfacet
  facet normal 0.987688 0 -0.156434
    outer loop
      vertex -6.03921 12.7 1.96226
      vertex -6.35 6.35 0
      vertex -6.35 12.7 0
    endloop
  endfacet
  facet normal 0.987688 0 -0.156434
    outer loop
      vertex -6.35 6.35 0
      vertex -6.03921 12.7 1.96226
      vertex -6.03921 6.03921 1.96226
    endloop
  endfacet
  facet normal 0.987688 0 -0.156434
    outer loop
      vertex -6.03921 -12.7 1.96226
      vertex -6.35 -6.35 0
      vertex -6.03921 -6.03921 1.96226
    endloop
  endfacet
  facet normal 0.987688 0 -0.156434
    outer loop
      vertex -6.35 -6.35 0
      vertex -6.03921 -12.7 1.96226
      vertex -6.35 -12.7 0
    endloop
  endfacet
  facet normal -0.45399 0 0.891007
    outer loop
      vertex 1.96226 6.03921 -6.03921
      vertex 3.73244 12.7 -5.13726
      vertex 1.96226 12.7 -6.03921
    endloop
  endfacet
  facet normal -0.45399 0 0.891007
    outer loop
      vertex 3.73244 12.7 -5.13726
      vertex 1.96226 6.03921 -6.03921
      vertex 3.73244 5.13726 -5.13726
    endloop
  endfacet
  facet normal -0.45399 0 0.891007
    outer loop
      vertex 1.96226 -6.03921 -6.03921
      vertex 3.73244 -12.7 -5.13726
      vertex 3.73244 -5.13726 -5.13726
    endloop
  endfacet
  facet normal -0.45399 0 0.891007
    outer loop
      vertex 3.73244 -12.7 -5.13726
      vertex 1.96226 -6.03921 -6.03921
      vertex 1.96226 -12.7 -6.03921
    endloop
  endfacet
  facet normal 0.45399 0 0.891007
    outer loop
      vertex -3.73244 12.7 -5.13726
      vertex -1.96226 6.03921 -6.03921
      vertex -1.96226 12.7 -6.03921
    endloop
  endfacet
  facet normal 0.45399 0 0.891007
    outer loop
      vertex -1.96226 6.03921 -6.03921
      vertex -3.73244 12.7 -5.13726
      vertex -3.73244 5.13726 -5.13726
    endloop
  endfacet
  facet normal 0.45399 -0 0.891007
    outer loop
      vertex -3.73244 -12.7 -5.13726
      vertex -1.96226 -6.03921 -6.03921
      vertex -3.73244 -5.13726 -5.13726
    endloop
  endfacet
  facet normal 0.45399 0 0.891007
    outer loop
      vertex -1.96226 -6.03921 -6.03921
      vertex -3.73244 -12.7 -5.13726
      vertex -1.96226 -12.7 -6.03921
    endloop
  endfacet
  facet normal 0.156434 -0 0.987688
    outer loop
      vertex -1.96226 -12.7 -6.03921
      vertex 0 -6.35 -6.35
      vertex -1.96226 -6.03921 -6.03921
    endloop
  endfacet
  facet normal 0.156434 0 0.987688
    outer loop
      vertex 0 -6.35 -6.35
      vertex -1.96226 -12.7 -6.03921
      vertex 0 -12.7 -6.35
    endloop
  endfacet
  facet normal 0.156434 0 0.987688
    outer loop
      vertex -1.96226 12.7 -6.03921
      vertex 0 6.35 -6.35
      vertex 0 12.7 -6.35
    endloop
  endfacet
  facet normal 0.156434 0 0.987688
    outer loop
      vertex 0 6.35 -6.35
      vertex -1.96226 12.7 -6.03921
      vertex -1.96226 6.03921 -6.03921
    endloop
  endfacet
  facet normal 0 -0.891007 0.45399
    outer loop
      vertex 12.7 5.13726 -3.73244
      vertex 6.03921 6.03921 -1.96226
      vertex 5.13726 5.13726 -3.73244
    endloop
  endfacet
  facet normal 0 -0.891007 0.45399
    outer loop
      vertex 6.03921 6.03921 -1.96226
      vertex 12.7 5.13726 -3.73244
      vertex 12.7 6.03921 -1.96226
    endloop
  endfacet
  facet normal 0 -0.891007 0.45399
    outer loop
      vertex -12.7 5.13726 -3.73244
      vertex -6.03921 6.03921 -1.96226
      vertex -12.7 6.03921 -1.96226
    endloop
  endfacet
  facet normal 0 -0.891007 0.45399
    outer loop
      vertex -6.03921 6.03921 -1.96226
      vertex -12.7 5.13726 -3.73244
      vertex -5.13726 5.13726 -3.73244
    endloop
  endfacet
  facet normal 0 -0.45399 -0.891007
    outer loop
      vertex -12.7 3.73244 5.13726
      vertex -6.03921 1.96226 6.03921
      vertex -12.7 1.96226 6.03921
    endloop
  endfacet
  facet normal 0 -0.45399 -0.891007
    outer loop
      vertex -6.03921 1.96226 6.03921
      vertex -12.7 3.73244 5.13726
      vertex -5.13726 3.73244 5.13726
    endloop
  endfacet
  facet normal 0 -0.45399 -0.891007
    outer loop
      vertex 6.03921 1.96226 6.03921
      vertex 12.7 3.73244 5.13726
      vertex 12.7 1.96226 6.03921
    endloop
  endfacet
  facet normal -0 -0.45399 -0.891007
    outer loop
      vertex 12.7 3.73244 5.13726
      vertex 6.03921 1.96226 6.03921
      vertex 5.13726 3.73244 5.13726
    endloop
  endfacet
  facet normal -0 0.156434 0.987688
    outer loop
      vertex 6.35 0 -6.35
      vertex 12.7 -1.96226 -6.03921
      vertex 12.7 0 -6.35
    endloop
  endfacet
  facet normal 0 0.156434 0.987688
    outer loop
      vertex 12.7 -1.96226 -6.03921
      vertex 6.35 0 -6.35
      vertex 6.03921 -1.96226 -6.03921
    endloop
  endfacet
  facet normal 0 0.156434 0.987688
    outer loop
      vertex -12.7 -1.96226 -6.03921
      vertex -6.35 0 -6.35
      vertex -12.7 0 -6.35
    endloop
  endfacet
  facet normal 0 0.156434 0.987688
    outer loop
      vertex -6.35 0 -6.35
      vertex -12.7 -1.96226 -6.03921
      vertex -6.03921 -1.96226 -6.03921
    endloop
  endfacet
  facet normal 0 0.891007 -0.45399
    outer loop
      vertex -6.03921 -6.03921 1.96226
      vertex -12.7 -5.13726 3.73244
      vertex -5.13726 -5.13726 3.73244
    endloop
  endfacet
  facet normal 0 0.891007 -0.45399
    outer loop
      vertex -12.7 -5.13726 3.73244
      vertex -6.03921 -6.03921 1.96226
      vertex -12.7 -6.03921 1.96226
    endloop
  endfacet
  facet normal 0 0.891007 -0.45399
    outer loop
      vertex 6.03921 -6.03921 1.96226
      vertex 12.7 -5.13726 3.73244
      vertex 12.7 -6.03921 1.96226
    endloop
  endfacet
  facet normal 0 0.891007 -0.45399
    outer loop
      vertex 12.7 -5.13726 3.73244
      vertex 6.03921 -6.03921 1.96226
      vertex 5.13726 -5.13726 3.73244
    endloop
  endfacet
  facet normal 0 -0.45399 0.891007
    outer loop
      vertex -12.7 3.73244 -5.13726
      vertex -6.03921 1.96226 -6.03921
      vertex -5.13726 3.73244 -5.13726
    endloop
  endfacet
  facet normal 0 -0.45399 0.891007
    outer loop
      vertex -6.03921 1.96226 -6.03921
      vertex -12.7 3.73244 -5.13726
      vertex -12.7 1.96226 -6.03921
    endloop
  endfacet
  facet normal 0 -0.45399 0.891007
    outer loop
      vertex 12.7 3.73244 -5.13726
      vertex 6.03921 1.96226 -6.03921
      vertex 12.7 1.96226 -6.03921
    endloop
  endfacet
  facet normal 0 -0.45399 0.891007
    outer loop
      vertex 6.03921 1.96226 -6.03921
      vertex 12.7 3.73244 -5.13726
      vertex 5.13726 3.73244 -5.13726
    endloop
  endfacet
  facet normal -0 -0.987688 -0.156434
    outer loop
      vertex -6.35 6.35 0
      vertex -12.7 6.03921 1.96226
      vertex -12.7 6.35 0
    endloop
  endfacet
  facet normal 0 -0.987688 -0.156434
    outer loop
      vertex -12.7 6.03921 1.96226
      vertex -6.35 6.35 0
      vertex -6.03921 6.03921 1.96226
    endloop
  endfacet
  facet normal 0 -0.987688 -0.156434
    outer loop
      vertex 6.35 6.35 0
      vertex 12.7 6.03921 1.96226
      vertex 6.03921 6.03921 1.96226
    endloop
  endfacet
  facet normal 0 -0.987688 -0.156434
    outer loop
      vertex 12.7 6.03921 1.96226
      vertex 6.35 6.35 0
      vertex 12.7 6.35 0
    endloop
  endfacet
  facet normal 0 -0.707107 -0.707107
    outer loop
      vertex -5.13726 5.13726 3.73244
      vertex -5.13726 3.73244 5.13726
      vertex -12.7 3.73244 5.13726
    endloop
  endfacet
  facet normal -0 -0.707107 -0.707107
    outer loop
      vertex -5.13726 5.13726 3.73244
      vertex -12.7 3.73244 5.13726
      vertex -12.7 5.13726 3.73244
    endloop
  endfacet
  facet normal 0 -0.707107 -0.707107
    outer loop
      vertex -5.13726 3.73244 5.13726
      vertex -5.13726 5.13726 3.73244
      vertex -4.43485 4.43485 4.43485
    endloop
  endfacet
  facet normal 0 -0.707107 -0.707107
    outer loop
      vertex 5.13726 5.13726 3.73244
      vertex 5.13726 3.73244 5.13726
      vertex 4.43485 4.43485 4.43485
    endloop
  endfacet
  facet normal 0 -0.707107 -0.707107
    outer loop
      vertex 5.13726 3.73244 5.13726
      vertex 5.13726 5.13726 3.73244
      vertex 12.7 3.73244 5.13726
    endloop
  endfacet
  facet normal 0 -0.707107 -0.707107
    outer loop
      vertex 12.7 3.73244 5.13726
      vertex 5.13726 5.13726 3.73244
      vertex 12.7 5.13726 3.73244
    endloop
  endfacet
  facet normal 0 -0.891007 -0.45399
    outer loop
      vertex 6.03921 6.03921 1.96226
      vertex 12.7 5.13726 3.73244
      vertex 5.13726 5.13726 3.73244
    endloop
  endfacet
  facet normal 0 -0.891007 -0.45399
    outer loop
      vertex 12.7 5.13726 3.73244
      vertex 6.03921 6.03921 1.96226
      vertex 12.7 6.03921 1.96226
    endloop
  endfacet
  facet normal -0 -0.891007 -0.45399
    outer loop
      vertex -6.03921 6.03921 1.96226
      vertex -12.7 5.13726 3.73244
      vertex -12.7 6.03921 1.96226
    endloop
  endfacet
  facet normal 0 -0.891007 -0.45399
    outer loop
      vertex -12.7 5.13726 3.73244
      vertex -6.03921 6.03921 1.96226
      vertex -5.13726 5.13726 3.73244
    endloop
  endfacet
  facet normal 0 0.707107 0.707107
    outer loop
      vertex -5.13726 -3.73244 -5.13726
      vertex -5.13726 -5.13726 -3.73244
      vertex -4.43485 -4.43485 -4.43485
    endloop
  endfacet
  facet normal 0 0.707107 0.707107
    outer loop
      vertex -5.13726 -5.13726 -3.73244
      vertex -5.13726 -3.73244 -5.13726
      vertex -12.7 -5.13726 -3.73244
    endloop
  endfacet
  facet normal 0 0.707107 0.707107
    outer loop
      vertex -12.7 -5.13726 -3.73244
      vertex -5.13726 -3.73244 -5.13726
      vertex -12.7 -3.73244 -5.13726
    endloop
  endfacet
  facet normal 0 0.707107 0.707107
    outer loop
      vertex 5.13726 -3.73244 -5.13726
      vertex 5.13726 -5.13726 -3.73244
      vertex 12.7 -5.13726 -3.73244
    endloop
  endfacet
  facet normal -0 0.707107 0.707107
    outer loop
      vertex 5.13726 -3.73244 -5.13726
      vertex 12.7 -5.13726 -3.73244
      vertex 12.7 -3.73244 -5.13726
    endloop
  endfacet
  facet normal 0 0.707107 0.707107
    outer loop
      vertex 5.13726 -5.13726 -3.73244
      vertex 5.13726 -3.73244 -5.13726
      vertex 4.43485 -4.43485 -4.43485
    endloop
  endfacet
  facet normal 0 0.45399 0.891007
    outer loop
      vertex -12.7 -3.73244 -5.13726
      vertex -6.03921 -1.96226 -6.03921
      vertex -12.7 -1.96226 -6.03921
    endloop
  endfacet
  facet normal 0 0.45399 0.891007
    outer loop
      vertex -6.03921 -1.96226 -6.03921
      vertex -12.7 -3.73244 -5.13726
      vertex -5.13726 -3.73244 -5.13726
    endloop
  endfacet
  facet normal -0 0.45399 0.891007
    outer loop
      vertex 6.03921 -1.96226 -6.03921
      vertex 12.7 -3.73244 -5.13726
      vertex 12.7 -1.96226 -6.03921
    endloop
  endfacet
  facet normal 0 0.45399 0.891007
    outer loop
      vertex 12.7 -3.73244 -5.13726
      vertex 6.03921 -1.96226 -6.03921
      vertex 5.13726 -3.73244 -5.13726
    endloop
  endfacet
  facet normal 0 0.156434 -0.987688
    outer loop
      vertex -12.7 -1.96226 6.03921
      vertex -6.35 0 6.35
      vertex -6.03921 -1.96226 6.03921
    endloop
  endfacet
  facet normal 0 0.156434 -0.987688
    outer loop
      vertex -6.35 0 6.35
      vertex -12.7 -1.96226 6.03921
      vertex -12.7 0 6.35
    endloop
  endfacet
  facet normal 0 0.156434 -0.987688
    outer loop
      vertex 12.7 -1.96226 6.03921
      vertex 6.35 0 6.35
      vertex 12.7 0 6.35
    endloop
  endfacet
  facet normal 0 0.156434 -0.987688
    outer loop
      vertex 6.35 0 6.35
      vertex 12.7 -1.96226 6.03921
      vertex 6.03921 -1.96226 6.03921
    endloop
  endfacet
  facet normal 0 0.707107 -0.707107
    outer loop
      vertex -5.13726 -5.13726 3.73244
      vertex -5.13726 -3.73244 5.13726
      vertex -4.43485 -4.43485 4.43485
    endloop
  endfacet
  facet normal 0 0.707107 -0.707107
    outer loop
      vertex -5.13726 -3.73244 5.13726
      vertex -5.13726 -5.13726 3.73244
      vertex -12.7 -3.73244 5.13726
    endloop
  endfacet
  facet normal 0 0.707107 -0.707107
    outer loop
      vertex -12.7 -3.73244 5.13726
      vertex -5.13726 -5.13726 3.73244
      vertex -12.7 -5.13726 3.73244
    endloop
  endfacet
  facet normal 0 0.707107 -0.707107
    outer loop
      vertex 5.13726 -5.13726 3.73244
      vertex 5.13726 -3.73244 5.13726
      vertex 12.7 -3.73244 5.13726
    endloop
  endfacet
  facet normal 0 0.707107 -0.707107
    outer loop
      vertex 5.13726 -5.13726 3.73244
      vertex 12.7 -3.73244 5.13726
      vertex 12.7 -5.13726 3.73244
    endloop
  endfacet
  facet normal 0 0.707107 -0.707107
    outer loop
      vertex 5.13726 -3.73244 5.13726
      vertex 5.13726 -5.13726 3.73244
      vertex 4.43485 -4.43485 4.43485
    endloop
  endfacet
  facet normal 0 0.45399 -0.891007
    outer loop
      vertex -12.7 -3.73244 5.13726
      vertex -6.03921 -1.96226 6.03921
      vertex -5.13726 -3.73244 5.13726
    endloop
  endfacet
  facet normal 0 0.45399 -0.891007
    outer loop
      vertex -6.03921 -1.96226 6.03921
      vertex -12.7 -3.73244 5.13726
      vertex -12.7 -1.96226 6.03921
    endloop
  endfacet
  facet normal 0 0.45399 -0.891007
    outer loop
      vertex 12.7 -3.73244 5.13726
      vertex 6.03921 -1.96226 6.03921
      vertex 12.7 -1.96226 6.03921
    endloop
  endfacet
  facet normal 0 0.45399 -0.891007
    outer loop
      vertex 6.03921 -1.96226 6.03921
      vertex 12.7 -3.73244 5.13726
      vertex 5.13726 -3.73244 5.13726
    endloop
  endfacet
  facet normal 0 -0.707107 0.707107
    outer loop
      vertex 5.13726 3.73244 -5.13726
      vertex 5.13726 5.13726 -3.73244
      vertex 4.43485 4.43485 -4.43485
    endloop
  endfacet
  facet normal 0 -0.707107 0.707107
    outer loop
      vertex 5.13726 5.13726 -3.73244
      vertex 5.13726 3.73244 -5.13726
      vertex 12.7 5.13726 -3.73244
    endloop
  endfacet
  facet normal 0 -0.707107 0.707107
    outer loop
      vertex 12.7 5.13726 -3.73244
      vertex 5.13726 3.73244 -5.13726
      vertex 12.7 3.73244 -5.13726
    endloop
  endfacet
  facet normal 0 -0.707107 0.707107
    outer loop
      vertex -5.13726 3.73244 -5.13726
      vertex -5.13726 5.13726 -3.73244
      vertex -12.7 5.13726 -3.73244
    endloop
  endfacet
  facet normal 0 -0.707107 0.707107
    outer loop
      vertex -5.13726 3.73244 -5.13726
      vertex -12.7 5.13726 -3.73244
      vertex -12.7 3.73244 -5.13726
    endloop
  endfacet
  facet normal 0 -0.707107 0.707107
    outer loop
      vertex -5.13726 5.13726 -3.73244
      vertex -5.13726 3.73244 -5.13726
      vertex -4.43485 4.43485 -4.43485
    endloop
  endfacet
  facet normal 0 -0.987688 0.156434
    outer loop
      vertex -12.7 6.03921 -1.96226
      vertex -6.35 6.35 0
      vertex -12.7 6.35 0
    endloop
  endfacet
  facet normal 0 -0.987688 0.156434
    outer loop
      vertex -6.35 6.35 0
      vertex -12.7 6.03921 -1.96226
      vertex -6.03921 6.03921 -1.96226
    endloop
  endfacet
  facet normal 0 -0.987688 0.156434
    outer loop
      vertex 12.7 6.03921 -1.96226
      vertex 6.35 6.35 0
      vertex 6.03921 6.03921 -1.96226
    endloop
  endfacet
  facet normal 0 -0.987688 0.156434
    outer loop
      vertex 6.35 6.35 0
      vertex 12.7 6.03921 -1.96226
      vertex 12.7 6.35 0
    endloop
  endfacet
  facet normal 0 -0.156434 -0.987688
    outer loop
      vertex -12.7 1.96226 6.03921
      vertex -6.35 0 6.35
      vertex -12.7 0 6.35
    endloop
  endfacet
  facet normal 0 -0.156434 -0.987688
    outer loop
      vertex -6.35 0 6.35
      vertex -12.7 1.96226 6.03921
      vertex -6.03921 1.96226 6.03921
    endloop
  endfacet
  facet normal 0 -0.156434 -0.987688
    outer loop
      vertex 6.35 0 6.35
      vertex 12.7 1.96226 6.03921
      vertex 12.7 0 6.35
    endloop
  endfacet
  facet normal -0 -0.156434 -0.987688
    outer loop
      vertex 12.7 1.96226 6.03921
      vertex 6.35 0 6.35
      vertex 6.03921 1.96226 6.03921
    endloop
  endfacet
  facet normal 0 -0.156434 0.987688
    outer loop
      vertex -12.7 1.96226 -6.03921
      vertex -6.35 0 -6.35
      vertex -6.03921 1.96226 -6.03921
    endloop
  endfacet
  facet normal 0 -0.156434 0.987688
    outer loop
      vertex -6.35 0 -6.35
      vertex -12.7 1.96226 -6.03921
      vertex -12.7 0 -6.35
    endloop
  endfacet
  facet normal 0 -0.156434 0.987688
    outer loop
      vertex 12.7 1.96226 -6.03921
      vertex 6.35 0 -6.35
      vertex 12.7 0 -6.35
    endloop
  endfacet
  facet normal 0 -0.156434 0.987688
    outer loop
      vertex 6.35 0 -6.35
      vertex 12.7 1.96226 -6.03921
      vertex 6.03921 1.96226 -6.03921
    endloop
  endfacet
  facet normal 0 0.987688 0.156434
    outer loop
      vertex 12.7 -6.03921 -1.96226
      vertex 6.35 -6.35 0
      vertex 12.7 -6.35 0
    endloop
  endfacet
  facet normal 0 0.987688 0.156434
    outer loop
      vertex 6.35 -6.35 0
      vertex 12.7 -6.03921 -1.96226
      vertex 6.03921 -6.03921 -1.96226
    endloop
  endfacet
  facet normal -0 0.987688 0.156434
    outer loop
      vertex -12.7 -6.03921 -1.96226
      vertex -6.35 -6.35 0
      vertex -6.03921 -6.03921 -1.96226
    endloop
  endfacet
  facet normal 0 0.987688 0.156434
    outer loop
      vertex -6.35 -6.35 0
      vertex -12.7 -6.03921 -1.96226
      vertex -12.7 -6.35 0
    endloop
  endfacet
  facet normal -0 0.891007 0.45399
    outer loop
      vertex -12.7 -5.13726 -3.73244
      vertex -6.03921 -6.03921 -1.96226
      vertex -5.13726 -5.13726 -3.73244
    endloop
  endfacet
  facet normal 0 0.891007 0.45399
    outer loop
      vertex -6.03921 -6.03921 -1.96226
      vertex -12.7 -5.13726 -3.73244
      vertex -12.7 -6.03921 -1.96226
    endloop
  endfacet
  facet normal 0 0.891007 0.45399
    outer loop
      vertex 12.7 -5.13726 -3.73244
      vertex 6.03921 -6.03921 -1.96226
      vertex 12.7 -6.03921 -1.96226
    endloop
  endfacet
  facet normal 0 0.891007 0.45399
    outer loop
      vertex 6.03921 -6.03921 -1.96226
      vertex 12.7 -5.13726 -3.73244
      vertex 5.13726 -5.13726 -3.73244
    endloop
  endfacet
  facet normal 0 0.987688 -0.156434
    outer loop
      vertex 6.35 -6.35 0
      vertex 12.7 -6.03921 1.96226
      vertex 12.7 -6.35 0
    endloop
  endfacet
  facet normal 0 0.987688 -0.156434
    outer loop
      vertex 12.7 -6.03921 1.96226
      vertex 6.35 -6.35 0
      vertex 6.03921 -6.03921 1.96226
    endloop
  endfacet
  facet normal 0 0.987688 -0.156434
    outer loop
      vertex -6.35 -6.35 0
      vertex -12.7 -6.03921 1.96226
      vertex -6.03921 -6.03921 1.96226
    endloop
  endfacet
  facet normal 0 0.987688 -0.156434
    outer loop
      vertex -12.7 -6.03921 1.96226
      vertex -6.35 -6.35 0
      vertex -12.7 -6.35 0
    endloop
  endfacet
endsolid OpenSCAD_Model
