solid OpenSCAD_Model
  facet normal 0.866025 0.5 0
    outer loop
      vertex 23.2041 10.3311 1.5875
      vertex 20.549 14.9297 0
      vertex 20.549 14.9297 1.5875
    endloop
  endfacet
  facet normal 0.866025 0.5 0
    outer loop
      vertex 20.549 14.9297 0
      vertex 23.2041 10.3311 1.5875
      vertex 23.2041 10.3311 0
    endloop
  endfacet
  facet normal -0.951057 0.309017 0
    outer loop
      vertex -24.8449 5.28096 0
      vertex -23.2041 10.3311 1.5875
      vertex -23.2041 10.3311 0
    endloop
  endfacet
  facet normal -0.951057 0.309017 0
    outer loop
      vertex -23.2041 10.3311 1.5875
      vertex -24.8449 5.28096 0
      vertex -24.8449 5.28096 1.5875
    endloop
  endfacet
  facet normal 0.743145 0.66913 0
    outer loop
      vertex 20.549 14.9297 1.5875
      vertex 16.9959 18.8759 0
      vertex 16.9959 18.8759 1.5875
    endloop
  endfacet
  facet normal 0.743145 0.66913 0
    outer loop
      vertex 16.9959 18.8759 0
      vertex 20.549 14.9297 1.5875
      vertex 20.549 14.9297 0
    endloop
  endfacet
  facet normal 0.207912 0.978148 -0
    outer loop
      vertex 7.84903 24.1568 0
      vertex 2.65502 25.2609 1.5875
      vertex 7.84903 24.1568 1.5875
    endloop
  endfacet
  facet normal 0.207912 0.978148 0
    outer loop
      vertex 2.65502 25.2609 1.5875
      vertex 7.84903 24.1568 0
      vertex 2.65502 25.2609 0
    endloop
  endfacet
  facet normal 0.406737 0.913545 -0
    outer loop
      vertex 12.7 21.997 0
      vertex 7.84903 24.1568 1.5875
      vertex 12.7 21.997 1.5875
    endloop
  endfacet
  facet normal 0.406737 0.913545 0
    outer loop
      vertex 7.84903 24.1568 1.5875
      vertex 12.7 21.997 0
      vertex 7.84903 24.1568 0
    endloop
  endfacet
  facet normal -0.406737 0.913545 0
    outer loop
      vertex -7.84903 24.1568 0
      vertex -12.7 21.997 1.5875
      vertex -7.84903 24.1568 1.5875
    endloop
  endfacet
  facet normal -0.406737 0.913545 0
    outer loop
      vertex -12.7 21.997 1.5875
      vertex -7.84903 24.1568 0
      vertex -12.7 21.997 0
    endloop
  endfacet
  facet normal -0.866025 0.5 0
    outer loop
      vertex -23.2041 10.3311 0
      vertex -20.549 14.9297 1.5875
      vertex -20.549 14.9297 0
    endloop
  endfacet
  facet normal -0.866025 0.5 0
    outer loop
      vertex -20.549 14.9297 1.5875
      vertex -23.2041 10.3311 0
      vertex -23.2041 10.3311 1.5875
    endloop
  endfacet
  facet normal -0.587785 0.809017 0
    outer loop
      vertex -12.7 21.997 0
      vertex -16.9959 18.8759 1.5875
      vertex -12.7 21.997 1.5875
    endloop
  endfacet
  facet normal -0.587785 0.809017 0
    outer loop
      vertex -16.9959 18.8759 1.5875
      vertex -12.7 21.997 0
      vertex -16.9959 18.8759 0
    endloop
  endfacet
  facet normal 0.994522 -0.104529 0
    outer loop
      vertex 24.8449 -5.28096 1.5875
      vertex 25.4 0 0
      vertex 25.4 0 1.5875
    endloop
  endfacet
  facet normal 0.994522 -0.104529 0
    outer loop
      vertex 25.4 0 0
      vertex 24.8449 -5.28096 1.5875
      vertex 24.8449 -5.28096 0
    endloop
  endfacet
  facet normal 0.207912 -0.978148 0
    outer loop
      vertex 2.65502 -25.2609 0
      vertex 7.84903 -24.1568 1.5875
      vertex 2.65502 -25.2609 1.5875
    endloop
  endfacet
  facet normal 0.207912 -0.978148 0
    outer loop
      vertex 7.84903 -24.1568 1.5875
      vertex 2.65502 -25.2609 0
      vertex 7.84903 -24.1568 0
    endloop
  endfacet
  facet normal 0 1 -0
    outer loop
      vertex 2.65502 25.2609 0
      vertex -2.65502 25.2609 1.5875
      vertex 2.65502 25.2609 1.5875
    endloop
  endfacet
  facet normal 0 1 0
    outer loop
      vertex -2.65502 25.2609 1.5875
      vertex 2.65502 25.2609 0
      vertex -2.65502 25.2609 0
    endloop
  endfacet
  facet normal 0.587785 0.809017 -0
    outer loop
      vertex 16.9959 18.8759 0
      vertex 12.7 21.997 1.5875
      vertex 16.9959 18.8759 1.5875
    endloop
  endfacet
  facet normal 0.587785 0.809017 0
    outer loop
      vertex 12.7 21.997 1.5875
      vertex 16.9959 18.8759 0
      vertex 12.7 21.997 0
    endloop
  endfacet
  facet normal -0.994522 0.104529 0
    outer loop
      vertex -25.4 0 0
      vertex -24.8449 5.28096 1.5875
      vertex -24.8449 5.28096 0
    endloop
  endfacet
  facet normal -0.994522 0.104529 0
    outer loop
      vertex -24.8449 5.28096 1.5875
      vertex -25.4 0 0
      vertex -25.4 0 1.5875
    endloop
  endfacet
  facet normal -0.743145 0.66913 0
    outer loop
      vertex -20.549 14.9297 0
      vertex -16.9959 18.8759 1.5875
      vertex -16.9959 18.8759 0
    endloop
  endfacet
  facet normal -0.743145 0.66913 0
    outer loop
      vertex -16.9959 18.8759 1.5875
      vertex -20.549 14.9297 0
      vertex -20.549 14.9297 1.5875
    endloop
  endfacet
  facet normal -0.207912 0.978148 0
    outer loop
      vertex -2.65502 25.2609 0
      vertex -7.84903 24.1568 1.5875
      vertex -2.65502 25.2609 1.5875
    endloop
  endfacet
  facet normal -0.207912 0.978148 0
    outer loop
      vertex -7.84903 24.1568 1.5875
      vertex -2.65502 25.2609 0
      vertex -7.84903 24.1568 0
    endloop
  endfacet
  facet normal 0.994522 0.104529 0
    outer loop
      vertex 25.4 0 1.5875
      vertex 24.8449 5.28096 0
      vertex 24.8449 5.28096 1.5875
    endloop
  endfacet
  facet normal 0.994522 0.104529 0
    outer loop
      vertex 24.8449 5.28096 0
      vertex 25.4 0 1.5875
      vertex 25.4 0 0
    endloop
  endfacet
  facet normal 0.951057 -0.309017 0
    outer loop
      vertex 23.2041 -10.3311 1.5875
      vertex 24.8449 -5.28096 0
      vertex 24.8449 -5.28096 1.5875
    endloop
  endfacet
  facet normal 0.951057 -0.309017 0
    outer loop
      vertex 24.8449 -5.28096 0
      vertex 23.2041 -10.3311 1.5875
      vertex 23.2041 -10.3311 0
    endloop
  endfacet
  facet normal -0.587785 -0.809017 0
    outer loop
      vertex -16.9959 -18.8759 0
      vertex -12.7 -21.997 1.5875
      vertex -16.9959 -18.8759 1.5875
    endloop
  endfacet
  facet normal -0.587785 -0.809017 -0
    outer loop
      vertex -12.7 -21.997 1.5875
      vertex -16.9959 -18.8759 0
      vertex -12.7 -21.997 0
    endloop
  endfacet
  facet normal -0.866025 -0.5 0
    outer loop
      vertex -20.549 -14.9297 0
      vertex -23.2041 -10.3311 1.5875
      vertex -23.2041 -10.3311 0
    endloop
  endfacet
  facet normal -0.866025 -0.5 0
    outer loop
      vertex -23.2041 -10.3311 1.5875
      vertex -20.549 -14.9297 0
      vertex -20.549 -14.9297 1.5875
    endloop
  endfacet
  facet normal 0.587785 -0.809017 0
    outer loop
      vertex 12.7 -21.997 0
      vertex 16.9959 -18.8759 1.5875
      vertex 12.7 -21.997 1.5875
    endloop
  endfacet
  facet normal 0.587785 -0.809017 0
    outer loop
      vertex 16.9959 -18.8759 1.5875
      vertex 12.7 -21.997 0
      vertex 16.9959 -18.8759 0
    endloop
  endfacet
  facet normal 0.951057 0.309017 0
    outer loop
      vertex 24.8449 5.28096 1.5875
      vertex 23.2041 10.3311 0
      vertex 23.2041 10.3311 1.5875
    endloop
  endfacet
  facet normal 0.951057 0.309017 0
    outer loop
      vertex 23.2041 10.3311 0
      vertex 24.8449 5.28096 1.5875
      vertex 24.8449 5.28096 0
    endloop
  endfacet
  facet normal 0 0 1
    outer loop
      vertex 7.58235 0 1.5875
      vertex 25.4 0 1.5875
      vertex 24.8449 5.28096 1.5875
    endloop
  endfacet
  facet normal 0 0 1
    outer loop
      vertex 7.58235 0 1.5875
      vertex 24.8449 5.28096 1.5875
      vertex 23.2041 10.3311 1.5875
    endloop
  endfacet
  facet normal 0 0 1
    outer loop
      vertex 25.4 0 1.5875
      vertex 7.58235 0 1.5875
      vertex 24.8449 -5.28096 1.5875
    endloop
  endfacet
  facet normal 0 0 1
    outer loop
      vertex 7.58235 0 1.5875
      vertex 23.2041 10.3311 1.5875
      vertex 20.549 14.9297 1.5875
    endloop
  endfacet
  facet normal 0 0 1
    outer loop
      vertex 24.8449 -5.28096 1.5875
      vertex 7.58235 0 1.5875
      vertex 23.2041 -10.3311 1.5875
    endloop
  endfacet
  facet normal 0 0 1
    outer loop
      vertex 3.79117 6.56651 1.5875
      vertex 20.549 14.9297 1.5875
      vertex 16.9959 18.8759 1.5875
    endloop
  endfacet
  facet normal 0 0 1
    outer loop
      vertex 23.2041 -10.3311 1.5875
      vertex 7.58235 0 1.5875
      vertex 20.549 -14.9297 1.5875
    endloop
  endfacet
  facet normal 0 0 1
    outer loop
      vertex 3.79117 6.56651 1.5875
      vertex 16.9959 18.8759 1.5875
      vertex 12.7 21.997 1.5875
    endloop
  endfacet
  facet normal -0 0 1
    outer loop
      vertex 3.79117 -6.56651 1.5875
      vertex 20.549 -14.9297 1.5875
      vertex 7.58235 0 1.5875
    endloop
  endfacet
  facet normal 0 0 1
    outer loop
      vertex 3.79117 6.56651 1.5875
      vertex 12.7 21.997 1.5875
      vertex 7.84903 24.1568 1.5875
    endloop
  endfacet
  facet normal 0 0 1
    outer loop
      vertex 20.549 -14.9297 1.5875
      vertex 3.79117 -6.56651 1.5875
      vertex 16.9959 -18.8759 1.5875
    endloop
  endfacet
  facet normal 0 0 1
    outer loop
      vertex 16.9959 -18.8759 1.5875
      vertex 3.79117 -6.56651 1.5875
      vertex 12.7 -21.997 1.5875
    endloop
  endfacet
  facet normal 0 0 1
    outer loop
      vertex 20.549 14.9297 1.5875
      vertex 3.79117 6.56651 1.5875
      vertex 7.58235 0 1.5875
    endloop
  endfacet
  facet normal 0 0 1
    outer loop
      vertex 2.65502 25.2609 1.5875
      vertex 3.79117 6.56651 1.5875
      vertex 7.84903 24.1568 1.5875
    endloop
  endfacet
  facet normal -0 0 1
    outer loop
      vertex -2.65502 25.2609 1.5875
      vertex 3.79117 6.56651 1.5875
      vertex 2.65502 25.2609 1.5875
    endloop
  endfacet
  facet normal 0 0 1
    outer loop
      vertex -2.65502 25.2609 1.5875
      vertex -3.79117 6.56651 1.5875
      vertex 3.79117 6.56651 1.5875
    endloop
  endfacet
  facet normal -0 0 1
    outer loop
      vertex -7.84903 24.1568 1.5875
      vertex -3.79117 6.56651 1.5875
      vertex -2.65502 25.2609 1.5875
    endloop
  endfacet
  facet normal -0 0 1
    outer loop
      vertex -12.7 21.997 1.5875
      vertex -3.79117 6.56651 1.5875
      vertex -7.84903 24.1568 1.5875
    endloop
  endfacet
  facet normal 0 0 1
    outer loop
      vertex 12.7 -21.997 1.5875
      vertex 3.79117 -6.56651 1.5875
      vertex 7.84903 -24.1568 1.5875
    endloop
  endfacet
  facet normal 0 0 1
    outer loop
      vertex 3.79117 -6.56651 1.5875
      vertex 2.65502 -25.2609 1.5875
      vertex 7.84903 -24.1568 1.5875
    endloop
  endfacet
  facet normal 0 0 1
    outer loop
      vertex 3.79117 -6.56651 1.5875
      vertex -2.65502 -25.2609 1.5875
      vertex 2.65502 -25.2609 1.5875
    endloop
  endfacet
  facet normal -0 0 1
    outer loop
      vertex -3.79117 -6.56651 1.5875
      vertex -2.65502 -25.2609 1.5875
      vertex 3.79117 -6.56651 1.5875
    endloop
  endfacet
  facet normal 0 0 1
    outer loop
      vertex -20.549 -14.9297 1.5875
      vertex -3.79117 -6.56651 1.5875
      vertex -7.58235 0 1.5875
    endloop
  endfacet
  facet normal 0 0 1
    outer loop
      vertex -3.79117 -6.56651 1.5875
      vertex -7.84903 -24.1568 1.5875
      vertex -2.65502 -25.2609 1.5875
    endloop
  endfacet
  facet normal -0 0 1
    outer loop
      vertex -16.9959 18.8759 1.5875
      vertex -3.79117 6.56651 1.5875
      vertex -12.7 21.997 1.5875
    endloop
  endfacet
  facet normal -0 0 1
    outer loop
      vertex -20.549 14.9297 1.5875
      vertex -3.79117 6.56651 1.5875
      vertex -16.9959 18.8759 1.5875
    endloop
  endfacet
  facet normal 0 0 1
    outer loop
      vertex -3.79117 -6.56651 1.5875
      vertex -12.7 -21.997 1.5875
      vertex -7.84903 -24.1568 1.5875
    endloop
  endfacet
  facet normal 0 0 1
    outer loop
      vertex -3.79117 6.56651 1.5875
      vertex -20.549 14.9297 1.5875
      vertex -7.58235 0 1.5875
    endloop
  endfacet
  facet normal 0 0 1
    outer loop
      vertex -3.79117 -6.56651 1.5875
      vertex -16.9959 -18.8759 1.5875
      vertex -12.7 -21.997 1.5875
    endloop
  endfacet
  facet normal -0 0 1
    outer loop
      vertex -23.2041 10.3311 1.5875
      vertex -7.58235 0 1.5875
      vertex -20.549 14.9297 1.5875
    endloop
  endfacet
  facet normal 0 0 1
    outer loop
      vertex -3.79117 -6.56651 1.5875
      vertex -20.549 -14.9297 1.5875
      vertex -16.9959 -18.8759 1.5875
    endloop
  endfacet
  facet normal -0 0 1
    outer loop
      vertex -24.8449 5.28096 1.5875
      vertex -7.58235 0 1.5875
      vertex -23.2041 10.3311 1.5875
    endloop
  endfacet
  facet normal 0 0 1
    outer loop
      vertex -7.58235 0 1.5875
      vertex -23.2041 -10.3311 1.5875
      vertex -20.549 -14.9297 1.5875
    endloop
  endfacet
  facet normal 0 0 1
    outer loop
      vertex -25.4 0 1.5875
      vertex -7.58235 0 1.5875
      vertex -24.8449 5.28096 1.5875
    endloop
  endfacet
  facet normal 0 0 1
    outer loop
      vertex -7.58235 0 1.5875
      vertex -24.8449 -5.28096 1.5875
      vertex -23.2041 -10.3311 1.5875
    endloop
  endfacet
  facet normal 0 0 1
    outer loop
      vertex -7.58235 0 1.5875
      vertex -25.4 0 1.5875
      vertex -24.8449 -5.28096 1.5875
    endloop
  endfacet
  facet normal 0.866025 -0.5 0
    outer loop
      vertex 20.549 -14.9297 1.5875
      vertex 23.2041 -10.3311 0
      vertex 23.2041 -10.3311 1.5875
    endloop
  endfacet
  facet normal 0.866025 -0.5 0
    outer loop
      vertex 23.2041 -10.3311 0
      vertex 20.549 -14.9297 1.5875
      vertex 20.549 -14.9297 0
    endloop
  endfacet
  facet normal -0.994522 -0.104529 0
    outer loop
      vertex -24.8449 -5.28096 0
      vertex -25.4 0 1.5875
      vertex -25.4 0 0
    endloop
  endfacet
  facet normal -0.994522 -0.104529 0
    outer loop
      vertex -25.4 0 1.5875
      vertex -24.8449 -5.28096 0
      vertex -24.8449 -5.28096 1.5875
    endloop
  endfacet
  facet normal -0.743145 -0.66913 0
    outer loop
      vertex -16.9959 -18.8759 0
      vertex -20.549 -14.9297 1.5875
      vertex -20.549 -14.9297 0
    endloop
  endfacet
  facet normal -0.743145 -0.66913 0
    outer loop
      vertex -20.549 -14.9297 1.5875
      vertex -16.9959 -18.8759 0
      vertex -16.9959 -18.8759 1.5875
    endloop
  endfacet
  facet normal 0.406737 -0.913545 0
    outer loop
      vertex 7.84903 -24.1568 0
      vertex 12.7 -21.997 1.5875
      vertex 7.84903 -24.1568 1.5875
    endloop
  endfacet
  facet normal 0.406737 -0.913545 0
    outer loop
      vertex 12.7 -21.997 1.5875
      vertex 7.84903 -24.1568 0
      vertex 12.7 -21.997 0
    endloop
  endfacet
  facet normal -0.406737 -0.913545 0
    outer loop
      vertex -12.7 -21.997 0
      vertex -7.84903 -24.1568 1.5875
      vertex -12.7 -21.997 1.5875
    endloop
  endfacet
  facet normal -0.406737 -0.913545 -0
    outer loop
      vertex -7.84903 -24.1568 1.5875
      vertex -12.7 -21.997 0
      vertex -7.84903 -24.1568 0
    endloop
  endfacet
  facet normal 0 -1 0
    outer loop
      vertex -2.65502 -25.2609 0
      vertex 2.65502 -25.2609 1.5875
      vertex -2.65502 -25.2609 1.5875
    endloop
  endfacet
  facet normal 0 -1 -0
    outer loop
      vertex 2.65502 -25.2609 1.5875
      vertex -2.65502 -25.2609 0
      vertex 2.65502 -25.2609 0
    endloop
  endfacet
  facet normal 0 0 -1
    outer loop
      vertex 7.58235 0 0
      vertex 25.4 0 0
      vertex 24.8449 -5.28096 0
    endloop
  endfacet
  facet normal 0 0 -1
    outer loop
      vertex 7.58235 0 0
      vertex 24.8449 -5.28096 0
      vertex 23.2041 -10.3311 0
    endloop
  endfacet
  facet normal 0 0 -1
    outer loop
      vertex 25.4 0 0
      vertex 7.58235 0 0
      vertex 24.8449 5.28096 0
    endloop
  endfacet
  facet normal 0 0 -1
    outer loop
      vertex 7.58235 0 0
      vertex 23.2041 -10.3311 0
      vertex 20.549 -14.9297 0
    endloop
  endfacet
  facet normal -0 0 -1
    outer loop
      vertex 24.8449 5.28096 0
      vertex 7.58235 0 0
      vertex 23.2041 10.3311 0
    endloop
  endfacet
  facet normal 0 0 -1
    outer loop
      vertex 3.79117 -6.56651 0
      vertex 20.549 -14.9297 0
      vertex 16.9959 -18.8759 0
    endloop
  endfacet
  facet normal -0 0 -1
    outer loop
      vertex 23.2041 10.3311 0
      vertex 7.58235 0 0
      vertex 20.549 14.9297 0
    endloop
  endfacet
  facet normal 0 0 -1
    outer loop
      vertex 3.79117 -6.56651 0
      vertex 16.9959 -18.8759 0
      vertex 12.7 -21.997 0
    endloop
  endfacet
  facet normal 0 0 -1
    outer loop
      vertex 3.79117 6.56651 0
      vertex 20.549 14.9297 0
      vertex 7.58235 0 0
    endloop
  endfacet
  facet normal 0 0 -1
    outer loop
      vertex 3.79117 -6.56651 0
      vertex 12.7 -21.997 0
      vertex 7.84903 -24.1568 0
    endloop
  endfacet
  facet normal -0 0 -1
    outer loop
      vertex 20.549 14.9297 0
      vertex 3.79117 6.56651 0
      vertex 16.9959 18.8759 0
    endloop
  endfacet
  facet normal -0 0 -1
    outer loop
      vertex 16.9959 18.8759 0
      vertex 3.79117 6.56651 0
      vertex 12.7 21.997 0
    endloop
  endfacet
  facet normal 0 0 -1
    outer loop
      vertex 20.549 -14.9297 0
      vertex 3.79117 -6.56651 0
      vertex 7.58235 0 0
    endloop
  endfacet
  facet normal 0 0 -1
    outer loop
      vertex 2.65502 -25.2609 0
      vertex 3.79117 -6.56651 0
      vertex 7.84903 -24.1568 0
    endloop
  endfacet
  facet normal 0 0 -1
    outer loop
      vertex -2.65502 -25.2609 0
      vertex 3.79117 -6.56651 0
      vertex 2.65502 -25.2609 0
    endloop
  endfacet
  facet normal 0 0 -1
    outer loop
      vertex -2.65502 -25.2609 0
      vertex -3.79117 -6.56651 0
      vertex 3.79117 -6.56651 0
    endloop
  endfacet
  facet normal 0 0 -1
    outer loop
      vertex -7.84903 -24.1568 0
      vertex -3.79117 -6.56651 0
      vertex -2.65502 -25.2609 0
    endloop
  endfacet
  facet normal 0 0 -1
    outer loop
      vertex -12.7 -21.997 0
      vertex -3.79117 -6.56651 0
      vertex -7.84903 -24.1568 0
    endloop
  endfacet
  facet normal -0 0 -1
    outer loop
      vertex 12.7 21.997 0
      vertex 3.79117 6.56651 0
      vertex 7.84903 24.1568 0
    endloop
  endfacet
  facet normal 0 0 -1
    outer loop
      vertex 3.79117 6.56651 0
      vertex 2.65502 25.2609 0
      vertex 7.84903 24.1568 0
    endloop
  endfacet
  facet normal 0 0 -1
    outer loop
      vertex 3.79117 6.56651 0
      vertex -2.65502 25.2609 0
      vertex 2.65502 25.2609 0
    endloop
  endfacet
  facet normal 0 0 -1
    outer loop
      vertex -3.79117 6.56651 0
      vertex -2.65502 25.2609 0
      vertex 3.79117 6.56651 0
    endloop
  endfacet
  facet normal 0 0 -1
    outer loop
      vertex -20.549 14.9297 0
      vertex -3.79117 6.56651 0
      vertex -7.58235 0 0
    endloop
  endfacet
  facet normal 0 0 -1
    outer loop
      vertex -3.79117 6.56651 0
      vertex -7.84903 24.1568 0
      vertex -2.65502 25.2609 0
    endloop
  endfacet
  facet normal 0 0 -1
    outer loop
      vertex -16.9959 -18.8759 0
      vertex -3.79117 -6.56651 0
      vertex -12.7 -21.997 0
    endloop
  endfacet
  facet normal 0 0 -1
    outer loop
      vertex -20.549 -14.9297 0
      vertex -3.79117 -6.56651 0
      vertex -16.9959 -18.8759 0
    endloop
  endfacet
  facet normal 0 0 -1
    outer loop
      vertex -3.79117 6.56651 0
      vertex -12.7 21.997 0
      vertex -7.84903 24.1568 0
    endloop
  endfacet
  facet normal -0 0 -1
    outer loop
      vertex -3.79117 -6.56651 0
      vertex -20.549 -14.9297 0
      vertex -7.58235 0 0
    endloop
  endfacet
  facet normal 0 0 -1
    outer loop
      vertex -3.79117 6.56651 0
      vertex -16.9959 18.8759 0
      vertex -12.7 21.997 0
    endloop
  endfacet
  facet normal 0 0 -1
    outer loop
      vertex -23.2041 -10.3311 0
      vertex -7.58235 0 0
      vertex -20.549 -14.9297 0
    endloop
  endfacet
  facet normal 0 0 -1
    outer loop
      vertex -3.79117 6.56651 0
      vertex -20.549 14.9297 0
      vertex -16.9959 18.8759 0
    endloop
  endfacet
  facet normal 0 0 -1
    outer loop
      vertex -24.8449 -5.28096 0
      vertex -7.58235 0 0
      vertex -23.2041 -10.3311 0
    endloop
  endfacet
  facet normal 0 0 -1
    outer loop
      vertex -7.58235 0 0
      vertex -23.2041 10.3311 0
      vertex -20.549 14.9297 0
    endloop
  endfacet
  facet normal 0 0 -1
    outer loop
      vertex -25.4 0 0
      vertex -7.58235 0 0
      vertex -24.8449 -5.28096 0
    endloop
  endfacet
  facet normal 0 0 -1
    outer loop
      vertex -7.58235 0 0
      vertex -24.8449 5.28096 0
      vertex -23.2041 10.3311 0
    endloop
  endfacet
  facet normal 0 0 -1
    outer loop
      vertex -7.58235 0 0
      vertex -25.4 0 0
      vertex -24.8449 5.28096 0
    endloop
  endfacet
  facet normal -0.951057 -0.309017 0
    outer loop
      vertex -23.2041 -10.3311 0
      vertex -24.8449 -5.28096 1.5875
      vertex -24.8449 -5.28096 0
    endloop
  endfacet
  facet normal -0.951057 -0.309017 0
    outer loop
      vertex -24.8449 -5.28096 1.5875
      vertex -23.2041 -10.3311 0
      vertex -23.2041 -10.3311 1.5875
    endloop
  endfacet
  facet normal 0.743145 -0.66913 0
    outer loop
      vertex 16.9959 -18.8759 1.5875
      vertex 20.549 -14.9297 0
      vertex 20.549 -14.9297 1.5875
    endloop
  endfacet
  facet normal 0.743145 -0.66913 0
    outer loop
      vertex 20.549 -14.9297 0
      vertex 16.9959 -18.8759 1.5875
      vertex 16.9959 -18.8759 0
    endloop
  endfacet
  facet normal -0.207912 -0.978148 0
    outer loop
      vertex -7.84903 -24.1568 0
      vertex -2.65502 -25.2609 1.5875
      vertex -7.84903 -24.1568 1.5875
    endloop
  endfacet
  facet normal -0.207912 -0.978148 -0
    outer loop
      vertex -2.65502 -25.2609 1.5875
      vertex -7.84903 -24.1568 0
      vertex -2.65502 -25.2609 0
    endloop
  endfacet
  facet normal -0.866025 -0.5 0
    outer loop
      vertex 7.58235 0 0
      vertex 3.79117 6.56651 1.5875
      vertex 3.79117 6.56651 0
    endloop
  endfacet
  facet normal -0.866025 -0.5 0
    outer loop
      vertex 3.79117 6.56651 1.5875
      vertex 7.58235 0 0
      vertex 7.58235 0 1.5875
    endloop
  endfacet
  facet normal 0.866025 -0.5 0
    outer loop
      vertex -7.58235 0 1.5875
      vertex -3.79117 6.56651 0
      vertex -3.79117 6.56651 1.5875
    endloop
  endfacet
  facet normal 0.866025 -0.5 0
    outer loop
      vertex -3.79117 6.56651 0
      vertex -7.58235 0 1.5875
      vertex -7.58235 0 0
    endloop
  endfacet
  facet normal 0 -1 0
    outer loop
      vertex -3.79117 6.56651 0
      vertex 3.79117 6.56651 1.5875
      vertex -3.79117 6.56651 1.5875
    endloop
  endfacet
  facet normal 0 -1 -0
    outer loop
      vertex 3.79117 6.56651 1.5875
      vertex -3.79117 6.56651 0
      vertex 3.79117 6.56651 0
    endloop
  endfacet
  facet normal 0.866025 0.5 0
    outer loop
      vertex -3.79117 -6.56651 1.5875
      vertex -7.58235 0 0
      vertex -7.58235 0 1.5875
    endloop
  endfacet
  facet normal 0.866025 0.5 0
    outer loop
      vertex -7.58235 0 0
      vertex -3.79117 -6.56651 1.5875
      vertex -3.79117 -6.56651 0
    endloop
  endfacet
  facet normal -0.866025 0.5 0
    outer loop
      vertex 3.79117 -6.56651 0
      vertex 7.58235 0 1.5875
      vertex 7.58235 0 0
    endloop
  endfacet
  facet normal -0.866025 0.5 0
    outer loop
      vertex 7.58235 0 1.5875
      vertex 3.79117 -6.56651 0
      vertex 3.79117 -6.56651 1.5875
    endloop
  endfacet
  facet normal 0 1 -0
    outer loop
      vertex 3.79117 -6.56651 0
      vertex -3.79117 -6.56651 1.5875
      vertex 3.79117 -6.56651 1.5875
    endloop
  endfacet
  facet normal 0 1 0
    outer loop
      vertex -3.79117 -6.56651 1.5875
      vertex 3.79117 -6.56651 0
      vertex -3.79117 -6.56651 0
    endloop
  endfacet
endsolid OpenSCAD_Model
