solid OpenSCAD_Model
  facet normal -1 0 0
    outer loop
      vertex -6.35 6.35 -6.35
      vertex -6.35 3.57235 -2.0625
      vertex -6.35 6.35 6.35
    endloop
  endfacet
  facet normal -1 0 0
    outer loop
      vertex -6.35 6.35 -6.35
      vertex -6.35 0 -4.125
      vertex -6.35 3.57235 -2.0625
    endloop
  endfacet
  facet normal -1 -0 0
    outer loop
      vertex -6.35 -3.57235 -2.0625
      vertex -6.35 -6.35 -6.35
      vertex -6.35 -3.57235 2.0625
    endloop
  endfacet
  facet normal -1 -0 0
    outer loop
      vertex -6.35 0 -4.125
      vertex -6.35 -6.35 -6.35
      vertex -6.35 -3.57235 -2.0625
    endloop
  endfacet
  facet normal -1 0 0
    outer loop
      vertex -6.35 -6.35 -6.35
      vertex -6.35 0 -4.125
      vertex -6.35 6.35 -6.35
    endloop
  endfacet
  facet normal -1 0 0
    outer loop
      vertex -6.35 3.57235 2.0625
      vertex -6.35 6.35 6.35
      vertex -6.35 3.57235 -2.0625
    endloop
  endfacet
  facet normal -1 0 0
    outer loop
      vertex -6.35 0 4.125
      vertex -6.35 6.35 6.35
      vertex -6.35 3.57235 2.0625
    endloop
  endfacet
  facet normal -1 0 0
    outer loop
      vertex -6.35 0 4.125
      vertex -6.35 -6.35 6.35
      vertex -6.35 6.35 6.35
    endloop
  endfacet
  facet normal -1 0 0
    outer loop
      vertex -6.35 -3.57235 2.0625
      vertex -6.35 -6.35 6.35
      vertex -6.35 0 4.125
    endloop
  endfacet
  facet normal -1 0 0
    outer loop
      vertex -6.35 -6.35 6.35
      vertex -6.35 -3.57235 2.0625
      vertex -6.35 -6.35 -6.35
    endloop
  endfacet
  facet normal 0 0 1
    outer loop
      vertex 6.35 6.35 6.35
      vertex 4.125 0 6.35
      vertex 6.35 -6.35 6.35
    endloop
  endfacet
  facet normal 0 0 1
    outer loop
      vertex 6.35 6.35 6.35
      vertex 2.0625 3.57235 6.35
      vertex 4.125 0 6.35
    endloop
  endfacet
  facet normal 0 0 1
    outer loop
      vertex 6.35 6.35 6.35
      vertex -2.0625 3.57235 6.35
      vertex 2.0625 3.57235 6.35
    endloop
  endfacet
  facet normal 0 0 1
    outer loop
      vertex -2.0625 3.57235 6.35
      vertex -6.35 6.35 6.35
      vertex -4.125 0 6.35
    endloop
  endfacet
  facet normal -0 0 1
    outer loop
      vertex -6.35 6.35 6.35
      vertex -2.0625 3.57235 6.35
      vertex 6.35 6.35 6.35
    endloop
  endfacet
  facet normal -0 0 1
    outer loop
      vertex 2.0625 -3.57235 6.35
      vertex 6.35 -6.35 6.35
      vertex 4.125 0 6.35
    endloop
  endfacet
  facet normal -0 0 1
    outer loop
      vertex -2.0625 -3.57235 6.35
      vertex 6.35 -6.35 6.35
      vertex 2.0625 -3.57235 6.35
    endloop
  endfacet
  facet normal 0 0 1
    outer loop
      vertex -2.0625 -3.57235 6.35
      vertex -6.35 -6.35 6.35
      vertex 6.35 -6.35 6.35
    endloop
  endfacet
  facet normal 0 0 1
    outer loop
      vertex -4.125 0 6.35
      vertex -6.35 -6.35 6.35
      vertex -2.0625 -3.57235 6.35
    endloop
  endfacet
  facet normal 0 0 1
    outer loop
      vertex -6.35 -6.35 6.35
      vertex -4.125 0 6.35
      vertex -6.35 6.35 6.35
    endloop
  endfacet
  facet normal 1 0 0
    outer loop
      vertex 6.35 6.35 6.35
      vertex 6.35 3.57235 2.0625
      vertex 6.35 6.35 -6.35
    endloop
  endfacet
  facet normal 1 0 0
    outer loop
      vertex 6.35 6.35 6.35
      vertex 6.35 0 4.125
      vertex 6.35 3.57235 2.0625
    endloop
  endfacet
  facet normal 1 0 0
    outer loop
      vertex 6.35 -3.57235 2.0625
      vertex 6.35 -6.35 6.35
      vertex 6.35 -3.57235 -2.0625
    endloop
  endfacet
  facet normal 1 0 0
    outer loop
      vertex 6.35 0 4.125
      vertex 6.35 -6.35 6.35
      vertex 6.35 -3.57235 2.0625
    endloop
  endfacet
  facet normal 1 -0 0
    outer loop
      vertex 6.35 -6.35 6.35
      vertex 6.35 0 4.125
      vertex 6.35 6.35 6.35
    endloop
  endfacet
  facet normal 1 -0 0
    outer loop
      vertex 6.35 3.57235 -2.0625
      vertex 6.35 6.35 -6.35
      vertex 6.35 3.57235 2.0625
    endloop
  endfacet
  facet normal 1 -0 0
    outer loop
      vertex 6.35 0 -4.125
      vertex 6.35 6.35 -6.35
      vertex 6.35 3.57235 -2.0625
    endloop
  endfacet
  facet normal 1 0 0
    outer loop
      vertex 6.35 0 -4.125
      vertex 6.35 -6.35 -6.35
      vertex 6.35 6.35 -6.35
    endloop
  endfacet
  facet normal 1 0 0
    outer loop
      vertex 6.35 -3.57235 -2.0625
      vertex 6.35 -6.35 -6.35
      vertex 6.35 0 -4.125
    endloop
  endfacet
  facet normal 1 0 0
    outer loop
      vertex 6.35 -6.35 -6.35
      vertex 6.35 -3.57235 -2.0625
      vertex 6.35 -6.35 6.35
    endloop
  endfacet
  facet normal 0 0 -1
    outer loop
      vertex 6.35 -6.35 -6.35
      vertex 4.125 0 -6.35
      vertex 6.35 6.35 -6.35
    endloop
  endfacet
  facet normal 0 0 -1
    outer loop
      vertex 6.35 -6.35 -6.35
      vertex 2.0625 -3.57235 -6.35
      vertex 4.125 0 -6.35
    endloop
  endfacet
  facet normal 0 0 -1
    outer loop
      vertex 6.35 -6.35 -6.35
      vertex -2.0625 -3.57235 -6.35
      vertex 2.0625 -3.57235 -6.35
    endloop
  endfacet
  facet normal -0 0 -1
    outer loop
      vertex -2.0625 -3.57235 -6.35
      vertex -6.35 -6.35 -6.35
      vertex -4.125 0 -6.35
    endloop
  endfacet
  facet normal 0 0 -1
    outer loop
      vertex -6.35 -6.35 -6.35
      vertex -2.0625 -3.57235 -6.35
      vertex 6.35 -6.35 -6.35
    endloop
  endfacet
  facet normal 0 0 -1
    outer loop
      vertex 2.0625 3.57235 -6.35
      vertex 6.35 6.35 -6.35
      vertex 4.125 0 -6.35
    endloop
  endfacet
  facet normal 0 0 -1
    outer loop
      vertex -2.0625 3.57235 -6.35
      vertex 6.35 6.35 -6.35
      vertex 2.0625 3.57235 -6.35
    endloop
  endfacet
  facet normal 0 0 -1
    outer loop
      vertex -2.0625 3.57235 -6.35
      vertex -6.35 6.35 -6.35
      vertex 6.35 6.35 -6.35
    endloop
  endfacet
  facet normal 0 0 -1
    outer loop
      vertex -4.125 0 -6.35
      vertex -6.35 6.35 -6.35
      vertex -2.0625 3.57235 -6.35
    endloop
  endfacet
  facet normal 0 0 -1
    outer loop
      vertex -6.35 6.35 -6.35
      vertex -4.125 0 -6.35
      vertex -6.35 -6.35 -6.35
    endloop
  endfacet
  facet normal 0 -1 0
    outer loop
      vertex -6.35 -6.35 6.35
      vertex -2.0625 -6.35 3.57235
      vertex 6.35 -6.35 6.35
    endloop
  endfacet
  facet normal 0 -1 0
    outer loop
      vertex -6.35 -6.35 6.35
      vertex -4.125 -6.35 0
      vertex -2.0625 -6.35 3.57235
    endloop
  endfacet
  facet normal 0 -1 -0
    outer loop
      vertex -2.0625 -6.35 -3.57235
      vertex -6.35 -6.35 -6.35
      vertex 2.0625 -6.35 -3.57235
    endloop
  endfacet
  facet normal 0 -1 -0
    outer loop
      vertex -4.125 -6.35 0
      vertex -6.35 -6.35 -6.35
      vertex -2.0625 -6.35 -3.57235
    endloop
  endfacet
  facet normal 0 -1 0
    outer loop
      vertex -6.35 -6.35 -6.35
      vertex -4.125 -6.35 0
      vertex -6.35 -6.35 6.35
    endloop
  endfacet
  facet normal 0 -1 0
    outer loop
      vertex 2.0625 -6.35 3.57235
      vertex 6.35 -6.35 6.35
      vertex -2.0625 -6.35 3.57235
    endloop
  endfacet
  facet normal 0 -1 0
    outer loop
      vertex 4.125 -6.35 0
      vertex 6.35 -6.35 6.35
      vertex 2.0625 -6.35 3.57235
    endloop
  endfacet
  facet normal 0 -1 0
    outer loop
      vertex 4.125 -6.35 0
      vertex 6.35 -6.35 -6.35
      vertex 6.35 -6.35 6.35
    endloop
  endfacet
  facet normal 0 -1 0
    outer loop
      vertex 2.0625 -6.35 -3.57235
      vertex 6.35 -6.35 -6.35
      vertex 4.125 -6.35 0
    endloop
  endfacet
  facet normal 0 -1 0
    outer loop
      vertex 6.35 -6.35 -6.35
      vertex 2.0625 -6.35 -3.57235
      vertex -6.35 -6.35 -6.35
    endloop
  endfacet
  facet normal 0 1 0
    outer loop
      vertex 6.35 6.35 6.35
      vertex 2.0625 6.35 3.57235
      vertex -6.35 6.35 6.35
    endloop
  endfacet
  facet normal 0 1 0
    outer loop
      vertex 6.35 6.35 6.35
      vertex 4.125 6.35 0
      vertex 2.0625 6.35 3.57235
    endloop
  endfacet
  facet normal 0 1 0
    outer loop
      vertex 2.0625 6.35 -3.57235
      vertex 6.35 6.35 -6.35
      vertex -2.0625 6.35 -3.57235
    endloop
  endfacet
  facet normal 0 1 0
    outer loop
      vertex 4.125 6.35 0
      vertex 6.35 6.35 -6.35
      vertex 2.0625 6.35 -3.57235
    endloop
  endfacet
  facet normal 0 1 -0
    outer loop
      vertex 6.35 6.35 -6.35
      vertex 4.125 6.35 0
      vertex 6.35 6.35 6.35
    endloop
  endfacet
  facet normal 0 1 -0
    outer loop
      vertex -2.0625 6.35 3.57235
      vertex -6.35 6.35 6.35
      vertex 2.0625 6.35 3.57235
    endloop
  endfacet
  facet normal 0 1 -0
    outer loop
      vertex -4.125 6.35 0
      vertex -6.35 6.35 6.35
      vertex -2.0625 6.35 3.57235
    endloop
  endfacet
  facet normal 0 1 0
    outer loop
      vertex -4.125 6.35 0
      vertex -6.35 6.35 -6.35
      vertex -6.35 6.35 6.35
    endloop
  endfacet
  facet normal 0 1 0
    outer loop
      vertex -2.0625 6.35 -3.57235
      vertex -6.35 6.35 -6.35
      vertex -4.125 6.35 0
    endloop
  endfacet
  facet normal 0 1 0
    outer loop
      vertex -6.35 6.35 -6.35
      vertex -2.0625 6.35 -3.57235
      vertex 6.35 6.35 -6.35
    endloop
  endfacet
  facet normal -0.866025 -0.5 6.24021e-08
    outer loop
      vertex 4.125 0 4.125
      vertex 2.0625 3.57235 3.57235
      vertex 2.61515 2.61514 2.61514
    endloop
  endfacet
  facet normal -0.866025 -0.5 0
    outer loop
      vertex 2.0625 3.57235 3.57235
      vertex 4.125 0 4.125
      vertex 2.0625 3.57235 6.35
    endloop
  endfacet
  facet normal -0.866025 -0.5 0
    outer loop
      vertex 2.0625 3.57235 6.35
      vertex 4.125 0 4.125
      vertex 4.125 0 6.35
    endloop
  endfacet
  facet normal -0.866025 -0.5 0
    outer loop
      vertex 4.125 0 -4.125
      vertex 2.0625 3.57235 -3.57235
      vertex 2.0625 3.57235 -6.35
    endloop
  endfacet
  facet normal -0.866025 -0.5 -0
    outer loop
      vertex 4.125 0 -4.125
      vertex 2.0625 3.57235 -6.35
      vertex 4.125 0 -6.35
    endloop
  endfacet
  facet normal -0.866025 -0.5 -6.24021e-08
    outer loop
      vertex 2.0625 3.57235 -3.57235
      vertex 4.125 0 -4.125
      vertex 2.61515 2.61514 -2.61514
    endloop
  endfacet
  facet normal 0.866025 -0.5 0
    outer loop
      vertex -4.125 0 4.125
      vertex -2.0625 3.57235 3.57235
      vertex -2.0625 3.57235 6.35
    endloop
  endfacet
  facet normal 0.866025 -0.5 0
    outer loop
      vertex -4.125 0 4.125
      vertex -2.0625 3.57235 6.35
      vertex -4.125 0 6.35
    endloop
  endfacet
  facet normal 0.866025 -0.5 7.58143e-08
    outer loop
      vertex -2.0625 3.57235 3.57235
      vertex -4.125 0 4.125
      vertex -2.61514 2.61514 2.61514
    endloop
  endfacet
  facet normal 0.866025 -0.5 -2.00906e-08
    outer loop
      vertex -4.125 0 -4.125
      vertex -2.0625 3.57235 -3.57235
      vertex -2.61514 2.61514 -2.61515
    endloop
  endfacet
  facet normal 0.866025 -0.5 -3.08151e-09
    outer loop
      vertex -2.0625 3.57235 -3.57235
      vertex -4.125 0 -4.125
      vertex -2.0625 3.57235 -6.35
    endloop
  endfacet
  facet normal 0.866025 -0.5 0
    outer loop
      vertex -2.0625 3.57235 -6.35
      vertex -4.125 0 -4.125
      vertex -4.125 0 -6.35
    endloop
  endfacet
  facet normal 0 -1 0
    outer loop
      vertex -2.0625 3.57235 3.57235
      vertex 2.0625 3.57235 6.35
      vertex -2.0625 3.57235 6.35
    endloop
  endfacet
  facet normal 0 -1 -0
    outer loop
      vertex 2.0625 3.57235 6.35
      vertex -2.0625 3.57235 3.57235
      vertex 2.0625 3.57235 3.57235
    endloop
  endfacet
  facet normal 0 -1 0
    outer loop
      vertex -2.0625 3.57235 -6.35
      vertex 2.0625 3.57235 -3.57235
      vertex -2.0625 3.57235 -3.57235
    endloop
  endfacet
  facet normal 0 -1 -0
    outer loop
      vertex 2.0625 3.57235 -3.57235
      vertex -2.0625 3.57235 -6.35
      vertex 2.0625 3.57235 -6.35
    endloop
  endfacet
  facet normal -0.866025 0.5 6.24021e-08
    outer loop
      vertex 2.0625 -3.57235 3.57235
      vertex 4.125 0 4.125
      vertex 2.61515 -2.61514 2.61514
    endloop
  endfacet
  facet normal -0.866025 0.5 0
    outer loop
      vertex 2.0625 -3.57235 6.35
      vertex 4.125 0 4.125
      vertex 2.0625 -3.57235 3.57235
    endloop
  endfacet
  facet normal -0.866025 0.5 0
    outer loop
      vertex 4.125 0 4.125
      vertex 2.0625 -3.57235 6.35
      vertex 4.125 0 6.35
    endloop
  endfacet
  facet normal -0.866025 0.5 0
    outer loop
      vertex 2.0625 -3.57235 -6.35
      vertex 4.125 0 -4.125
      vertex 4.125 0 -6.35
    endloop
  endfacet
  facet normal -0.866025 0.5 0
    outer loop
      vertex 4.125 0 -4.125
      vertex 2.0625 -3.57235 -6.35
      vertex 2.0625 -3.57235 -3.57235
    endloop
  endfacet
  facet normal -0.866025 0.5 -6.24021e-08
    outer loop
      vertex 4.125 0 -4.125
      vertex 2.0625 -3.57235 -3.57235
      vertex 2.61515 -2.61514 -2.61514
    endloop
  endfacet
  facet normal 0 1 -0
    outer loop
      vertex 2.0625 -3.57235 3.57235
      vertex -2.0625 -3.57235 6.35
      vertex 2.0625 -3.57235 6.35
    endloop
  endfacet
  facet normal 0 1 -0
    outer loop
      vertex -2.0625 -3.57235 3.57235
      vertex -2.0625 -3.57235 6.35
      vertex 2.0625 -3.57235 3.57235
    endloop
  endfacet
  facet normal 0 1 -0
    outer loop
      vertex 2.0625 -3.57235 -6.35
      vertex -2.0625 -3.57235 -3.57235
      vertex 2.0625 -3.57235 -3.57235
    endloop
  endfacet
  facet normal 0 1 0
    outer loop
      vertex -2.0625 -3.57235 -3.57235
      vertex 2.0625 -3.57235 -6.35
      vertex -2.0625 -3.57235 -6.35
    endloop
  endfacet
  facet normal 0.866025 0.5 0
    outer loop
      vertex -2.0625 -3.57235 6.35
      vertex -4.125 0 4.125
      vertex -4.125 0 6.35
    endloop
  endfacet
  facet normal 0.866025 0.5 0
    outer loop
      vertex -4.125 0 4.125
      vertex -2.0625 -3.57235 6.35
      vertex -2.0625 -3.57235 3.57235
    endloop
  endfacet
  facet normal 0.866025 0.5 -7.43506e-08
    outer loop
      vertex -4.125 0 4.125
      vertex -2.0625 -3.57235 3.57235
      vertex -2.61514 -2.61515 2.61514
    endloop
  endfacet
  facet normal 0.866025 0.5 -6.24021e-08
    outer loop
      vertex -2.0625 -3.57235 -3.57235
      vertex -4.125 0 -4.125
      vertex -2.61515 -2.61514 -2.61514
    endloop
  endfacet
  facet normal 0.866025 0.5 -0
    outer loop
      vertex -2.0625 -3.57235 -6.35
      vertex -4.125 0 -4.125
      vertex -2.0625 -3.57235 -3.57235
    endloop
  endfacet
  facet normal 0.866025 0.5 0
    outer loop
      vertex -4.125 0 -4.125
      vertex -2.0625 -3.57235 -6.35
      vertex -4.125 0 -6.35
    endloop
  endfacet
  facet normal -0.866025 0 -0.5
    outer loop
      vertex 4.125 -6.35 0
      vertex 2.93422 -3.57235 2.0625
      vertex 4.125 -3.57235 0
    endloop
  endfacet
  facet normal -0.866025 -3.68887e-08 -0.5
    outer loop
      vertex 2.0625 -6.35 3.57235
      vertex 2.93422 -3.57235 2.0625
      vertex 4.125 -6.35 0
    endloop
  endfacet
  facet normal -0.866025 0 -0.5
    outer loop
      vertex 2.93422 -3.57235 2.0625
      vertex 2.0625 -6.35 3.57235
      vertex 2.0625 -3.57235 3.57235
    endloop
  endfacet
  facet normal -0.866025 -4.19247e-09 -0.5
    outer loop
      vertex 2.61515 -2.61514 2.61514
      vertex 2.93422 -3.57235 2.0625
      vertex 2.0625 -3.57235 3.57235
    endloop
  endfacet
  facet normal -0.866025 0 -0.5
    outer loop
      vertex 2.93422 3.57235 2.0625
      vertex 4.125 6.35 0
      vertex 4.125 3.57235 0
    endloop
  endfacet
  facet normal -0.866025 3.68887e-08 -0.5
    outer loop
      vertex 4.125 6.35 0
      vertex 2.93422 3.57235 2.0625
      vertex 2.0625 6.35 3.57235
    endloop
  endfacet
  facet normal -0.866025 0 -0.5
    outer loop
      vertex 2.93422 3.57235 2.0625
      vertex 2.0625 3.57235 3.57235
      vertex 2.0625 6.35 3.57235
    endloop
  endfacet
  facet normal -0.866025 4.19247e-09 -0.5
    outer loop
      vertex 2.0625 3.57235 3.57235
      vertex 2.93422 3.57235 2.0625
      vertex 2.61515 2.61514 2.61514
    endloop
  endfacet
  facet normal 0 0 -1
    outer loop
      vertex -2.0625 3.57235 3.57235
      vertex 2.0625 6.35 3.57235
      vertex 2.0625 3.57235 3.57235
    endloop
  endfacet
  facet normal -0 0 -1
    outer loop
      vertex 2.0625 6.35 3.57235
      vertex -2.0625 3.57235 3.57235
      vertex -2.0625 6.35 3.57235
    endloop
  endfacet
  facet normal 0 0 -1
    outer loop
      vertex -2.0625 -6.35 3.57235
      vertex 2.0625 -3.57235 3.57235
      vertex 2.0625 -6.35 3.57235
    endloop
  endfacet
  facet normal -0 0 -1
    outer loop
      vertex 2.0625 -3.57235 3.57235
      vertex -2.0625 -6.35 3.57235
      vertex -2.0625 -3.57235 3.57235
    endloop
  endfacet
  facet normal 0.866025 6.19909e-08 -0.5
    outer loop
      vertex -2.0625 3.57235 3.57235
      vertex -2.61514 2.61514 2.61514
      vertex -2.93421 3.57235 2.0625
    endloop
  endfacet
  facet normal 0.866025 0 -0.5
    outer loop
      vertex -2.93421 3.57235 2.0625
      vertex -2.0625 6.35 3.57235
      vertex -2.0625 3.57235 3.57235
    endloop
  endfacet
  facet normal 0.866025 1.38893e-08 -0.5
    outer loop
      vertex -2.0625 6.35 3.57235
      vertex -2.93421 3.57235 2.0625
      vertex -4.125 6.35 0
    endloop
  endfacet
  facet normal 0.866025 0 -0.5
    outer loop
      vertex -4.125 6.35 0
      vertex -2.93421 3.57235 2.0625
      vertex -4.125 3.57235 0
    endloop
  endfacet
  facet normal 0.866025 -3.0815e-09 -0.5
    outer loop
      vertex -2.0625 -3.57235 3.57235
      vertex -2.0625 -6.35 3.57235
      vertex -2.93421 -3.57235 2.0625
    endloop
  endfacet
  facet normal 0.866025 -1.38893e-08 -0.5
    outer loop
      vertex -4.125 -6.35 0
      vertex -2.93421 -3.57235 2.0625
      vertex -2.0625 -6.35 3.57235
    endloop
  endfacet
  facet normal 0.866025 0 -0.5
    outer loop
      vertex -2.93421 -3.57235 2.0625
      vertex -4.125 -6.35 0
      vertex -4.125 -3.57235 0
    endloop
  endfacet
  facet normal 0.866025 1.23619e-07 -0.5
    outer loop
      vertex -2.61514 -2.61515 2.61514
      vertex -2.0625 -3.57235 3.57235
      vertex -2.93421 -3.57235 2.0625
    endloop
  endfacet
  facet normal 0.866025 -0 0.5
    outer loop
      vertex -4.125 -6.35 0
      vertex -2.93422 -3.57235 -2.0625
      vertex -4.125 -3.57235 0
    endloop
  endfacet
  facet normal 0.866025 -3.68887e-08 0.5
    outer loop
      vertex -2.0625 -6.35 -3.57235
      vertex -2.93422 -3.57235 -2.0625
      vertex -4.125 -6.35 0
    endloop
  endfacet
  facet normal 0.866025 0 0.5
    outer loop
      vertex -2.93422 -3.57235 -2.0625
      vertex -2.0625 -6.35 -3.57235
      vertex -2.0625 -3.57235 -3.57235
    endloop
  endfacet
  facet normal 0.866025 -4.19247e-09 0.5
    outer loop
      vertex -2.61515 -2.61514 -2.61514
      vertex -2.93422 -3.57235 -2.0625
      vertex -2.0625 -3.57235 -3.57235
    endloop
  endfacet
  facet normal 0.866025 0 0.5
    outer loop
      vertex -2.93422 3.57235 -2.0625
      vertex -4.125 6.35 0
      vertex -4.125 3.57235 0
    endloop
  endfacet
  facet normal 0.866025 3.68887e-08 0.5
    outer loop
      vertex -4.125 6.35 0
      vertex -2.93422 3.57235 -2.0625
      vertex -2.0625 6.35 -3.57235
    endloop
  endfacet
  facet normal 0.866025 0 0.5
    outer loop
      vertex -2.93422 3.57235 -2.0625
      vertex -2.0625 3.57235 -3.57235
      vertex -2.0625 6.35 -3.57235
    endloop
  endfacet
  facet normal 0.866025 -2.91775e-08 0.5
    outer loop
      vertex -2.0625 3.57235 -3.57235
      vertex -2.93422 3.57235 -2.0625
      vertex -2.61514 2.61514 -2.61515
    endloop
  endfacet
  facet normal -0 0 1
    outer loop
      vertex -2.0625 -3.57235 -3.57235
      vertex 2.0625 -6.35 -3.57235
      vertex 2.0625 -3.57235 -3.57235
    endloop
  endfacet
  facet normal 0 0 1
    outer loop
      vertex 2.0625 -6.35 -3.57235
      vertex -2.0625 -3.57235 -3.57235
      vertex -2.0625 -6.35 -3.57235
    endloop
  endfacet
  facet normal 0 0 1
    outer loop
      vertex 2.0625 6.35 -3.57235
      vertex -2.0625 3.57235 -3.57235
      vertex 2.0625 3.57235 -3.57235
    endloop
  endfacet
  facet normal -0 0 1
    outer loop
      vertex -2.0625 6.35 -3.57235
      vertex -2.0625 3.57235 -3.57235
      vertex 2.0625 6.35 -3.57235
    endloop
  endfacet
  facet normal -0.866025 -1.40945e-07 0.5
    outer loop
      vertex 2.0625 -3.57235 -3.57235
      vertex 2.93422 -3.57235 -2.0625
      vertex 2.61515 -2.61514 -2.61514
    endloop
  endfacet
  facet normal -0.866025 0 0.5
    outer loop
      vertex 2.0625 -6.35 -3.57235
      vertex 2.93422 -3.57235 -2.0625
      vertex 2.0625 -3.57235 -3.57235
    endloop
  endfacet
  facet normal -0.866025 3.74464e-08 0.5
    outer loop
      vertex 4.125 -6.35 0
      vertex 2.93422 -3.57235 -2.0625
      vertex 2.0625 -6.35 -3.57235
    endloop
  endfacet
  facet normal -0.866025 0 0.5
    outer loop
      vertex 2.93422 -3.57235 -2.0625
      vertex 4.125 -6.35 0
      vertex 4.125 -3.57235 0
    endloop
  endfacet
  facet normal -0.866025 1.40945e-07 0.5
    outer loop
      vertex 2.0625 3.57235 -3.57235
      vertex 2.61515 2.61514 -2.61514
      vertex 2.93422 3.57235 -2.0625
    endloop
  endfacet
  facet normal -0.866025 0 0.5
    outer loop
      vertex 2.93422 3.57235 -2.0625
      vertex 2.0625 6.35 -3.57235
      vertex 2.0625 3.57235 -3.57235
    endloop
  endfacet
  facet normal -0.866025 -3.74464e-08 0.5
    outer loop
      vertex 2.0625 6.35 -3.57235
      vertex 2.93422 3.57235 -2.0625
      vertex 4.125 6.35 0
    endloop
  endfacet
  facet normal -0.866025 0 0.5
    outer loop
      vertex 4.125 6.35 0
      vertex 2.93422 3.57235 -2.0625
      vertex 4.125 3.57235 0
    endloop
  endfacet
  facet normal -6.04478e-08 -0.5 0.866025
    outer loop
      vertex -6.35 3.57235 -2.0625
      vertex -2.61514 2.61514 -2.61515
      vertex -2.93422 3.57235 -2.0625
    endloop
  endfacet
  facet normal -5.25059e-08 -0.5 0.866025
    outer loop
      vertex -2.61514 2.61514 -2.61515
      vertex -6.35 3.57235 -2.0625
      vertex -4.125 0 -4.125
    endloop
  endfacet
  facet normal 0 -0.5 0.866025
    outer loop
      vertex -4.125 0 -4.125
      vertex -6.35 3.57235 -2.0625
      vertex -6.35 0 -4.125
    endloop
  endfacet
  facet normal 0 -0.5 0.866025
    outer loop
      vertex 6.35 3.57235 -2.0625
      vertex 4.125 0 -4.125
      vertex 6.35 0 -4.125
    endloop
  endfacet
  facet normal -6.04478e-08 -0.5 0.866025
    outer loop
      vertex 2.61515 2.61514 -2.61514
      vertex 6.35 3.57235 -2.0625
      vertex 2.93422 3.57235 -2.0625
    endloop
  endfacet
  facet normal -2.61827e-08 -0.5 0.866025
    outer loop
      vertex 6.35 3.57235 -2.0625
      vertex 2.61515 2.61514 -2.61514
      vertex 4.125 0 -4.125
    endloop
  endfacet
  facet normal 2.61827e-08 -0.5 -0.866025
    outer loop
      vertex -6.35 3.57235 2.0625
      vertex -2.61514 2.61514 2.61514
      vertex -4.125 0 4.125
    endloop
  endfacet
  facet normal 0 -0.5 -0.866025
    outer loop
      vertex -6.35 3.57235 2.0625
      vertex -4.125 0 4.125
      vertex -6.35 0 4.125
    endloop
  endfacet
  facet normal 6.04478e-08 -0.5 -0.866025
    outer loop
      vertex -2.61514 2.61514 2.61514
      vertex -6.35 3.57235 2.0625
      vertex -2.93421 3.57235 2.0625
    endloop
  endfacet
  facet normal 0 -0.5 -0.866025
    outer loop
      vertex 4.125 0 4.125
      vertex 6.35 3.57235 2.0625
      vertex 6.35 0 4.125
    endloop
  endfacet
  facet normal 7.01329e-08 -0.5 -0.866025
    outer loop
      vertex 2.61515 2.61514 2.61514
      vertex 6.35 3.57235 2.0625
      vertex 4.125 0 4.125
    endloop
  endfacet
  facet normal 6.04478e-08 -0.5 -0.866025
    outer loop
      vertex 6.35 3.57235 2.0625
      vertex 2.61515 2.61514 2.61514
      vertex 2.93422 3.57235 2.0625
    endloop
  endfacet
  facet normal 0 -1 0
    outer loop
      vertex -6.35 3.57235 2.0625
      vertex -4.125 3.57235 0
      vertex -2.93421 3.57235 2.0625
    endloop
  endfacet
  facet normal 0 -1 0
    outer loop
      vertex -6.35 3.57235 -2.0625
      vertex -4.125 3.57235 0
      vertex -6.35 3.57235 2.0625
    endloop
  endfacet
  facet normal 0 -1 -0
    outer loop
      vertex -4.125 3.57235 0
      vertex -6.35 3.57235 -2.0625
      vertex -2.93422 3.57235 -2.0625
    endloop
  endfacet
  facet normal 0 -1 0
    outer loop
      vertex 4.125 3.57235 0
      vertex 6.35 3.57235 2.0625
      vertex 2.93422 3.57235 2.0625
    endloop
  endfacet
  facet normal 0 -1 0
    outer loop
      vertex 4.125 3.57235 0
      vertex 6.35 3.57235 -2.0625
      vertex 6.35 3.57235 2.0625
    endloop
  endfacet
  facet normal -0 -1 0
    outer loop
      vertex 6.35 3.57235 -2.0625
      vertex 4.125 3.57235 0
      vertex 2.93422 3.57235 -2.0625
    endloop
  endfacet
  facet normal 0 1 -0
    outer loop
      vertex -4.125 -3.57235 0
      vertex -6.35 -3.57235 2.0625
      vertex -2.93421 -3.57235 2.0625
    endloop
  endfacet
  facet normal 0 1 0
    outer loop
      vertex -6.35 -3.57235 -2.0625
      vertex -4.125 -3.57235 0
      vertex -2.93422 -3.57235 -2.0625
    endloop
  endfacet
  facet normal 0 1 0
    outer loop
      vertex -4.125 -3.57235 0
      vertex -6.35 -3.57235 -2.0625
      vertex -6.35 -3.57235 2.0625
    endloop
  endfacet
  facet normal 0 1 0
    outer loop
      vertex 6.35 -3.57235 2.0625
      vertex 4.125 -3.57235 0
      vertex 2.93422 -3.57235 2.0625
    endloop
  endfacet
  facet normal 0 1 -0
    outer loop
      vertex 6.35 -3.57235 -2.0625
      vertex 4.125 -3.57235 0
      vertex 6.35 -3.57235 2.0625
    endloop
  endfacet
  facet normal 0 1 0
    outer loop
      vertex 4.125 -3.57235 0
      vertex 6.35 -3.57235 -2.0625
      vertex 2.93422 -3.57235 -2.0625
    endloop
  endfacet
  facet normal 6.04478e-08 0.5 -0.866025
    outer loop
      vertex -6.35 -3.57235 2.0625
      vertex -2.61514 -2.61515 2.61514
      vertex -2.93421 -3.57235 2.0625
    endloop
  endfacet
  facet normal 8.55577e-09 0.5 -0.866025
    outer loop
      vertex -2.61514 -2.61515 2.61514
      vertex -6.35 -3.57235 2.0625
      vertex -4.125 0 4.125
    endloop
  endfacet
  facet normal 0 0.5 -0.866025
    outer loop
      vertex -4.125 0 4.125
      vertex -6.35 -3.57235 2.0625
      vertex -6.35 0 4.125
    endloop
  endfacet
  facet normal 0 0.5 -0.866025
    outer loop
      vertex 6.35 -3.57235 2.0625
      vertex 4.125 0 4.125
      vertex 6.35 0 4.125
    endloop
  endfacet
  facet normal 6.04478e-08 0.5 -0.866025
    outer loop
      vertex 2.61515 -2.61514 2.61514
      vertex 6.35 -3.57235 2.0625
      vertex 2.93422 -3.57235 2.0625
    endloop
  endfacet
  facet normal 7.01329e-08 0.5 -0.866025
    outer loop
      vertex 6.35 -3.57235 2.0625
      vertex 2.61515 -2.61514 2.61514
      vertex 4.125 0 4.125
    endloop
  endfacet
  facet normal -7.01329e-08 0.5 0.866025
    outer loop
      vertex -6.35 -3.57235 -2.0625
      vertex -2.61515 -2.61514 -2.61514
      vertex -4.125 0 -4.125
    endloop
  endfacet
  facet normal 0 0.5 0.866025
    outer loop
      vertex -6.35 -3.57235 -2.0625
      vertex -4.125 0 -4.125
      vertex -6.35 0 -4.125
    endloop
  endfacet
  facet normal -6.04478e-08 0.5 0.866025
    outer loop
      vertex -2.61515 -2.61514 -2.61514
      vertex -6.35 -3.57235 -2.0625
      vertex -2.93422 -3.57235 -2.0625
    endloop
  endfacet
  facet normal -0 0.5 0.866025
    outer loop
      vertex 4.125 0 -4.125
      vertex 6.35 -3.57235 -2.0625
      vertex 6.35 0 -4.125
    endloop
  endfacet
  facet normal -2.61827e-08 0.5 0.866025
    outer loop
      vertex 2.61515 -2.61514 -2.61514
      vertex 6.35 -3.57235 -2.0625
      vertex 4.125 0 -4.125
    endloop
  endfacet
  facet normal -6.04478e-08 0.5 0.866025
    outer loop
      vertex 6.35 -3.57235 -2.0625
      vertex 2.61515 -2.61514 -2.61514
      vertex 2.93422 -3.57235 -2.0625
    endloop
  endfacet
endsolid OpenSCAD_Model
