solid OpenSCAD_Model
  facet normal -1 0 0
    outer loop
      vertex -10.8625 -38.1 -10.8625
      vertex -10.8625 38.1 10.8625
      vertex -10.8625 38.1 -10.8625
    endloop
  endfacet
  facet normal -1 -0 0
    outer loop
      vertex -10.8625 38.1 10.8625
      vertex -10.8625 -38.1 -10.8625
      vertex -10.8625 -38.1 10.8625
    endloop
  endfacet
  facet normal 0 0 1
    outer loop
      vertex 1.76777 -22.0447 10.8625
      vertex 3.79117 -6.56651 10.8625
      vertex 2.34307 -7.21124 10.8625
    endloop
  endfacet
  facet normal 0 0 1
    outer loop
      vertex 3.79117 -6.56651 10.8625
      vertex 1.76777 -22.0447 10.8625
      vertex 2.5 -23.8125 10.8625
    endloop
  endfacet
  facet normal 0 0 1
    outer loop
      vertex 0 -21.3125 10.8625
      vertex 2.34307 -7.21124 10.8625
      vertex 0.792571 -7.54081 10.8625
    endloop
  endfacet
  facet normal 0 0 1
    outer loop
      vertex 2.34307 -7.21124 10.8625
      vertex 0 -21.3125 10.8625
      vertex 1.76777 -22.0447 10.8625
    endloop
  endfacet
  facet normal -0 0 1
    outer loop
      vertex -0.792571 -7.54081 10.8625
      vertex 0 -21.3125 10.8625
      vertex 0.792571 -7.54081 10.8625
    endloop
  endfacet
  facet normal 0 0 1
    outer loop
      vertex -2.34307 -7.21124 10.8625
      vertex 0 -21.3125 10.8625
      vertex -0.792571 -7.54081 10.8625
    endloop
  endfacet
  facet normal 0 0 1
    outer loop
      vertex 0 -21.3125 10.8625
      vertex -2.34307 -7.21124 10.8625
      vertex -1.76777 -22.0447 10.8625
    endloop
  endfacet
  facet normal 0 0 1
    outer loop
      vertex -3.79117 -6.56651 10.8625
      vertex -1.76777 -22.0447 10.8625
      vertex -2.34307 -7.21124 10.8625
    endloop
  endfacet
  facet normal 0 0 1
    outer loop
      vertex -5.07358 -5.63478 10.8625
      vertex -1.76777 -22.0447 10.8625
      vertex -3.79117 -6.56651 10.8625
    endloop
  endfacet
  facet normal 0 0 1
    outer loop
      vertex 10.8625 38.1 10.8625
      vertex 7.58235 0 10.8625
      vertex 10.8625 -38.1 10.8625
    endloop
  endfacet
  facet normal 0 0 1
    outer loop
      vertex 10.8625 38.1 10.8625
      vertex 7.41666 1.57646 10.8625
      vertex 7.58235 0 10.8625
    endloop
  endfacet
  facet normal 0 0 1
    outer loop
      vertex 10.8625 38.1 10.8625
      vertex 6.92682 3.08402 10.8625
      vertex 7.41666 1.57646 10.8625
    endloop
  endfacet
  facet normal 0 0 1
    outer loop
      vertex 10.8625 38.1 10.8625
      vertex 6.13425 4.45679 10.8625
      vertex 6.92682 3.08402 10.8625
    endloop
  endfacet
  facet normal -0 0 1
    outer loop
      vertex 2.5 23.8125 10.8625
      vertex 6.13425 4.45679 10.8625
      vertex 10.8625 38.1 10.8625
    endloop
  endfacet
  facet normal 0 0 1
    outer loop
      vertex 6.13425 4.45679 10.8625
      vertex 2.5 23.8125 10.8625
      vertex 5.07358 5.63478 10.8625
    endloop
  endfacet
  facet normal -0 0 1
    outer loop
      vertex 1.76777 22.0447 10.8625
      vertex 5.07358 5.63478 10.8625
      vertex 2.5 23.8125 10.8625
    endloop
  endfacet
  facet normal 0 0 1
    outer loop
      vertex 10.8625 38.1 10.8625
      vertex 1.76777 25.5803 10.8625
      vertex 2.5 23.8125 10.8625
    endloop
  endfacet
  facet normal 0 0 1
    outer loop
      vertex 10.8625 38.1 10.8625
      vertex 0 26.3125 10.8625
      vertex 1.76777 25.5803 10.8625
    endloop
  endfacet
  facet normal -0 0 1
    outer loop
      vertex -10.8625 38.1 10.8625
      vertex 0 26.3125 10.8625
      vertex 10.8625 38.1 10.8625
    endloop
  endfacet
  facet normal 0 0 1
    outer loop
      vertex -1.76777 22.0447 10.8625
      vertex -5.07358 5.63478 10.8625
      vertex -3.79117 6.56651 10.8625
    endloop
  endfacet
  facet normal 0 0 1
    outer loop
      vertex -2.5 23.8125 10.8625
      vertex -6.13425 4.45679 10.8625
      vertex -5.07358 5.63478 10.8625
    endloop
  endfacet
  facet normal 0 0 1
    outer loop
      vertex -10.8625 38.1 10.8625
      vertex -6.13425 4.45679 10.8625
      vertex -2.5 23.8125 10.8625
    endloop
  endfacet
  facet normal 0 0 1
    outer loop
      vertex -6.13425 4.45679 10.8625
      vertex -10.8625 38.1 10.8625
      vertex -6.92682 3.08402 10.8625
    endloop
  endfacet
  facet normal 0 0 1
    outer loop
      vertex -7.41666 1.57646 10.8625
      vertex -10.8625 38.1 10.8625
      vertex -7.58235 0 10.8625
    endloop
  endfacet
  facet normal 0 0 1
    outer loop
      vertex -6.92682 3.08402 10.8625
      vertex -10.8625 38.1 10.8625
      vertex -7.41666 1.57646 10.8625
    endloop
  endfacet
  facet normal 0 0 1
    outer loop
      vertex -1.76777 25.5803 10.8625
      vertex -10.8625 38.1 10.8625
      vertex -2.5 23.8125 10.8625
    endloop
  endfacet
  facet normal 0 0 1
    outer loop
      vertex 0 26.3125 10.8625
      vertex -10.8625 38.1 10.8625
      vertex -1.76777 25.5803 10.8625
    endloop
  endfacet
  facet normal -0 0 1
    outer loop
      vertex 7.41666 -1.57646 10.8625
      vertex 10.8625 -38.1 10.8625
      vertex 7.58235 0 10.8625
    endloop
  endfacet
  facet normal -0 0 1
    outer loop
      vertex 6.92682 -3.08402 10.8625
      vertex 10.8625 -38.1 10.8625
      vertex 7.41666 -1.57646 10.8625
    endloop
  endfacet
  facet normal -0 0 1
    outer loop
      vertex 6.13425 -4.45679 10.8625
      vertex 10.8625 -38.1 10.8625
      vertex 6.92682 -3.08402 10.8625
    endloop
  endfacet
  facet normal 0 0 1
    outer loop
      vertex 2.5 -23.8125 10.8625
      vertex 6.13425 -4.45679 10.8625
      vertex 5.07358 -5.63478 10.8625
    endloop
  endfacet
  facet normal 0 0 1
    outer loop
      vertex 2.5 -23.8125 10.8625
      vertex 5.07358 -5.63478 10.8625
      vertex 3.79117 -6.56651 10.8625
    endloop
  endfacet
  facet normal 0 0 1
    outer loop
      vertex 6.13425 -4.45679 10.8625
      vertex 2.5 -23.8125 10.8625
      vertex 10.8625 -38.1 10.8625
    endloop
  endfacet
  facet normal -0 0 1
    outer loop
      vertex 1.76777 -25.5803 10.8625
      vertex 10.8625 -38.1 10.8625
      vertex 2.5 -23.8125 10.8625
    endloop
  endfacet
  facet normal -0 0 1
    outer loop
      vertex 0 -26.3125 10.8625
      vertex 10.8625 -38.1 10.8625
      vertex 1.76777 -25.5803 10.8625
    endloop
  endfacet
  facet normal 0 0 1
    outer loop
      vertex -10.8625 -38.1 10.8625
      vertex 0 -26.3125 10.8625
      vertex -1.76777 -25.5803 10.8625
    endloop
  endfacet
  facet normal 0 0 1
    outer loop
      vertex -1.76777 -22.0447 10.8625
      vertex -5.07358 -5.63478 10.8625
      vertex -2.5 -23.8125 10.8625
    endloop
  endfacet
  facet normal 0 0 1
    outer loop
      vertex -6.13425 -4.45679 10.8625
      vertex -2.5 -23.8125 10.8625
      vertex -5.07358 -5.63478 10.8625
    endloop
  endfacet
  facet normal 0 0 1
    outer loop
      vertex -10.8625 -38.1 10.8625
      vertex -6.13425 -4.45679 10.8625
      vertex -6.92682 -3.08402 10.8625
    endloop
  endfacet
  facet normal 0 0 1
    outer loop
      vertex -10.8625 -38.1 10.8625
      vertex -6.92682 -3.08402 10.8625
      vertex -7.41666 -1.57646 10.8625
    endloop
  endfacet
  facet normal 0 0 1
    outer loop
      vertex 0 -26.3125 10.8625
      vertex -10.8625 -38.1 10.8625
      vertex 10.8625 -38.1 10.8625
    endloop
  endfacet
  facet normal 0 0 1
    outer loop
      vertex -2.5 -23.8125 10.8625
      vertex -10.8625 -38.1 10.8625
      vertex -1.76777 -25.5803 10.8625
    endloop
  endfacet
  facet normal 0 0 1
    outer loop
      vertex -6.13425 -4.45679 10.8625
      vertex -10.8625 -38.1 10.8625
      vertex -2.5 -23.8125 10.8625
    endloop
  endfacet
  facet normal 0 0 1
    outer loop
      vertex -7.58235 0 10.8625
      vertex -10.8625 -38.1 10.8625
      vertex -7.41666 -1.57646 10.8625
    endloop
  endfacet
  facet normal 0 0 1
    outer loop
      vertex -10.8625 -38.1 10.8625
      vertex -7.58235 0 10.8625
      vertex -10.8625 38.1 10.8625
    endloop
  endfacet
  facet normal 0 0 1
    outer loop
      vertex 5.07358 5.63478 10.8625
      vertex 1.76777 22.0447 10.8625
      vertex 3.79117 6.56651 10.8625
    endloop
  endfacet
  facet normal 0 0 1
    outer loop
      vertex 3.79117 6.56651 10.8625
      vertex 1.76777 22.0447 10.8625
      vertex 2.34307 7.21124 10.8625
    endloop
  endfacet
  facet normal -0 0 1
    outer loop
      vertex 0 21.3125 10.8625
      vertex 2.34307 7.21124 10.8625
      vertex 1.76777 22.0447 10.8625
    endloop
  endfacet
  facet normal 0 0 1
    outer loop
      vertex 2.34307 7.21124 10.8625
      vertex 0 21.3125 10.8625
      vertex 0.792571 7.54081 10.8625
    endloop
  endfacet
  facet normal 0 0 1
    outer loop
      vertex 0 21.3125 10.8625
      vertex -0.792571 7.54081 10.8625
      vertex 0.792571 7.54081 10.8625
    endloop
  endfacet
  facet normal 0 0 1
    outer loop
      vertex -2.34307 7.21124 10.8625
      vertex 0 21.3125 10.8625
      vertex -1.76777 22.0447 10.8625
    endloop
  endfacet
  facet normal 0 0 1
    outer loop
      vertex 0 21.3125 10.8625
      vertex -2.34307 7.21124 10.8625
      vertex -0.792571 7.54081 10.8625
    endloop
  endfacet
  facet normal 0 0 1
    outer loop
      vertex -5.07358 5.63478 10.8625
      vertex -1.76777 22.0447 10.8625
      vertex -2.5 23.8125 10.8625
    endloop
  endfacet
  facet normal 0 0 1
    outer loop
      vertex -1.76777 22.0447 10.8625
      vertex -3.79117 6.56651 10.8625
      vertex -2.34307 7.21124 10.8625
    endloop
  endfacet
  facet normal 1 -0 0
    outer loop
      vertex 10.8625 -38.1 10.8625
      vertex 10.8625 38.1 -10.8625
      vertex 10.8625 38.1 10.8625
    endloop
  endfacet
  facet normal 1 0 0
    outer loop
      vertex 10.8625 38.1 -10.8625
      vertex 10.8625 -38.1 10.8625
      vertex 10.8625 -38.1 -10.8625
    endloop
  endfacet
  facet normal 0 1 -0
    outer loop
      vertex 10.8625 38.1 -10.8625
      vertex -10.8625 38.1 10.8625
      vertex 10.8625 38.1 10.8625
    endloop
  endfacet
  facet normal 0 1 0
    outer loop
      vertex -10.8625 38.1 10.8625
      vertex 10.8625 38.1 -10.8625
      vertex -10.8625 38.1 -10.8625
    endloop
  endfacet
  facet normal 0 0 -1
    outer loop
      vertex 1.76777 22.0447 -10.8625
      vertex 3.79117 6.56651 -10.8625
      vertex 2.34307 7.21124 -10.8625
    endloop
  endfacet
  facet normal 0 0 -1
    outer loop
      vertex 3.79117 6.56651 -10.8625
      vertex 1.76777 22.0447 -10.8625
      vertex 2.5 23.8125 -10.8625
    endloop
  endfacet
  facet normal 0 0 -1
    outer loop
      vertex 0 21.3125 -10.8625
      vertex 2.34307 7.21124 -10.8625
      vertex 0.792571 7.54081 -10.8625
    endloop
  endfacet
  facet normal 0 0 -1
    outer loop
      vertex 2.34307 7.21124 -10.8625
      vertex 0 21.3125 -10.8625
      vertex 1.76777 22.0447 -10.8625
    endloop
  endfacet
  facet normal 0 0 -1
    outer loop
      vertex -0.792571 7.54081 -10.8625
      vertex 0 21.3125 -10.8625
      vertex 0.792571 7.54081 -10.8625
    endloop
  endfacet
  facet normal 0 0 -1
    outer loop
      vertex -2.34307 7.21124 -10.8625
      vertex 0 21.3125 -10.8625
      vertex -0.792571 7.54081 -10.8625
    endloop
  endfacet
  facet normal -0 0 -1
    outer loop
      vertex 0 21.3125 -10.8625
      vertex -2.34307 7.21124 -10.8625
      vertex -1.76777 22.0447 -10.8625
    endloop
  endfacet
  facet normal 0 0 -1
    outer loop
      vertex -3.79117 6.56651 -10.8625
      vertex -1.76777 22.0447 -10.8625
      vertex -2.34307 7.21124 -10.8625
    endloop
  endfacet
  facet normal 0 0 -1
    outer loop
      vertex -5.07358 5.63478 -10.8625
      vertex -1.76777 22.0447 -10.8625
      vertex -3.79117 6.56651 -10.8625
    endloop
  endfacet
  facet normal 0 0 -1
    outer loop
      vertex 10.8625 -38.1 -10.8625
      vertex 7.58235 0 -10.8625
      vertex 10.8625 38.1 -10.8625
    endloop
  endfacet
  facet normal 0 0 -1
    outer loop
      vertex 10.8625 -38.1 -10.8625
      vertex 7.41666 -1.57646 -10.8625
      vertex 7.58235 0 -10.8625
    endloop
  endfacet
  facet normal 0 0 -1
    outer loop
      vertex 10.8625 -38.1 -10.8625
      vertex 6.92682 -3.08402 -10.8625
      vertex 7.41666 -1.57646 -10.8625
    endloop
  endfacet
  facet normal 0 0 -1
    outer loop
      vertex 10.8625 -38.1 -10.8625
      vertex 6.13425 -4.45679 -10.8625
      vertex 6.92682 -3.08402 -10.8625
    endloop
  endfacet
  facet normal 0 0 -1
    outer loop
      vertex 2.5 -23.8125 -10.8625
      vertex 6.13425 -4.45679 -10.8625
      vertex 10.8625 -38.1 -10.8625
    endloop
  endfacet
  facet normal 0 0 -1
    outer loop
      vertex 6.13425 -4.45679 -10.8625
      vertex 2.5 -23.8125 -10.8625
      vertex 5.07358 -5.63478 -10.8625
    endloop
  endfacet
  facet normal 0 0 -1
    outer loop
      vertex 1.76777 -22.0447 -10.8625
      vertex 5.07358 -5.63478 -10.8625
      vertex 2.5 -23.8125 -10.8625
    endloop
  endfacet
  facet normal 0 0 -1
    outer loop
      vertex 10.8625 -38.1 -10.8625
      vertex 1.76777 -25.5803 -10.8625
      vertex 2.5 -23.8125 -10.8625
    endloop
  endfacet
  facet normal 0 0 -1
    outer loop
      vertex 10.8625 -38.1 -10.8625
      vertex 0 -26.3125 -10.8625
      vertex 1.76777 -25.5803 -10.8625
    endloop
  endfacet
  facet normal 0 0 -1
    outer loop
      vertex -10.8625 -38.1 -10.8625
      vertex 0 -26.3125 -10.8625
      vertex 10.8625 -38.1 -10.8625
    endloop
  endfacet
  facet normal 0 0 -1
    outer loop
      vertex -1.76777 -22.0447 -10.8625
      vertex -5.07358 -5.63478 -10.8625
      vertex -3.79117 -6.56651 -10.8625
    endloop
  endfacet
  facet normal 0 0 -1
    outer loop
      vertex -2.5 -23.8125 -10.8625
      vertex -6.13425 -4.45679 -10.8625
      vertex -5.07358 -5.63478 -10.8625
    endloop
  endfacet
  facet normal 0 0 -1
    outer loop
      vertex -10.8625 -38.1 -10.8625
      vertex -6.13425 -4.45679 -10.8625
      vertex -2.5 -23.8125 -10.8625
    endloop
  endfacet
  facet normal -0 0 -1
    outer loop
      vertex -6.13425 -4.45679 -10.8625
      vertex -10.8625 -38.1 -10.8625
      vertex -6.92682 -3.08402 -10.8625
    endloop
  endfacet
  facet normal -0 0 -1
    outer loop
      vertex -7.41666 -1.57646 -10.8625
      vertex -10.8625 -38.1 -10.8625
      vertex -7.58235 0 -10.8625
    endloop
  endfacet
  facet normal -0 0 -1
    outer loop
      vertex -6.92682 -3.08402 -10.8625
      vertex -10.8625 -38.1 -10.8625
      vertex -7.41666 -1.57646 -10.8625
    endloop
  endfacet
  facet normal -0 0 -1
    outer loop
      vertex -1.76777 -25.5803 -10.8625
      vertex -10.8625 -38.1 -10.8625
      vertex -2.5 -23.8125 -10.8625
    endloop
  endfacet
  facet normal -0 0 -1
    outer loop
      vertex 0 -26.3125 -10.8625
      vertex -10.8625 -38.1 -10.8625
      vertex -1.76777 -25.5803 -10.8625
    endloop
  endfacet
  facet normal 0 0 -1
    outer loop
      vertex 7.41666 1.57646 -10.8625
      vertex 10.8625 38.1 -10.8625
      vertex 7.58235 0 -10.8625
    endloop
  endfacet
  facet normal 0 0 -1
    outer loop
      vertex 6.92682 3.08402 -10.8625
      vertex 10.8625 38.1 -10.8625
      vertex 7.41666 1.57646 -10.8625
    endloop
  endfacet
  facet normal 0 0 -1
    outer loop
      vertex 6.13425 4.45679 -10.8625
      vertex 10.8625 38.1 -10.8625
      vertex 6.92682 3.08402 -10.8625
    endloop
  endfacet
  facet normal 0 0 -1
    outer loop
      vertex 2.5 23.8125 -10.8625
      vertex 6.13425 4.45679 -10.8625
      vertex 5.07358 5.63478 -10.8625
    endloop
  endfacet
  facet normal 0 0 -1
    outer loop
      vertex 2.5 23.8125 -10.8625
      vertex 5.07358 5.63478 -10.8625
      vertex 3.79117 6.56651 -10.8625
    endloop
  endfacet
  facet normal 0 0 -1
    outer loop
      vertex 6.13425 4.45679 -10.8625
      vertex 2.5 23.8125 -10.8625
      vertex 10.8625 38.1 -10.8625
    endloop
  endfacet
  facet normal 0 0 -1
    outer loop
      vertex 1.76777 25.5803 -10.8625
      vertex 10.8625 38.1 -10.8625
      vertex 2.5 23.8125 -10.8625
    endloop
  endfacet
  facet normal 0 0 -1
    outer loop
      vertex 0 26.3125 -10.8625
      vertex 10.8625 38.1 -10.8625
      vertex 1.76777 25.5803 -10.8625
    endloop
  endfacet
  facet normal 0 0 -1
    outer loop
      vertex -10.8625 38.1 -10.8625
      vertex 0 26.3125 -10.8625
      vertex -1.76777 25.5803 -10.8625
    endloop
  endfacet
  facet normal -0 0 -1
    outer loop
      vertex -1.76777 22.0447 -10.8625
      vertex -5.07358 5.63478 -10.8625
      vertex -2.5 23.8125 -10.8625
    endloop
  endfacet
  facet normal 0 0 -1
    outer loop
      vertex -6.13425 4.45679 -10.8625
      vertex -2.5 23.8125 -10.8625
      vertex -5.07358 5.63478 -10.8625
    endloop
  endfacet
  facet normal 0 0 -1
    outer loop
      vertex -10.8625 38.1 -10.8625
      vertex -6.13425 4.45679 -10.8625
      vertex -6.92682 3.08402 -10.8625
    endloop
  endfacet
  facet normal 0 0 -1
    outer loop
      vertex -10.8625 38.1 -10.8625
      vertex -6.92682 3.08402 -10.8625
      vertex -7.41666 1.57646 -10.8625
    endloop
  endfacet
  facet normal 0 0 -1
    outer loop
      vertex 0 26.3125 -10.8625
      vertex -10.8625 38.1 -10.8625
      vertex 10.8625 38.1 -10.8625
    endloop
  endfacet
  facet normal 0 0 -1
    outer loop
      vertex -2.5 23.8125 -10.8625
      vertex -10.8625 38.1 -10.8625
      vertex -1.76777 25.5803 -10.8625
    endloop
  endfacet
  facet normal 0 0 -1
    outer loop
      vertex -6.13425 4.45679 -10.8625
      vertex -10.8625 38.1 -10.8625
      vertex -2.5 23.8125 -10.8625
    endloop
  endfacet
  facet normal 0 0 -1
    outer loop
      vertex -7.58235 0 -10.8625
      vertex -10.8625 38.1 -10.8625
      vertex -7.41666 1.57646 -10.8625
    endloop
  endfacet
  facet normal 0 0 -1
    outer loop
      vertex -10.8625 38.1 -10.8625
      vertex -7.58235 0 -10.8625
      vertex -10.8625 -38.1 -10.8625
    endloop
  endfacet
  facet normal 0 0 -1
    outer loop
      vertex 5.07358 -5.63478 -10.8625
      vertex 1.76777 -22.0447 -10.8625
      vertex 3.79117 -6.56651 -10.8625
    endloop
  endfacet
  facet normal 0 0 -1
    outer loop
      vertex 3.79117 -6.56651 -10.8625
      vertex 1.76777 -22.0447 -10.8625
      vertex 2.34307 -7.21124 -10.8625
    endloop
  endfacet
  facet normal 0 0 -1
    outer loop
      vertex 0 -21.3125 -10.8625
      vertex 2.34307 -7.21124 -10.8625
      vertex 1.76777 -22.0447 -10.8625
    endloop
  endfacet
  facet normal 0 0 -1
    outer loop
      vertex 2.34307 -7.21124 -10.8625
      vertex 0 -21.3125 -10.8625
      vertex 0.792571 -7.54081 -10.8625
    endloop
  endfacet
  facet normal 0 0 -1
    outer loop
      vertex 0 -21.3125 -10.8625
      vertex -0.792571 -7.54081 -10.8625
      vertex 0.792571 -7.54081 -10.8625
    endloop
  endfacet
  facet normal 0 0 -1
    outer loop
      vertex -2.34307 -7.21124 -10.8625
      vertex 0 -21.3125 -10.8625
      vertex -1.76777 -22.0447 -10.8625
    endloop
  endfacet
  facet normal 0 0 -1
    outer loop
      vertex 0 -21.3125 -10.8625
      vertex -2.34307 -7.21124 -10.8625
      vertex -0.792571 -7.54081 -10.8625
    endloop
  endfacet
  facet normal 0 0 -1
    outer loop
      vertex -5.07358 -5.63478 -10.8625
      vertex -1.76777 -22.0447 -10.8625
      vertex -2.5 -23.8125 -10.8625
    endloop
  endfacet
  facet normal 0 0 -1
    outer loop
      vertex -1.76777 -22.0447 -10.8625
      vertex -3.79117 -6.56651 -10.8625
      vertex -2.34307 -7.21124 -10.8625
    endloop
  endfacet
  facet normal 0 -1 0
    outer loop
      vertex -10.8625 -38.1 -10.8625
      vertex 10.8625 -38.1 10.8625
      vertex -10.8625 -38.1 10.8625
    endloop
  endfacet
  facet normal 0 -1 -0
    outer loop
      vertex 10.8625 -38.1 10.8625
      vertex -10.8625 -38.1 -10.8625
      vertex 10.8625 -38.1 -10.8625
    endloop
  endfacet
  facet normal -0.994522 -0.104528 0
    outer loop
      vertex 7.58235 0 -10.8625
      vertex 7.41666 1.57646 10.8625
      vertex 7.41666 1.57646 -10.8625
    endloop
  endfacet
  facet normal -0.994522 -0.104528 0
    outer loop
      vertex 7.41666 1.57646 10.8625
      vertex 7.58235 0 -10.8625
      vertex 7.58235 0 10.8625
    endloop
  endfacet
  facet normal 0.994522 -0.104528 0
    outer loop
      vertex -7.58235 0 10.8625
      vertex -7.41666 1.57646 -10.8625
      vertex -7.41666 1.57646 10.8625
    endloop
  endfacet
  facet normal 0.994522 -0.104528 0
    outer loop
      vertex -7.41666 1.57646 -10.8625
      vertex -7.58235 0 10.8625
      vertex -7.58235 0 -10.8625
    endloop
  endfacet
  facet normal 0 -1 0
    outer loop
      vertex -0.792571 7.54081 -10.8625
      vertex 0.792571 7.54081 10.8625
      vertex -0.792571 7.54081 10.8625
    endloop
  endfacet
  facet normal 0 -1 -0
    outer loop
      vertex 0.792571 7.54081 10.8625
      vertex -0.792571 7.54081 -10.8625
      vertex 0.792571 7.54081 -10.8625
    endloop
  endfacet
  facet normal 0 1 -0
    outer loop
      vertex 0.792571 -7.54081 -10.8625
      vertex -0.792571 -7.54081 10.8625
      vertex 0.792571 -7.54081 10.8625
    endloop
  endfacet
  facet normal 0 1 0
    outer loop
      vertex -0.792571 -7.54081 10.8625
      vertex 0.792571 -7.54081 -10.8625
      vertex -0.792571 -7.54081 -10.8625
    endloop
  endfacet
  facet normal -0.743145 -0.66913 0
    outer loop
      vertex 6.13425 4.45679 -10.8625
      vertex 5.07358 5.63478 10.8625
      vertex 5.07358 5.63478 -10.8625
    endloop
  endfacet
  facet normal -0.743145 -0.66913 0
    outer loop
      vertex 5.07358 5.63478 10.8625
      vertex 6.13425 4.45679 -10.8625
      vertex 6.13425 4.45679 10.8625
    endloop
  endfacet
  facet normal -0.951057 -0.309017 0
    outer loop
      vertex 7.41666 1.57646 -10.8625
      vertex 6.92682 3.08402 10.8625
      vertex 6.92682 3.08402 -10.8625
    endloop
  endfacet
  facet normal -0.951057 -0.309017 0
    outer loop
      vertex 6.92682 3.08402 10.8625
      vertex 7.41666 1.57646 -10.8625
      vertex 7.41666 1.57646 10.8625
    endloop
  endfacet
  facet normal 0.587785 -0.809017 0
    outer loop
      vertex -5.07358 5.63478 -10.8625
      vertex -3.79117 6.56651 10.8625
      vertex -5.07358 5.63478 10.8625
    endloop
  endfacet
  facet normal 0.587785 -0.809017 0
    outer loop
      vertex -3.79117 6.56651 10.8625
      vertex -5.07358 5.63478 -10.8625
      vertex -3.79117 6.56651 -10.8625
    endloop
  endfacet
  facet normal 0.207911 -0.978148 0
    outer loop
      vertex -2.34307 7.21124 -10.8625
      vertex -0.792571 7.54081 10.8625
      vertex -2.34307 7.21124 10.8625
    endloop
  endfacet
  facet normal 0.207911 -0.978148 0
    outer loop
      vertex -0.792571 7.54081 10.8625
      vertex -2.34307 7.21124 -10.8625
      vertex -0.792571 7.54081 -10.8625
    endloop
  endfacet
  facet normal -0.866025 0.500001 0
    outer loop
      vertex 6.13425 -4.45679 -10.8625
      vertex 6.92682 -3.08402 10.8625
      vertex 6.92682 -3.08402 -10.8625
    endloop
  endfacet
  facet normal -0.866025 0.500001 0
    outer loop
      vertex 6.92682 -3.08402 10.8625
      vertex 6.13425 -4.45679 -10.8625
      vertex 6.13425 -4.45679 10.8625
    endloop
  endfacet
  facet normal -0.866025 -0.500001 0
    outer loop
      vertex 6.92682 3.08402 -10.8625
      vertex 6.13425 4.45679 10.8625
      vertex 6.13425 4.45679 -10.8625
    endloop
  endfacet
  facet normal -0.866025 -0.500001 0
    outer loop
      vertex 6.13425 4.45679 10.8625
      vertex 6.92682 3.08402 -10.8625
      vertex 6.92682 3.08402 10.8625
    endloop
  endfacet
  facet normal -0.406737 -0.913545 0
    outer loop
      vertex 2.34307 7.21124 -10.8625
      vertex 3.79117 6.56651 10.8625
      vertex 2.34307 7.21124 10.8625
    endloop
  endfacet
  facet normal -0.406737 -0.913545 -0
    outer loop
      vertex 3.79117 6.56651 10.8625
      vertex 2.34307 7.21124 -10.8625
      vertex 3.79117 6.56651 -10.8625
    endloop
  endfacet
  facet normal -0.207911 -0.978148 0
    outer loop
      vertex 0.792571 7.54081 -10.8625
      vertex 2.34307 7.21124 10.8625
      vertex 0.792571 7.54081 10.8625
    endloop
  endfacet
  facet normal -0.207911 -0.978148 -0
    outer loop
      vertex 2.34307 7.21124 10.8625
      vertex 0.792571 7.54081 -10.8625
      vertex 2.34307 7.21124 -10.8625
    endloop
  endfacet
  facet normal -0.587785 -0.809017 0
    outer loop
      vertex 3.79117 6.56651 -10.8625
      vertex 5.07358 5.63478 10.8625
      vertex 3.79117 6.56651 10.8625
    endloop
  endfacet
  facet normal -0.587785 -0.809017 -0
    outer loop
      vertex 5.07358 5.63478 10.8625
      vertex 3.79117 6.56651 -10.8625
      vertex 5.07358 5.63478 -10.8625
    endloop
  endfacet
  facet normal 0.866025 -0.500001 0
    outer loop
      vertex -6.92682 3.08402 10.8625
      vertex -6.13425 4.45679 -10.8625
      vertex -6.13425 4.45679 10.8625
    endloop
  endfacet
  facet normal 0.866025 -0.500001 0
    outer loop
      vertex -6.13425 4.45679 -10.8625
      vertex -6.92682 3.08402 10.8625
      vertex -6.92682 3.08402 -10.8625
    endloop
  endfacet
  facet normal 0.743145 -0.66913 0
    outer loop
      vertex -6.13425 4.45679 10.8625
      vertex -5.07358 5.63478 -10.8625
      vertex -5.07358 5.63478 10.8625
    endloop
  endfacet
  facet normal 0.743145 -0.66913 0
    outer loop
      vertex -5.07358 5.63478 -10.8625
      vertex -6.13425 4.45679 10.8625
      vertex -6.13425 4.45679 -10.8625
    endloop
  endfacet
  facet normal 0.951057 -0.309017 0
    outer loop
      vertex -7.41666 1.57646 10.8625
      vertex -6.92682 3.08402 -10.8625
      vertex -6.92682 3.08402 10.8625
    endloop
  endfacet
  facet normal 0.951057 -0.309017 0
    outer loop
      vertex -6.92682 3.08402 -10.8625
      vertex -7.41666 1.57646 10.8625
      vertex -7.41666 1.57646 -10.8625
    endloop
  endfacet
  facet normal 0.406737 -0.913545 0
    outer loop
      vertex -3.79117 6.56651 -10.8625
      vertex -2.34307 7.21124 10.8625
      vertex -3.79117 6.56651 10.8625
    endloop
  endfacet
  facet normal 0.406737 -0.913545 0
    outer loop
      vertex -2.34307 7.21124 10.8625
      vertex -3.79117 6.56651 -10.8625
      vertex -2.34307 7.21124 -10.8625
    endloop
  endfacet
  facet normal -0.994522 0.104528 0
    outer loop
      vertex 7.41666 -1.57646 -10.8625
      vertex 7.58235 0 10.8625
      vertex 7.58235 0 -10.8625
    endloop
  endfacet
  facet normal -0.994522 0.104528 0
    outer loop
      vertex 7.58235 0 10.8625
      vertex 7.41666 -1.57646 -10.8625
      vertex 7.41666 -1.57646 10.8625
    endloop
  endfacet
  facet normal -0.207911 0.978148 0
    outer loop
      vertex 2.34307 -7.21124 -10.8625
      vertex 0.792571 -7.54081 10.8625
      vertex 2.34307 -7.21124 10.8625
    endloop
  endfacet
  facet normal -0.207911 0.978148 0
    outer loop
      vertex 0.792571 -7.54081 10.8625
      vertex 2.34307 -7.21124 -10.8625
      vertex 0.792571 -7.54081 -10.8625
    endloop
  endfacet
  facet normal -0.587785 0.809017 0
    outer loop
      vertex 5.07358 -5.63478 -10.8625
      vertex 3.79117 -6.56651 10.8625
      vertex 5.07358 -5.63478 10.8625
    endloop
  endfacet
  facet normal -0.587785 0.809017 0
    outer loop
      vertex 3.79117 -6.56651 10.8625
      vertex 5.07358 -5.63478 -10.8625
      vertex 3.79117 -6.56651 -10.8625
    endloop
  endfacet
  facet normal -0.743145 0.66913 0
    outer loop
      vertex 5.07358 -5.63478 -10.8625
      vertex 6.13425 -4.45679 10.8625
      vertex 6.13425 -4.45679 -10.8625
    endloop
  endfacet
  facet normal -0.743145 0.66913 0
    outer loop
      vertex 6.13425 -4.45679 10.8625
      vertex 5.07358 -5.63478 -10.8625
      vertex 5.07358 -5.63478 10.8625
    endloop
  endfacet
  facet normal -0.951057 0.309017 0
    outer loop
      vertex 6.92682 -3.08402 -10.8625
      vertex 7.41666 -1.57646 10.8625
      vertex 7.41666 -1.57646 -10.8625
    endloop
  endfacet
  facet normal -0.951057 0.309017 0
    outer loop
      vertex 7.41666 -1.57646 10.8625
      vertex 6.92682 -3.08402 -10.8625
      vertex 6.92682 -3.08402 10.8625
    endloop
  endfacet
  facet normal 0.587785 0.809017 -0
    outer loop
      vertex -3.79117 -6.56651 -10.8625
      vertex -5.07358 -5.63478 10.8625
      vertex -3.79117 -6.56651 10.8625
    endloop
  endfacet
  facet normal 0.587785 0.809017 0
    outer loop
      vertex -5.07358 -5.63478 10.8625
      vertex -3.79117 -6.56651 -10.8625
      vertex -5.07358 -5.63478 -10.8625
    endloop
  endfacet
  facet normal 0.866025 0.500001 0
    outer loop
      vertex -6.13425 -4.45679 10.8625
      vertex -6.92682 -3.08402 -10.8625
      vertex -6.92682 -3.08402 10.8625
    endloop
  endfacet
  facet normal 0.866025 0.500001 0
    outer loop
      vertex -6.92682 -3.08402 -10.8625
      vertex -6.13425 -4.45679 10.8625
      vertex -6.13425 -4.45679 -10.8625
    endloop
  endfacet
  facet normal 0.743145 0.66913 0
    outer loop
      vertex -5.07358 -5.63478 10.8625
      vertex -6.13425 -4.45679 -10.8625
      vertex -6.13425 -4.45679 10.8625
    endloop
  endfacet
  facet normal 0.743145 0.66913 0
    outer loop
      vertex -6.13425 -4.45679 -10.8625
      vertex -5.07358 -5.63478 10.8625
      vertex -5.07358 -5.63478 -10.8625
    endloop
  endfacet
  facet normal -0.406737 0.913545 0
    outer loop
      vertex 3.79117 -6.56651 -10.8625
      vertex 2.34307 -7.21124 10.8625
      vertex 3.79117 -6.56651 10.8625
    endloop
  endfacet
  facet normal -0.406737 0.913545 0
    outer loop
      vertex 2.34307 -7.21124 10.8625
      vertex 3.79117 -6.56651 -10.8625
      vertex 2.34307 -7.21124 -10.8625
    endloop
  endfacet
  facet normal 0.207911 0.978148 -0
    outer loop
      vertex -0.792571 -7.54081 -10.8625
      vertex -2.34307 -7.21124 10.8625
      vertex -0.792571 -7.54081 10.8625
    endloop
  endfacet
  facet normal 0.207911 0.978148 0
    outer loop
      vertex -2.34307 -7.21124 10.8625
      vertex -0.792571 -7.54081 -10.8625
      vertex -2.34307 -7.21124 -10.8625
    endloop
  endfacet
  facet normal 0.951057 0.309017 0
    outer loop
      vertex -6.92682 -3.08402 10.8625
      vertex -7.41666 -1.57646 -10.8625
      vertex -7.41666 -1.57646 10.8625
    endloop
  endfacet
  facet normal 0.951057 0.309017 0
    outer loop
      vertex -7.41666 -1.57646 -10.8625
      vertex -6.92682 -3.08402 10.8625
      vertex -6.92682 -3.08402 -10.8625
    endloop
  endfacet
  facet normal 0.994522 0.104528 0
    outer loop
      vertex -7.41666 -1.57646 10.8625
      vertex -7.58235 0 -10.8625
      vertex -7.58235 0 10.8625
    endloop
  endfacet
  facet normal 0.994522 0.104528 0
    outer loop
      vertex -7.58235 0 -10.8625
      vertex -7.41666 -1.57646 10.8625
      vertex -7.41666 -1.57646 -10.8625
    endloop
  endfacet
  facet normal 0.406737 0.913545 -0
    outer loop
      vertex -2.34307 -7.21124 -10.8625
      vertex -3.79117 -6.56651 10.8625
      vertex -2.34307 -7.21124 10.8625
    endloop
  endfacet
  facet normal 0.406737 0.913545 0
    outer loop
      vertex -3.79117 -6.56651 10.8625
      vertex -2.34307 -7.21124 -10.8625
      vertex -3.79117 -6.56651 -10.8625
    endloop
  endfacet
  facet normal -0.92388 -0.382683 0
    outer loop
      vertex 2.5 23.8125 -10.8625
      vertex 1.76777 25.5803 10.8625
      vertex 1.76777 25.5803 -10.8625
    endloop
  endfacet
  facet normal -0.92388 -0.382683 0
    outer loop
      vertex 1.76777 25.5803 10.8625
      vertex 2.5 23.8125 -10.8625
      vertex 2.5 23.8125 10.8625
    endloop
  endfacet
  facet normal 0.382683 -0.92388 0
    outer loop
      vertex -1.76777 25.5803 -10.8625
      vertex 0 26.3125 10.8625
      vertex -1.76777 25.5803 10.8625
    endloop
  endfacet
  facet normal 0.382683 -0.92388 0
    outer loop
      vertex 0 26.3125 10.8625
      vertex -1.76777 25.5803 -10.8625
      vertex 0 26.3125 -10.8625
    endloop
  endfacet
  facet normal -0.382683 -0.92388 0
    outer loop
      vertex 0 26.3125 -10.8625
      vertex 1.76777 25.5803 10.8625
      vertex 0 26.3125 10.8625
    endloop
  endfacet
  facet normal -0.382683 -0.92388 -0
    outer loop
      vertex 1.76777 25.5803 10.8625
      vertex 0 26.3125 -10.8625
      vertex 1.76777 25.5803 -10.8625
    endloop
  endfacet
  facet normal 0.92388 -0.382683 0
    outer loop
      vertex -2.5 23.8125 10.8625
      vertex -1.76777 25.5803 -10.8625
      vertex -1.76777 25.5803 10.8625
    endloop
  endfacet
  facet normal 0.92388 -0.382683 0
    outer loop
      vertex -1.76777 25.5803 -10.8625
      vertex -2.5 23.8125 10.8625
      vertex -2.5 23.8125 -10.8625
    endloop
  endfacet
  facet normal -0.92388 0.382683 0
    outer loop
      vertex 1.76777 22.0447 -10.8625
      vertex 2.5 23.8125 10.8625
      vertex 2.5 23.8125 -10.8625
    endloop
  endfacet
  facet normal -0.92388 0.382683 0
    outer loop
      vertex 2.5 23.8125 10.8625
      vertex 1.76777 22.0447 -10.8625
      vertex 1.76777 22.0447 10.8625
    endloop
  endfacet
  facet normal 0.382683 0.92388 -0
    outer loop
      vertex 0 21.3125 -10.8625
      vertex -1.76777 22.0447 10.8625
      vertex 0 21.3125 10.8625
    endloop
  endfacet
  facet normal 0.382683 0.92388 0
    outer loop
      vertex -1.76777 22.0447 10.8625
      vertex 0 21.3125 -10.8625
      vertex -1.76777 22.0447 -10.8625
    endloop
  endfacet
  facet normal 0.92388 0.382683 0
    outer loop
      vertex -1.76777 22.0447 10.8625
      vertex -2.5 23.8125 -10.8625
      vertex -2.5 23.8125 10.8625
    endloop
  endfacet
  facet normal 0.92388 0.382683 0
    outer loop
      vertex -2.5 23.8125 -10.8625
      vertex -1.76777 22.0447 10.8625
      vertex -1.76777 22.0447 -10.8625
    endloop
  endfacet
  facet normal -0.382683 0.92388 0
    outer loop
      vertex 1.76777 22.0447 -10.8625
      vertex 0 21.3125 10.8625
      vertex 1.76777 22.0447 10.8625
    endloop
  endfacet
  facet normal -0.382683 0.92388 0
    outer loop
      vertex 0 21.3125 10.8625
      vertex 1.76777 22.0447 -10.8625
      vertex 0 21.3125 -10.8625
    endloop
  endfacet
  facet normal -0.92388 -0.382683 0
    outer loop
      vertex 2.5 -23.8125 -10.8625
      vertex 1.76777 -22.0447 10.8625
      vertex 1.76777 -22.0447 -10.8625
    endloop
  endfacet
  facet normal -0.92388 -0.382683 0
    outer loop
      vertex 1.76777 -22.0447 10.8625
      vertex 2.5 -23.8125 -10.8625
      vertex 2.5 -23.8125 10.8625
    endloop
  endfacet
  facet normal 0.92388 -0.382683 0
    outer loop
      vertex -2.5 -23.8125 10.8625
      vertex -1.76777 -22.0447 -10.8625
      vertex -1.76777 -22.0447 10.8625
    endloop
  endfacet
  facet normal 0.92388 -0.382683 0
    outer loop
      vertex -1.76777 -22.0447 -10.8625
      vertex -2.5 -23.8125 10.8625
      vertex -2.5 -23.8125 -10.8625
    endloop
  endfacet
  facet normal -0.382683 0.92388 0
    outer loop
      vertex 1.76777 -25.5803 -10.8625
      vertex 0 -26.3125 10.8625
      vertex 1.76777 -25.5803 10.8625
    endloop
  endfacet
  facet normal -0.382683 0.92388 0
    outer loop
      vertex 0 -26.3125 10.8625
      vertex 1.76777 -25.5803 -10.8625
      vertex 0 -26.3125 -10.8625
    endloop
  endfacet
  facet normal 0.382683 -0.92388 0
    outer loop
      vertex -1.76777 -22.0447 -10.8625
      vertex 0 -21.3125 10.8625
      vertex -1.76777 -22.0447 10.8625
    endloop
  endfacet
  facet normal 0.382683 -0.92388 0
    outer loop
      vertex 0 -21.3125 10.8625
      vertex -1.76777 -22.0447 -10.8625
      vertex 0 -21.3125 -10.8625
    endloop
  endfacet
  facet normal -0.382683 -0.92388 0
    outer loop
      vertex 0 -21.3125 -10.8625
      vertex 1.76777 -22.0447 10.8625
      vertex 0 -21.3125 10.8625
    endloop
  endfacet
  facet normal -0.382683 -0.92388 -0
    outer loop
      vertex 1.76777 -22.0447 10.8625
      vertex 0 -21.3125 -10.8625
      vertex 1.76777 -22.0447 -10.8625
    endloop
  endfacet
  facet normal -0.92388 0.382683 0
    outer loop
      vertex 1.76777 -25.5803 -10.8625
      vertex 2.5 -23.8125 10.8625
      vertex 2.5 -23.8125 -10.8625
    endloop
  endfacet
  facet normal -0.92388 0.382683 0
    outer loop
      vertex 2.5 -23.8125 10.8625
      vertex 1.76777 -25.5803 -10.8625
      vertex 1.76777 -25.5803 10.8625
    endloop
  endfacet
  facet normal 0.382683 0.92388 -0
    outer loop
      vertex 0 -26.3125 -10.8625
      vertex -1.76777 -25.5803 10.8625
      vertex 0 -26.3125 10.8625
    endloop
  endfacet
  facet normal 0.382683 0.92388 0
    outer loop
      vertex -1.76777 -25.5803 10.8625
      vertex 0 -26.3125 -10.8625
      vertex -1.76777 -25.5803 -10.8625
    endloop
  endfacet
  facet normal 0.92388 0.382683 0
    outer loop
      vertex -1.76777 -25.5803 10.8625
      vertex -2.5 -23.8125 -10.8625
      vertex -2.5 -23.8125 10.8625
    endloop
  endfacet
  facet normal 0.92388 0.382683 0
    outer loop
      vertex -2.5 -23.8125 -10.8625
      vertex -1.76777 -25.5803 10.8625
      vertex -1.76777 -25.5803 -10.8625
    endloop
  endfacet
endsolid OpenSCAD_Model
