solid OpenSCAD_Model
  facet normal -1 0 0
    outer loop
      vertex -10.8625 -38.1 -10.8625
      vertex -10.8625 38.1 10.8625
      vertex -10.8625 38.1 -10.8625
    endloop
  endfacet
  facet normal -1 -0 0
    outer loop
      vertex -10.8625 38.1 10.8625
      vertex -10.8625 -38.1 -10.8625
      vertex -10.8625 -38.1 10.8625
    endloop
  endfacet
  facet normal 0 0 1
    outer loop
      vertex 3.79117 -6.56651 10.8625
      vertex 1.76777 -22.0447 10.8625
      vertex 2.5 -23.8125 10.8625
    endloop
  endfacet
  facet normal 0 0 1
    outer loop
      vertex 3.79117 -6.56651 10.8625
      vertex 0 -21.3125 10.8625
      vertex 1.76777 -22.0447 10.8625
    endloop
  endfacet
  facet normal -0 0 1
    outer loop
      vertex -3.79117 -6.56651 10.8625
      vertex 0 -21.3125 10.8625
      vertex 3.79117 -6.56651 10.8625
    endloop
  endfacet
  facet normal 0 0 1
    outer loop
      vertex 0 -21.3125 10.8625
      vertex -3.79117 -6.56651 10.8625
      vertex -1.76777 -22.0447 10.8625
    endloop
  endfacet
  facet normal 0 0 1
    outer loop
      vertex -1.76777 -22.0447 10.8625
      vertex -3.79117 -6.56651 10.8625
      vertex -2.5 -23.8125 10.8625
    endloop
  endfacet
  facet normal 0 0 1
    outer loop
      vertex 10.8625 38.1 10.8625
      vertex 7.58235 0 10.8625
      vertex 10.8625 -38.1 10.8625
    endloop
  endfacet
  facet normal 0 0 1
    outer loop
      vertex 10.8625 38.1 10.8625
      vertex 3.79117 6.56651 10.8625
      vertex 7.58235 0 10.8625
    endloop
  endfacet
  facet normal 0 0 1
    outer loop
      vertex 10.8625 38.1 10.8625
      vertex 2.5 23.8125 10.8625
      vertex 3.79117 6.56651 10.8625
    endloop
  endfacet
  facet normal 0 0 1
    outer loop
      vertex 10.8625 38.1 10.8625
      vertex 1.76777 25.5803 10.8625
      vertex 2.5 23.8125 10.8625
    endloop
  endfacet
  facet normal 0 0 1
    outer loop
      vertex 10.8625 38.1 10.8625
      vertex 0 26.3125 10.8625
      vertex 1.76777 25.5803 10.8625
    endloop
  endfacet
  facet normal -0 0 1
    outer loop
      vertex -10.8625 38.1 10.8625
      vertex 0 26.3125 10.8625
      vertex 10.8625 38.1 10.8625
    endloop
  endfacet
  facet normal 0 0 1
    outer loop
      vertex -2.5 23.8125 10.8625
      vertex -7.58235 0 10.8625
      vertex -3.79117 6.56651 10.8625
    endloop
  endfacet
  facet normal 0 0 1
    outer loop
      vertex -2.5 23.8125 10.8625
      vertex -10.8625 38.1 10.8625
      vertex -7.58235 0 10.8625
    endloop
  endfacet
  facet normal 0 0 1
    outer loop
      vertex -1.76777 25.5803 10.8625
      vertex -10.8625 38.1 10.8625
      vertex -2.5 23.8125 10.8625
    endloop
  endfacet
  facet normal 0 0 1
    outer loop
      vertex 0 26.3125 10.8625
      vertex -10.8625 38.1 10.8625
      vertex -1.76777 25.5803 10.8625
    endloop
  endfacet
  facet normal -0 0 1
    outer loop
      vertex 3.79117 -6.56651 10.8625
      vertex 10.8625 -38.1 10.8625
      vertex 7.58235 0 10.8625
    endloop
  endfacet
  facet normal -0 0 1
    outer loop
      vertex 2.5 -23.8125 10.8625
      vertex 10.8625 -38.1 10.8625
      vertex 3.79117 -6.56651 10.8625
    endloop
  endfacet
  facet normal -0 0 1
    outer loop
      vertex 1.76777 -25.5803 10.8625
      vertex 10.8625 -38.1 10.8625
      vertex 2.5 -23.8125 10.8625
    endloop
  endfacet
  facet normal -0 0 1
    outer loop
      vertex 0 -26.3125 10.8625
      vertex 10.8625 -38.1 10.8625
      vertex 1.76777 -25.5803 10.8625
    endloop
  endfacet
  facet normal 0 0 1
    outer loop
      vertex -10.8625 -38.1 10.8625
      vertex 0 -26.3125 10.8625
      vertex -1.76777 -25.5803 10.8625
    endloop
  endfacet
  facet normal 0 0 1
    outer loop
      vertex -7.58235 0 10.8625
      vertex -2.5 -23.8125 10.8625
      vertex -3.79117 -6.56651 10.8625
    endloop
  endfacet
  facet normal 0 0 1
    outer loop
      vertex 0 -26.3125 10.8625
      vertex -10.8625 -38.1 10.8625
      vertex 10.8625 -38.1 10.8625
    endloop
  endfacet
  facet normal 0 0 1
    outer loop
      vertex -2.5 -23.8125 10.8625
      vertex -10.8625 -38.1 10.8625
      vertex -1.76777 -25.5803 10.8625
    endloop
  endfacet
  facet normal 0 0 1
    outer loop
      vertex -7.58235 0 10.8625
      vertex -10.8625 -38.1 10.8625
      vertex -2.5 -23.8125 10.8625
    endloop
  endfacet
  facet normal 0 0 1
    outer loop
      vertex -10.8625 -38.1 10.8625
      vertex -7.58235 0 10.8625
      vertex -10.8625 38.1 10.8625
    endloop
  endfacet
  facet normal -0 0 1
    outer loop
      vertex 1.76777 22.0447 10.8625
      vertex 3.79117 6.56651 10.8625
      vertex 2.5 23.8125 10.8625
    endloop
  endfacet
  facet normal -0 0 1
    outer loop
      vertex 0 21.3125 10.8625
      vertex 3.79117 6.56651 10.8625
      vertex 1.76777 22.0447 10.8625
    endloop
  endfacet
  facet normal 0 0 1
    outer loop
      vertex -3.79117 6.56651 10.8625
      vertex 0 21.3125 10.8625
      vertex -1.76777 22.0447 10.8625
    endloop
  endfacet
  facet normal 0 0 1
    outer loop
      vertex -3.79117 6.56651 10.8625
      vertex -1.76777 22.0447 10.8625
      vertex -2.5 23.8125 10.8625
    endloop
  endfacet
  facet normal 0 0 1
    outer loop
      vertex 0 21.3125 10.8625
      vertex -3.79117 6.56651 10.8625
      vertex 3.79117 6.56651 10.8625
    endloop
  endfacet
  facet normal 1 -0 0
    outer loop
      vertex 10.8625 -38.1 10.8625
      vertex 10.8625 38.1 -10.8625
      vertex 10.8625 38.1 10.8625
    endloop
  endfacet
  facet normal 1 0 0
    outer loop
      vertex 10.8625 38.1 -10.8625
      vertex 10.8625 -38.1 10.8625
      vertex 10.8625 -38.1 -10.8625
    endloop
  endfacet
  facet normal 0 1 -0
    outer loop
      vertex 10.8625 38.1 -10.8625
      vertex -10.8625 38.1 10.8625
      vertex 10.8625 38.1 10.8625
    endloop
  endfacet
  facet normal 0 1 0
    outer loop
      vertex -10.8625 38.1 10.8625
      vertex 10.8625 38.1 -10.8625
      vertex -10.8625 38.1 -10.8625
    endloop
  endfacet
  facet normal 0 0 -1
    outer loop
      vertex 3.79117 6.56651 -10.8625
      vertex 1.76777 22.0447 -10.8625
      vertex 2.5 23.8125 -10.8625
    endloop
  endfacet
  facet normal 0 0 -1
    outer loop
      vertex 3.79117 6.56651 -10.8625
      vertex 0 21.3125 -10.8625
      vertex 1.76777 22.0447 -10.8625
    endloop
  endfacet
  facet normal 0 0 -1
    outer loop
      vertex -3.79117 6.56651 -10.8625
      vertex 0 21.3125 -10.8625
      vertex 3.79117 6.56651 -10.8625
    endloop
  endfacet
  facet normal -0 0 -1
    outer loop
      vertex 0 21.3125 -10.8625
      vertex -3.79117 6.56651 -10.8625
      vertex -1.76777 22.0447 -10.8625
    endloop
  endfacet
  facet normal -0 0 -1
    outer loop
      vertex -1.76777 22.0447 -10.8625
      vertex -3.79117 6.56651 -10.8625
      vertex -2.5 23.8125 -10.8625
    endloop
  endfacet
  facet normal 0 0 -1
    outer loop
      vertex 10.8625 -38.1 -10.8625
      vertex 7.58235 0 -10.8625
      vertex 10.8625 38.1 -10.8625
    endloop
  endfacet
  facet normal 0 0 -1
    outer loop
      vertex 10.8625 -38.1 -10.8625
      vertex 3.79117 -6.56651 -10.8625
      vertex 7.58235 0 -10.8625
    endloop
  endfacet
  facet normal 0 0 -1
    outer loop
      vertex 10.8625 -38.1 -10.8625
      vertex 2.5 -23.8125 -10.8625
      vertex 3.79117 -6.56651 -10.8625
    endloop
  endfacet
  facet normal 0 0 -1
    outer loop
      vertex 10.8625 -38.1 -10.8625
      vertex 1.76777 -25.5803 -10.8625
      vertex 2.5 -23.8125 -10.8625
    endloop
  endfacet
  facet normal 0 0 -1
    outer loop
      vertex 10.8625 -38.1 -10.8625
      vertex 0 -26.3125 -10.8625
      vertex 1.76777 -25.5803 -10.8625
    endloop
  endfacet
  facet normal 0 0 -1
    outer loop
      vertex -10.8625 -38.1 -10.8625
      vertex 0 -26.3125 -10.8625
      vertex 10.8625 -38.1 -10.8625
    endloop
  endfacet
  facet normal 0 0 -1
    outer loop
      vertex -2.5 -23.8125 -10.8625
      vertex -7.58235 0 -10.8625
      vertex -3.79117 -6.56651 -10.8625
    endloop
  endfacet
  facet normal -0 0 -1
    outer loop
      vertex -2.5 -23.8125 -10.8625
      vertex -10.8625 -38.1 -10.8625
      vertex -7.58235 0 -10.8625
    endloop
  endfacet
  facet normal -0 0 -1
    outer loop
      vertex -1.76777 -25.5803 -10.8625
      vertex -10.8625 -38.1 -10.8625
      vertex -2.5 -23.8125 -10.8625
    endloop
  endfacet
  facet normal -0 0 -1
    outer loop
      vertex 0 -26.3125 -10.8625
      vertex -10.8625 -38.1 -10.8625
      vertex -1.76777 -25.5803 -10.8625
    endloop
  endfacet
  facet normal 0 0 -1
    outer loop
      vertex 3.79117 6.56651 -10.8625
      vertex 10.8625 38.1 -10.8625
      vertex 7.58235 0 -10.8625
    endloop
  endfacet
  facet normal 0 0 -1
    outer loop
      vertex 2.5 23.8125 -10.8625
      vertex 10.8625 38.1 -10.8625
      vertex 3.79117 6.56651 -10.8625
    endloop
  endfacet
  facet normal 0 0 -1
    outer loop
      vertex 1.76777 25.5803 -10.8625
      vertex 10.8625 38.1 -10.8625
      vertex 2.5 23.8125 -10.8625
    endloop
  endfacet
  facet normal 0 0 -1
    outer loop
      vertex 0 26.3125 -10.8625
      vertex 10.8625 38.1 -10.8625
      vertex 1.76777 25.5803 -10.8625
    endloop
  endfacet
  facet normal 0 0 -1
    outer loop
      vertex -10.8625 38.1 -10.8625
      vertex 0 26.3125 -10.8625
      vertex -1.76777 25.5803 -10.8625
    endloop
  endfacet
  facet normal 0 0 -1
    outer loop
      vertex -7.58235 0 -10.8625
      vertex -2.5 23.8125 -10.8625
      vertex -3.79117 6.56651 -10.8625
    endloop
  endfacet
  facet normal 0 0 -1
    outer loop
      vertex 0 26.3125 -10.8625
      vertex -10.8625 38.1 -10.8625
      vertex 10.8625 38.1 -10.8625
    endloop
  endfacet
  facet normal 0 0 -1
    outer loop
      vertex -2.5 23.8125 -10.8625
      vertex -10.8625 38.1 -10.8625
      vertex -1.76777 25.5803 -10.8625
    endloop
  endfacet
  facet normal 0 0 -1
    outer loop
      vertex -7.58235 0 -10.8625
      vertex -10.8625 38.1 -10.8625
      vertex -2.5 23.8125 -10.8625
    endloop
  endfacet
  facet normal 0 0 -1
    outer loop
      vertex -10.8625 38.1 -10.8625
      vertex -7.58235 0 -10.8625
      vertex -10.8625 -38.1 -10.8625
    endloop
  endfacet
  facet normal 0 0 -1
    outer loop
      vertex 1.76777 -22.0447 -10.8625
      vertex 3.79117 -6.56651 -10.8625
      vertex 2.5 -23.8125 -10.8625
    endloop
  endfacet
  facet normal 0 0 -1
    outer loop
      vertex 0 -21.3125 -10.8625
      vertex 3.79117 -6.56651 -10.8625
      vertex 1.76777 -22.0447 -10.8625
    endloop
  endfacet
  facet normal 0 0 -1
    outer loop
      vertex -3.79117 -6.56651 -10.8625
      vertex 0 -21.3125 -10.8625
      vertex -1.76777 -22.0447 -10.8625
    endloop
  endfacet
  facet normal 0 0 -1
    outer loop
      vertex -3.79117 -6.56651 -10.8625
      vertex -1.76777 -22.0447 -10.8625
      vertex -2.5 -23.8125 -10.8625
    endloop
  endfacet
  facet normal 0 0 -1
    outer loop
      vertex 0 -21.3125 -10.8625
      vertex -3.79117 -6.56651 -10.8625
      vertex 3.79117 -6.56651 -10.8625
    endloop
  endfacet
  facet normal 0 -1 0
    outer loop
      vertex -10.8625 -38.1 -10.8625
      vertex 10.8625 -38.1 10.8625
      vertex -10.8625 -38.1 10.8625
    endloop
  endfacet
  facet normal 0 -1 -0
    outer loop
      vertex 10.8625 -38.1 10.8625
      vertex -10.8625 -38.1 -10.8625
      vertex 10.8625 -38.1 -10.8625
    endloop
  endfacet
  facet normal -0.866025 -0.5 0
    outer loop
      vertex 7.58235 0 -10.8625
      vertex 3.79117 6.56651 10.8625
      vertex 3.79117 6.56651 -10.8625
    endloop
  endfacet
  facet normal -0.866025 -0.5 0
    outer loop
      vertex 3.79117 6.56651 10.8625
      vertex 7.58235 0 -10.8625
      vertex 7.58235 0 10.8625
    endloop
  endfacet
  facet normal 0.866025 -0.5 0
    outer loop
      vertex -7.58235 0 10.8625
      vertex -3.79117 6.56651 -10.8625
      vertex -3.79117 6.56651 10.8625
    endloop
  endfacet
  facet normal 0.866025 -0.5 0
    outer loop
      vertex -3.79117 6.56651 -10.8625
      vertex -7.58235 0 10.8625
      vertex -7.58235 0 -10.8625
    endloop
  endfacet
  facet normal 0 -1 0
    outer loop
      vertex -3.79117 6.56651 -10.8625
      vertex 3.79117 6.56651 10.8625
      vertex -3.79117 6.56651 10.8625
    endloop
  endfacet
  facet normal 0 -1 -0
    outer loop
      vertex 3.79117 6.56651 10.8625
      vertex -3.79117 6.56651 -10.8625
      vertex 3.79117 6.56651 -10.8625
    endloop
  endfacet
  facet normal 0.866025 0.5 0
    outer loop
      vertex -3.79117 -6.56651 10.8625
      vertex -7.58235 0 -10.8625
      vertex -7.58235 0 10.8625
    endloop
  endfacet
  facet normal 0.866025 0.5 0
    outer loop
      vertex -7.58235 0 -10.8625
      vertex -3.79117 -6.56651 10.8625
      vertex -3.79117 -6.56651 -10.8625
    endloop
  endfacet
  facet normal 0 1 -0
    outer loop
      vertex 3.79117 -6.56651 -10.8625
      vertex -3.79117 -6.56651 10.8625
      vertex 3.79117 -6.56651 10.8625
    endloop
  endfacet
  facet normal 0 1 0
    outer loop
      vertex -3.79117 -6.56651 10.8625
      vertex 3.79117 -6.56651 -10.8625
      vertex -3.79117 -6.56651 -10.8625
    endloop
  endfacet
  facet normal -0.866025 0.5 0
    outer loop
      vertex 3.79117 -6.56651 -10.8625
      vertex 7.58235 0 10.8625
      vertex 7.58235 0 -10.8625
    endloop
  endfacet
  facet normal -0.866025 0.5 0
    outer loop
      vertex 7.58235 0 10.8625
      vertex 3.79117 -6.56651 -10.8625
      vertex 3.79117 -6.56651 10.8625
    endloop
  endfacet
  facet normal -0.92388 -0.382683 0
    outer loop
      vertex 2.5 23.8125 -10.8625
      vertex 1.76777 25.5803 10.8625
      vertex 1.76777 25.5803 -10.8625
    endloop
  endfacet
  facet normal -0.92388 -0.382683 0
    outer loop
      vertex 1.76777 25.5803 10.8625
      vertex 2.5 23.8125 -10.8625
      vertex 2.5 23.8125 10.8625
    endloop
  endfacet
  facet normal 0.382683 -0.92388 0
    outer loop
      vertex -1.76777 25.5803 -10.8625
      vertex 0 26.3125 10.8625
      vertex -1.76777 25.5803 10.8625
    endloop
  endfacet
  facet normal 0.382683 -0.92388 0
    outer loop
      vertex 0 26.3125 10.8625
      vertex -1.76777 25.5803 -10.8625
      vertex 0 26.3125 -10.8625
    endloop
  endfacet
  facet normal -0.382683 -0.92388 0
    outer loop
      vertex 0 26.3125 -10.8625
      vertex 1.76777 25.5803 10.8625
      vertex 0 26.3125 10.8625
    endloop
  endfacet
  facet normal -0.382683 -0.92388 -0
    outer loop
      vertex 1.76777 25.5803 10.8625
      vertex 0 26.3125 -10.8625
      vertex 1.76777 25.5803 -10.8625
    endloop
  endfacet
  facet normal 0.92388 -0.382683 0
    outer loop
      vertex -2.5 23.8125 10.8625
      vertex -1.76777 25.5803 -10.8625
      vertex -1.76777 25.5803 10.8625
    endloop
  endfacet
  facet normal 0.92388 -0.382683 0
    outer loop
      vertex -1.76777 25.5803 -10.8625
      vertex -2.5 23.8125 10.8625
      vertex -2.5 23.8125 -10.8625
    endloop
  endfacet
  facet normal -0.92388 0.382683 0
    outer loop
      vertex 1.76777 22.0447 -10.8625
      vertex 2.5 23.8125 10.8625
      vertex 2.5 23.8125 -10.8625
    endloop
  endfacet
  facet normal -0.92388 0.382683 0
    outer loop
      vertex 2.5 23.8125 10.8625
      vertex 1.76777 22.0447 -10.8625
      vertex 1.76777 22.0447 10.8625
    endloop
  endfacet
  facet normal 0.382683 0.92388 -0
    outer loop
      vertex 0 21.3125 -10.8625
      vertex -1.76777 22.0447 10.8625
      vertex 0 21.3125 10.8625
    endloop
  endfacet
  facet normal 0.382683 0.92388 0
    outer loop
      vertex -1.76777 22.0447 10.8625
      vertex 0 21.3125 -10.8625
      vertex -1.76777 22.0447 -10.8625
    endloop
  endfacet
  facet normal 0.92388 0.382683 0
    outer loop
      vertex -1.76777 22.0447 10.8625
      vertex -2.5 23.8125 -10.8625
      vertex -2.5 23.8125 10.8625
    endloop
  endfacet
  facet normal 0.92388 0.382683 0
    outer loop
      vertex -2.5 23.8125 -10.8625
      vertex -1.76777 22.0447 10.8625
      vertex -1.76777 22.0447 -10.8625
    endloop
  endfacet
  facet normal -0.382683 0.92388 0
    outer loop
      vertex 1.76777 22.0447 -10.8625
      vertex 0 21.3125 10.8625
      vertex 1.76777 22.0447 10.8625
    endloop
  endfacet
  facet normal -0.382683 0.92388 0
    outer loop
      vertex 0 21.3125 10.8625
      vertex 1.76777 22.0447 -10.8625
      vertex 0 21.3125 -10.8625
    endloop
  endfacet
  facet normal -0.92388 -0.382683 0
    outer loop
      vertex 2.5 -23.8125 -10.8625
      vertex 1.76777 -22.0447 10.8625
      vertex 1.76777 -22.0447 -10.8625
    endloop
  endfacet
  facet normal -0.92388 -0.382683 0
    outer loop
      vertex 1.76777 -22.0447 10.8625
      vertex 2.5 -23.8125 -10.8625
      vertex 2.5 -23.8125 10.8625
    endloop
  endfacet
  facet normal 0.92388 -0.382683 0
    outer loop
      vertex -2.5 -23.8125 10.8625
      vertex -1.76777 -22.0447 -10.8625
      vertex -1.76777 -22.0447 10.8625
    endloop
  endfacet
  facet normal 0.92388 -0.382683 0
    outer loop
      vertex -1.76777 -22.0447 -10.8625
      vertex -2.5 -23.8125 10.8625
      vertex -2.5 -23.8125 -10.8625
    endloop
  endfacet
  facet normal -0.382683 0.92388 0
    outer loop
      vertex 1.76777 -25.5803 -10.8625
      vertex 0 -26.3125 10.8625
      vertex 1.76777 -25.5803 10.8625
    endloop
  endfacet
  facet normal -0.382683 0.92388 0
    outer loop
      vertex 0 -26.3125 10.8625
      vertex 1.76777 -25.5803 -10.8625
      vertex 0 -26.3125 -10.8625
    endloop
  endfacet
  facet normal 0.382683 -0.92388 0
    outer loop
      vertex -1.76777 -22.0447 -10.8625
      vertex 0 -21.3125 10.8625
      vertex -1.76777 -22.0447 10.8625
    endloop
  endfacet
  facet normal 0.382683 -0.92388 0
    outer loop
      vertex 0 -21.3125 10.8625
      vertex -1.76777 -22.0447 -10.8625
      vertex 0 -21.3125 -10.8625
    endloop
  endfacet
  facet normal -0.382683 -0.92388 0
    outer loop
      vertex 0 -21.3125 -10.8625
      vertex 1.76777 -22.0447 10.8625
      vertex 0 -21.3125 10.8625
    endloop
  endfacet
  facet normal -0.382683 -0.92388 -0
    outer loop
      vertex 1.76777 -22.0447 10.8625
      vertex 0 -21.3125 -10.8625
      vertex 1.76777 -22.0447 -10.8625
    endloop
  endfacet
  facet normal -0.92388 0.382683 0
    outer loop
      vertex 1.76777 -25.5803 -10.8625
      vertex 2.5 -23.8125 10.8625
      vertex 2.5 -23.8125 -10.8625
    endloop
  endfacet
  facet normal -0.92388 0.382683 0
    outer loop
      vertex 2.5 -23.8125 10.8625
      vertex 1.76777 -25.5803 -10.8625
      vertex 1.76777 -25.5803 10.8625
    endloop
  endfacet
  facet normal 0.382683 0.92388 -0
    outer loop
      vertex 0 -26.3125 -10.8625
      vertex -1.76777 -25.5803 10.8625
      vertex 0 -26.3125 10.8625
    endloop
  endfacet
  facet normal 0.382683 0.92388 0
    outer loop
      vertex -1.76777 -25.5803 10.8625
      vertex 0 -26.3125 -10.8625
      vertex -1.76777 -25.5803 -10.8625
    endloop
  endfacet
  facet normal 0.92388 0.382683 0
    outer loop
      vertex -1.76777 -25.5803 10.8625
      vertex -2.5 -23.8125 -10.8625
      vertex -2.5 -23.8125 10.8625
    endloop
  endfacet
  facet normal 0.92388 0.382683 0
    outer loop
      vertex -2.5 -23.8125 -10.8625
      vertex -1.76777 -25.5803 10.8625
      vertex -1.76777 -25.5803 -10.8625
    endloop
  endfacet
endsolid OpenSCAD_Model
