solid OpenSCAD_Model
  facet normal -1 0 0
    outer loop
      vertex -3.175 -11.1125 -3.175
      vertex -3.175 -8.33437 3.175
      vertex -3.175 -8.33437 -3.175
    endloop
  endfacet
  facet normal -1 -0 0
    outer loop
      vertex -3.175 -8.33437 3.175
      vertex -3.175 -11.1125 -3.175
      vertex -3.175 -11.1125 3.175
    endloop
  endfacet
  facet normal 0 0 1
    outer loop
      vertex -3.175 -11.1125 3.175
      vertex -4.7625 -11.1125 3.175
      vertex -3.175 -12.7 3.175
    endloop
  endfacet
  facet normal -0 0 1
    outer loop
      vertex 0.79375 -9.525 3.175
      vertex 3.175 -11.1125 3.175
      vertex 3.175 -8.33437 3.175
    endloop
  endfacet
  facet normal 0 -0 1
    outer loop
      vertex 3.17499 -12.7 3.175
      vertex 3.175 -11.1125 3.175
      vertex 0.79375 -9.525 3.175
    endloop
  endfacet
  facet normal 0 0 1
    outer loop
      vertex 3.175 -11.1125 3.175
      vertex 3.17499 -12.7 3.175
      vertex 3.175 -12.7 3.175
    endloop
  endfacet
  facet normal 0 0 1
    outer loop
      vertex 3.175 -8.33437 3.175
      vertex -0.79375 -9.525 3.175
      vertex 0.79375 -9.525 3.175
    endloop
  endfacet
  facet normal 0 0 1
    outer loop
      vertex -0.79375 -9.525 3.175
      vertex -3.17499 -12.7 3.175
      vertex -0.79375 -15.0812 3.175
    endloop
  endfacet
  facet normal -0 0 1
    outer loop
      vertex -3.175 -8.33437 3.175
      vertex -0.79375 -9.525 3.175
      vertex 3.175 -8.33437 3.175
    endloop
  endfacet
  facet normal 0 0 1
    outer loop
      vertex -3.175 -11.1125 3.175
      vertex -0.79375 -9.525 3.175
      vertex -3.175 -8.33437 3.175
    endloop
  endfacet
  facet normal 0 0 1
    outer loop
      vertex -0.79375 -9.525 3.175
      vertex -3.175 -11.1125 3.175
      vertex -3.17499 -12.7 3.175
    endloop
  endfacet
  facet normal -0 0 1
    outer loop
      vertex -3.175 -12.7 3.175
      vertex -3.17499 -12.7 3.175
      vertex -3.175 -11.1125 3.175
    endloop
  endfacet
  facet normal 0 0 1
    outer loop
      vertex 4.7625 -11.1125 3.175
      vertex 3.175 -11.1125 3.175
      vertex 3.175 -12.7 3.175
    endloop
  endfacet
  facet normal 0 0 1
    outer loop
      vertex 3.17499 -12.7 3.175
      vertex 0.79375 -9.525 3.175
      vertex 0.79375 -15.0812 3.175
    endloop
  endfacet
  facet normal 1 -0 0
    outer loop
      vertex 3.175 -11.1125 3.175
      vertex 3.175 -8.33437 -3.175
      vertex 3.175 -8.33437 3.175
    endloop
  endfacet
  facet normal 1 0 0
    outer loop
      vertex 3.175 -8.33437 -3.175
      vertex 3.175 -11.1125 3.175
      vertex 3.175 -11.1125 -3.175
    endloop
  endfacet
  facet normal 0 0 -1
    outer loop
      vertex -0.79375 -15.0812 -3.175
      vertex -3.17499 -12.7 -3.175
      vertex -0.79375 -9.525 -3.175
    endloop
  endfacet
  facet normal -0 0 -1
    outer loop
      vertex 3.175 -12.7 -3.175
      vertex 3.17499 -12.7 -3.175
      vertex 3.175 -11.1125 -3.175
    endloop
  endfacet
  facet normal 0 0 -1
    outer loop
      vertex 0.79375 -9.525 -3.175
      vertex 3.175 -11.1125 -3.175
      vertex 3.17499 -12.7 -3.175
    endloop
  endfacet
  facet normal 0 0 -1
    outer loop
      vertex 0.79375 -9.525 -3.175
      vertex 3.17499 -12.7 -3.175
      vertex 0.79375 -15.0812 -3.175
    endloop
  endfacet
  facet normal 0 0 -1
    outer loop
      vertex 3.175 -11.1125 -3.175
      vertex 0.79375 -9.525 -3.175
      vertex 3.175 -8.33437 -3.175
    endloop
  endfacet
  facet normal 0 0 -1
    outer loop
      vertex -0.79375 -9.525 -3.175
      vertex 3.175 -8.33437 -3.175
      vertex 0.79375 -9.525 -3.175
    endloop
  endfacet
  facet normal 0 0 -1
    outer loop
      vertex -3.175 -11.1125 -3.175
      vertex -3.17499 -12.7 -3.175
      vertex -3.175 -12.7 -3.175
    endloop
  endfacet
  facet normal 0 0 -1
    outer loop
      vertex -3.17499 -12.7 -3.175
      vertex -3.175 -11.1125 -3.175
      vertex -0.79375 -9.525 -3.175
    endloop
  endfacet
  facet normal 0 0 -1
    outer loop
      vertex -0.79375 -9.525 -3.175
      vertex -3.175 -8.33437 -3.175
      vertex 3.175 -8.33437 -3.175
    endloop
  endfacet
  facet normal 0 0 -1
    outer loop
      vertex -3.175 -8.33437 -3.175
      vertex -0.79375 -9.525 -3.175
      vertex -3.175 -11.1125 -3.175
    endloop
  endfacet
  facet normal -0 0 -1
    outer loop
      vertex 4.7625 -11.1125 -3.175
      vertex 3.175 -12.7 -3.175
      vertex 3.175 -11.1125 -3.175
    endloop
  endfacet
  facet normal 0 0 -1
    outer loop
      vertex -3.175 -12.7 -3.175
      vertex -4.7625 -11.1125 -3.175
      vertex -3.175 -11.1125 -3.175
    endloop
  endfacet
  facet normal 0 -1 0
    outer loop
      vertex -3.175 -12.7 -3.175
      vertex -3.17499 -12.7 3.175
      vertex -3.175 -12.7 3.175
    endloop
  endfacet
  facet normal 0 -1 -0
    outer loop
      vertex -3.17499 -12.7 3.175
      vertex -3.175 -12.7 -3.175
      vertex -3.17499 -12.7 -3.175
    endloop
  endfacet
  facet normal 0 -1 0
    outer loop
      vertex 3.17499 -12.7 -3.175
      vertex 3.175 -12.7 3.175
      vertex 3.17499 -12.7 3.175
    endloop
  endfacet
  facet normal 0 -1 -0
    outer loop
      vertex 3.175 -12.7 3.175
      vertex 3.17499 -12.7 -3.175
      vertex 3.175 -12.7 -3.175
    endloop
  endfacet
  facet normal -0.707107 -0.707107 0
    outer loop
      vertex -3.175 -12.7 -3.175
      vertex -4.7625 -11.1125 3.175
      vertex -4.7625 -11.1125 -3.175
    endloop
  endfacet
  facet normal -0.707107 -0.707107 0
    outer loop
      vertex -4.7625 -11.1125 3.175
      vertex -3.175 -12.7 -3.175
      vertex -3.175 -12.7 3.175
    endloop
  endfacet
  facet normal -0.707107 -0.707107 0
    outer loop
      vertex -0.79375 -15.0812 -3.175
      vertex -3.17499 -12.7 3.175
      vertex -3.17499 -12.7 -3.175
    endloop
  endfacet
  facet normal -0.707107 -0.707107 0
    outer loop
      vertex -3.17499 -12.7 3.175
      vertex -0.79375 -15.0812 -3.175
      vertex -0.79375 -15.0812 3.175
    endloop
  endfacet
  facet normal 0.707107 -0.707107 0
    outer loop
      vertex 3.175 -12.7 3.175
      vertex 4.7625 -11.1125 -3.175
      vertex 4.7625 -11.1125 3.175
    endloop
  endfacet
  facet normal 0.707107 -0.707107 0
    outer loop
      vertex 4.7625 -11.1125 -3.175
      vertex 3.175 -12.7 3.175
      vertex 3.175 -12.7 -3.175
    endloop
  endfacet
  facet normal 0.707107 -0.707107 0
    outer loop
      vertex 0.79375 -15.0812 3.175
      vertex 3.17499 -12.7 -3.175
      vertex 3.17499 -12.7 3.175
    endloop
  endfacet
  facet normal 0.707107 -0.707107 0
    outer loop
      vertex 3.17499 -12.7 -3.175
      vertex 0.79375 -15.0812 3.175
      vertex 0.79375 -15.0812 -3.175
    endloop
  endfacet
  facet normal 0 1 -0
    outer loop
      vertex -3.175 -11.1125 -3.175
      vertex -4.7625 -11.1125 3.175
      vertex -3.175 -11.1125 3.175
    endloop
  endfacet
  facet normal 0 1 0
    outer loop
      vertex -4.7625 -11.1125 3.175
      vertex -3.175 -11.1125 -3.175
      vertex -4.7625 -11.1125 -3.175
    endloop
  endfacet
  facet normal 0 1 -0
    outer loop
      vertex 4.7625 -11.1125 -3.175
      vertex 3.175 -11.1125 3.175
      vertex 4.7625 -11.1125 3.175
    endloop
  endfacet
  facet normal 0 1 0
    outer loop
      vertex 3.175 -11.1125 3.175
      vertex 4.7625 -11.1125 -3.175
      vertex 3.175 -11.1125 -3.175
    endloop
  endfacet
  facet normal 1 -0 0
    outer loop
      vertex -0.79375 -15.0812 3.175
      vertex -0.79375 -9.525 -3.175
      vertex -0.79375 -9.525 3.175
    endloop
  endfacet
  facet normal 1 0 0
    outer loop
      vertex -0.79375 -9.525 -3.175
      vertex -0.79375 -15.0812 3.175
      vertex -0.79375 -15.0812 -3.175
    endloop
  endfacet
  facet normal -1 0 0
    outer loop
      vertex 0.79375 -15.0812 -3.175
      vertex 0.79375 -9.525 3.175
      vertex 0.79375 -9.525 -3.175
    endloop
  endfacet
  facet normal -1 -0 0
    outer loop
      vertex 0.79375 -9.525 3.175
      vertex 0.79375 -15.0812 -3.175
      vertex 0.79375 -15.0812 3.175
    endloop
  endfacet
  facet normal 0 -1 0
    outer loop
      vertex -0.79375 -9.525 -3.175
      vertex 0.79375 -9.525 3.175
      vertex -0.79375 -9.525 3.175
    endloop
  endfacet
  facet normal 0 -1 -0
    outer loop
      vertex 0.79375 -9.525 3.175
      vertex -0.79375 -9.525 -3.175
      vertex 0.79375 -9.525 -3.175
    endloop
  endfacet
  facet normal -0.777146 -0.62932 0
    outer loop
      vertex -5.05139 -5.05139 -6.35
      vertex -5.99125 -3.89077 6.35
      vertex -5.99125 -3.89077 -6.35
    endloop
  endfacet
  facet normal -0.777146 -0.62932 0
    outer loop
      vertex -5.99125 -3.89077 6.35
      vertex -5.05139 -5.05139 -6.35
      vertex -5.05139 -5.05139 6.35
    endloop
  endfacet
  facet normal 0.707107 -0.707107 0
    outer loop
      vertex 4.49571 -5.55174 6.35
      vertex 5.55174 -4.49571 -6.35
      vertex 5.55174 -4.49571 6.35
    endloop
  endfacet
  facet normal 0.707107 -0.707107 0
    outer loop
      vertex 5.55174 -4.49571 -6.35
      vertex 4.49571 -5.55174 6.35
      vertex 4.49571 -5.55174 -6.35
    endloop
  endfacet
  facet normal -0.99863 -0.0523354 0
    outer loop
      vertex -7.0558 -1.11753 -6.35
      vertex -7.13396 0.373876 6.35
      vertex -7.13396 0.373876 -6.35
    endloop
  endfacet
  facet normal -0.99863 -0.0523354 0
    outer loop
      vertex -7.13396 0.373876 6.35
      vertex -7.0558 -1.11753 -6.35
      vertex -7.0558 -1.11753 6.35
    endloop
  endfacet
  facet normal -0.965926 -0.258819 0
    outer loop
      vertex -6.66926 -2.56009 -6.35
      vertex -7.0558 -1.11753 6.35
      vertex -7.0558 -1.11753 -6.35
    endloop
  endfacet
  facet normal -0.965926 -0.258819 0
    outer loop
      vertex -7.0558 -1.11753 6.35
      vertex -6.66926 -2.56009 -6.35
      vertex -6.66926 -2.56009 6.35
    endloop
  endfacet
  facet normal -0.93358 0.358368 0
    outer loop
      vertex -6.90033 1.84894 -6.35
      vertex -6.41645 3.10949 6.35
      vertex -6.41645 3.10949 -6.35
    endloop
  endfacet
  facet normal -0.93358 0.358368 0
    outer loop
      vertex -6.41645 3.10949 6.35
      vertex -6.90033 1.84894 -6.35
      vertex -6.90033 1.84894 6.35
    endloop
  endfacet
  facet normal 0.965926 0.258819 0
    outer loop
      vertex 7.0558 1.11753 6.35
      vertex 6.66926 2.56009 -6.35
      vertex 6.66926 2.56009 6.35
    endloop
  endfacet
  facet normal 0.965926 0.258819 0
    outer loop
      vertex 6.66926 2.56009 -6.35
      vertex 7.0558 1.11753 6.35
      vertex 7.0558 1.11753 -6.35
    endloop
  endfacet
  facet normal -0.891006 -0.453991 0
    outer loop
      vertex -5.99125 -3.89077 -6.35
      vertex -6.66926 -2.56009 6.35
      vertex -6.66926 -2.56009 -6.35
    endloop
  endfacet
  facet normal -0.891006 -0.453991 0
    outer loop
      vertex -6.66926 -2.56009 6.35
      vertex -5.99125 -3.89077 -6.35
      vertex -5.99125 -3.89077 6.35
    endloop
  endfacet
  facet normal 0 0 1
    outer loop
      vertex -2.69946 5.4239 6.35
      vertex -2.75128 4.43508 6.35
      vertex -2.67341 4.92677 6.35
    endloop
  endfacet
  facet normal 0 0 1
    outer loop
      vertex -3.09973 3.70848 6.35
      vertex -2.69946 5.4239 6.35
      vertex -2.82831 5.90476 6.35
    endloop
  endfacet
  facet normal 0 0 1
    outer loop
      vertex -2.69946 5.4239 6.35
      vertex -3.09973 3.70848 6.35
      vertex -2.75128 4.43508 6.35
    endloop
  endfacet
  facet normal 0 0 1
    outer loop
      vertex -3.09973 3.70848 6.35
      vertex -2.82831 5.90476 6.35
      vertex -3.05431 6.34831 6.35
    endloop
  endfacet
  facet normal 0 0 1
    outer loop
      vertex -2.75128 4.43508 6.35
      vertex -3.09973 3.70848 6.35
      vertex -2.92968 3.97033 6.35
    endloop
  endfacet
  facet normal 0 -0 1
    outer loop
      vertex -3.09973 3.70848 6.35
      vertex -3.05431 6.34831 6.35
      vertex -3.3676 6.73519 6.35
    endloop
  endfacet
  facet normal 0 0 1
    outer loop
      vertex 6.3943 3.09973 6.35
      vertex 4.70387 0.745019 6.35
      vertex 4.75597 -0.24925 6.35
    endloop
  endfacet
  facet normal 0 0 1
    outer loop
      vertex 6.3943 3.09973 6.35
      vertex 4.44618 1.70673 6.35
      vertex 4.70387 0.745019 6.35
    endloop
  endfacet
  facet normal 0 0 1
    outer loop
      vertex 3.10949 3.68633 6.35
      vertex 4.92677 7.42938 6.35
      vertex 4.43508 7.3515 6.35
    endloop
  endfacet
  facet normal 0 0 1
    outer loop
      vertex 6.3943 3.09973 6.35
      vertex 3.99417 2.59384 6.35
      vertex 4.44618 1.70673 6.35
    endloop
  endfacet
  facet normal 0 0 1
    outer loop
      vertex 3.10949 3.68633 6.35
      vertex 4.43508 7.3515 6.35
      vertex 3.97033 7.1731 6.35
    endloop
  endfacet
  facet normal 0 0 1
    outer loop
      vertex 3.10949 3.68633 6.35
      vertex 3.97033 7.1731 6.35
      vertex 3.55282 6.90197 6.35
    endloop
  endfacet
  facet normal 0 0 1
    outer loop
      vertex 6.3943 3.09973 6.35
      vertex 3.3676 3.3676 6.35
      vertex 3.99417 2.59384 6.35
    endloop
  endfacet
  facet normal 0 0 1
    outer loop
      vertex 3.10949 3.68633 6.35
      vertex 3.55282 6.90197 6.35
      vertex 3.20082 6.54996 6.35
    endloop
  endfacet
  facet normal 0 0 1
    outer loop
      vertex 6.3943 3.09973 6.35
      vertex 3.10949 3.68633 6.35
      vertex 3.3676 3.3676 6.35
    endloop
  endfacet
  facet normal 0 0 1
    outer loop
      vertex 3.3676 3.3676 6.35
      vertex 3.10949 3.68633 6.35
      vertex 3.01756 3.65105 6.35
    endloop
  endfacet
  facet normal 0 0 1
    outer loop
      vertex 7.40333 5.4239 6.35
      vertex 7.3515 4.43508 6.35
      vertex 7.42938 4.92677 6.35
    endloop
  endfacet
  facet normal 0 0 1
    outer loop
      vertex 7.27448 5.90476 6.35
      vertex 7.3515 4.43508 6.35
      vertex 7.40333 5.4239 6.35
    endloop
  endfacet
  facet normal 0 0 1
    outer loop
      vertex 7.27448 5.90476 6.35
      vertex 7.1731 3.97033 6.35
      vertex 7.3515 4.43508 6.35
    endloop
  endfacet
  facet normal 0 0 1
    outer loop
      vertex 7.04848 6.34832 6.35
      vertex 7.1731 3.97033 6.35
      vertex 7.27448 5.90476 6.35
    endloop
  endfacet
  facet normal 0 0 1
    outer loop
      vertex 6.3943 3.09973 6.35
      vertex 7.1731 3.97033 6.35
      vertex 7.04848 6.34832 6.35
    endloop
  endfacet
  facet normal 0 0 1
    outer loop
      vertex 6.3943 3.09973 6.35
      vertex 7.04848 6.34832 6.35
      vertex 6.73519 6.73519 6.35
    endloop
  endfacet
  facet normal 0 0 1
    outer loop
      vertex 7.1731 3.97033 6.35
      vertex 6.3943 3.09973 6.35
      vertex 6.90197 3.55282 6.35
    endloop
  endfacet
  facet normal 0 0 1
    outer loop
      vertex 6.90197 3.55282 6.35
      vertex 6.3943 3.09973 6.35
      vertex 6.54996 3.20082 6.35
    endloop
  endfacet
  facet normal 0 0 1
    outer loop
      vertex 6.34832 7.04848 6.35
      vertex 6.3943 3.09973 6.35
      vertex 6.73519 6.73519 6.35
    endloop
  endfacet
  facet normal 0 0 1
    outer loop
      vertex 4.92677 7.42938 6.35
      vertex 6.3943 3.09973 6.35
      vertex 6.34832 7.04848 6.35
    endloop
  endfacet
  facet normal 0 0 1
    outer loop
      vertex 4.92677 7.42938 6.35
      vertex 6.34832 7.04848 6.35
      vertex 5.90476 7.27448 6.35
    endloop
  endfacet
  facet normal 0 0 1
    outer loop
      vertex 6.3943 3.09973 6.35
      vertex 4.75597 -0.24925 6.35
      vertex 6.36513 -3.24319 6.35
    endloop
  endfacet
  facet normal 0 0 1
    outer loop
      vertex 4.92677 7.42938 6.35
      vertex 5.90476 7.27448 6.35
      vertex 5.4239 7.40333 6.35
    endloop
  endfacet
  facet normal -0 0 1
    outer loop
      vertex 3.10949 3.68633 6.35
      vertex 6.3943 3.09973 6.35
      vertex 4.92677 7.42938 6.35
    endloop
  endfacet
  facet normal -0 0 1
    outer loop
      vertex 4.60022 -1.23263 6.35
      vertex 6.36513 -3.24319 6.35
      vertex 4.75597 -0.24925 6.35
    endloop
  endfacet
  facet normal -0 0 1
    outer loop
      vertex 4.24342 -2.16213 6.35
      vertex 6.36513 -3.24319 6.35
      vertex 4.60022 -1.23263 6.35
    endloop
  endfacet
  facet normal 0 0 1
    outer loop
      vertex 6.36513 -3.24319 6.35
      vertex 4.24342 -2.16213 6.35
      vertex 5.55174 -4.49571 6.35
    endloop
  endfacet
  facet normal -0 0 1
    outer loop
      vertex 3.70116 -2.99714 6.35
      vertex 5.55174 -4.49571 6.35
      vertex 4.24342 -2.16213 6.35
    endloop
  endfacet
  facet normal 0 0 1
    outer loop
      vertex 5.55174 -4.49571 6.35
      vertex 3.70116 -2.99714 6.35
      vertex 4.49571 -5.55174 6.35
    endloop
  endfacet
  facet normal -0 0 1
    outer loop
      vertex 2.99714 -3.70116 6.35
      vertex 4.49571 -5.55174 6.35
      vertex 3.70116 -2.99714 6.35
    endloop
  endfacet
  facet normal 0 0 1
    outer loop
      vertex 6.3943 3.09973 6.35
      vertex 7.13396 -0.373876 6.35
      vertex 7.0558 1.11753 6.35
    endloop
  endfacet
  facet normal 0 0 1
    outer loop
      vertex 6.3943 3.09973 6.35
      vertex 7.0558 1.11753 6.35
      vertex 6.66926 2.56009 6.35
    endloop
  endfacet
  facet normal 0 0 1
    outer loop
      vertex 7.13396 -0.373876 6.35
      vertex 6.3943 3.09973 6.35
      vertex 6.90033 -1.84894 6.35
    endloop
  endfacet
  facet normal 0 0 1
    outer loop
      vertex 6.90033 -1.84894 6.35
      vertex 6.3943 3.09973 6.35
      vertex 6.36513 -3.24319 6.35
    endloop
  endfacet
  facet normal -0 0 1
    outer loop
      vertex 3.87762 -5.95312 6.35
      vertex 6.35 -8.33437 6.35
      vertex 6.35 -5.95312 6.35
    endloop
  endfacet
  facet normal 0 0 1
    outer loop
      vertex 4.49571 -5.55174 6.35
      vertex 2.99714 -3.70116 6.35
      vertex 3.87762 -5.95312 6.35
    endloop
  endfacet
  facet normal -0 0 1
    outer loop
      vertex 2.16213 -4.24342 6.35
      vertex 3.87762 -5.95312 6.35
      vertex 2.99714 -3.70116 6.35
    endloop
  endfacet
  facet normal -0 0 1
    outer loop
      vertex 1.23263 -4.60022 6.35
      vertex 3.87762 -5.95312 6.35
      vertex 2.16213 -4.24342 6.35
    endloop
  endfacet
  facet normal -0 0 1
    outer loop
      vertex 0.24925 -4.75597 6.35
      vertex 3.87762 -5.95312 6.35
      vertex 1.23263 -4.60022 6.35
    endloop
  endfacet
  facet normal 0 0 1
    outer loop
      vertex -3.93785 -5.95312 6.35
      vertex 3.87762 -5.95312 6.35
      vertex 0.24925 -4.75597 6.35
    endloop
  endfacet
  facet normal 0 0 1
    outer loop
      vertex -3.93785 -5.95312 6.35
      vertex 0.24925 -4.75597 6.35
      vertex -0.745019 -4.70387 6.35
    endloop
  endfacet
  facet normal 0 0 1
    outer loop
      vertex -3.93785 -5.95312 6.35
      vertex -0.745019 -4.70387 6.35
      vertex -1.70673 -4.44618 6.35
    endloop
  endfacet
  facet normal 0 0 1
    outer loop
      vertex -3.93785 -5.95312 6.35
      vertex -2.59384 -3.99417 6.35
      vertex -3.3676 -3.3676 6.35
    endloop
  endfacet
  facet normal 0 0 1
    outer loop
      vertex -3.93785 -5.95312 6.35
      vertex -1.70673 -4.44618 6.35
      vertex -2.59384 -3.99417 6.35
    endloop
  endfacet
  facet normal 0 0 1
    outer loop
      vertex -6.35 -8.33437 6.35
      vertex 3.87762 -5.95312 6.35
      vertex -3.93785 -5.95312 6.35
    endloop
  endfacet
  facet normal 0 0 1
    outer loop
      vertex -6.35 -8.33437 6.35
      vertex -3.93785 -5.95312 6.35
      vertex -6.35 -5.95312 6.35
    endloop
  endfacet
  facet normal 0 0 1
    outer loop
      vertex 3.87762 -5.95312 6.35
      vertex -6.35 -8.33437 6.35
      vertex 6.35 -8.33437 6.35
    endloop
  endfacet
  facet normal 0 0 1
    outer loop
      vertex -3.09973 3.70848 6.35
      vertex -3.70116 2.99714 6.35
      vertex -3.02691 3.67138 6.35
    endloop
  endfacet
  facet normal 0 0 1
    outer loop
      vertex -6.41645 3.10949 6.35
      vertex -3.09973 3.70848 6.35
      vertex -3.3676 6.73519 6.35
    endloop
  endfacet
  facet normal 0 0 1
    outer loop
      vertex -6.41645 3.10949 6.35
      vertex -3.3676 6.73519 6.35
      vertex -3.75447 7.04848 6.35
    endloop
  endfacet
  facet normal 0 0 1
    outer loop
      vertex -6.41645 3.10949 6.35
      vertex -3.75447 7.04848 6.35
      vertex -4.19803 7.27448 6.35
    endloop
  endfacet
  facet normal 0 0 1
    outer loop
      vertex -3.09973 3.70848 6.35
      vertex -6.41645 3.10949 6.35
      vertex -3.70116 2.99714 6.35
    endloop
  endfacet
  facet normal 0 0 1
    outer loop
      vertex -3.70116 2.99714 6.35
      vertex -6.41645 3.10949 6.35
      vertex -4.24342 2.16213 6.35
    endloop
  endfacet
  facet normal 0 0 1
    outer loop
      vertex -6.41645 3.10949 6.35
      vertex -4.19803 7.27448 6.35
      vertex -4.67888 7.40333 6.35
    endloop
  endfacet
  facet normal 0 0 1
    outer loop
      vertex -4.24342 2.16213 6.35
      vertex -6.41645 3.10949 6.35
      vertex -4.60022 1.23263 6.35
    endloop
  endfacet
  facet normal -0 0 1
    outer loop
      vertex -6.90033 1.84894 6.35
      vertex -4.60022 1.23263 6.35
      vertex -6.41645 3.10949 6.35
    endloop
  endfacet
  facet normal 0 0 1
    outer loop
      vertex -6.41645 3.10949 6.35
      vertex -4.67888 7.40333 6.35
      vertex -5.17602 7.42938 6.35
    endloop
  endfacet
  facet normal 0 0 1
    outer loop
      vertex -6.41645 3.10949 6.35
      vertex -5.17602 7.42938 6.35
      vertex -5.66771 7.3515 6.35
    endloop
  endfacet
  facet normal 0 0 1
    outer loop
      vertex -4.60022 1.23263 6.35
      vertex -6.90033 1.84894 6.35
      vertex -4.75597 0.24925 6.35
    endloop
  endfacet
  facet normal 0 0 1
    outer loop
      vertex -6.41645 3.10949 6.35
      vertex -5.66771 7.3515 6.35
      vertex -6.13246 7.1731 6.35
    endloop
  endfacet
  facet normal 0 0 1
    outer loop
      vertex -4.75597 0.24925 6.35
      vertex -5.99125 -3.89077 6.35
      vertex -5.05139 -5.05139 6.35
    endloop
  endfacet
  facet normal 0 0 1
    outer loop
      vertex -4.75597 0.24925 6.35
      vertex -6.66926 -2.56009 6.35
      vertex -5.99125 -3.89077 6.35
    endloop
  endfacet
  facet normal -0 0 1
    outer loop
      vertex -7.13396 0.373876 6.35
      vertex -4.75597 0.24925 6.35
      vertex -6.90033 1.84894 6.35
    endloop
  endfacet
  facet normal 0 0 1
    outer loop
      vertex -4.75597 0.24925 6.35
      vertex -7.0558 -1.11753 6.35
      vertex -6.66926 -2.56009 6.35
    endloop
  endfacet
  facet normal 0 0 1
    outer loop
      vertex -4.75597 0.24925 6.35
      vertex -7.13396 0.373876 6.35
      vertex -7.0558 -1.11753 6.35
    endloop
  endfacet
  facet normal -0 0 1
    outer loop
      vertex -6.54996 6.90197 6.35
      vertex -6.41645 3.10949 6.35
      vertex -6.13246 7.1731 6.35
    endloop
  endfacet
  facet normal -0 0 1
    outer loop
      vertex -6.90197 6.54996 6.35
      vertex -6.41645 3.10949 6.35
      vertex -6.54996 6.90197 6.35
    endloop
  endfacet
  facet normal -0 0 1
    outer loop
      vertex -7.04848 3.75447 6.35
      vertex -6.41645 3.10949 6.35
      vertex -6.90197 6.54996 6.35
    endloop
  endfacet
  facet normal 0 0 1
    outer loop
      vertex -6.41645 3.10949 6.35
      vertex -7.04848 3.75447 6.35
      vertex -6.73519 3.3676 6.35
    endloop
  endfacet
  facet normal -0 0 1
    outer loop
      vertex -7.1731 6.13246 6.35
      vertex -7.04848 3.75447 6.35
      vertex -6.90197 6.54996 6.35
    endloop
  endfacet
  facet normal 0 0 1
    outer loop
      vertex -7.1731 6.13246 6.35
      vertex -7.27448 4.19803 6.35
      vertex -7.04848 3.75447 6.35
    endloop
  endfacet
  facet normal -0 0 1
    outer loop
      vertex -7.3515 5.66771 6.35
      vertex -7.27448 4.19803 6.35
      vertex -7.1731 6.13246 6.35
    endloop
  endfacet
  facet normal 0 0 1
    outer loop
      vertex -7.3515 5.66771 6.35
      vertex -7.40333 4.67888 6.35
      vertex -7.27448 4.19803 6.35
    endloop
  endfacet
  facet normal 0 -0 1
    outer loop
      vertex -7.40333 4.67888 6.35
      vertex -7.3515 5.66771 6.35
      vertex -7.42938 5.17602 6.35
    endloop
  endfacet
  facet normal 0 0 1
    outer loop
      vertex -5.05139 -5.05139 6.35
      vertex -3.3676 -3.3676 6.35
      vertex -3.99417 -2.59384 6.35
    endloop
  endfacet
  facet normal 0 0 1
    outer loop
      vertex -5.05139 -5.05139 6.35
      vertex -3.99417 -2.59384 6.35
      vertex -4.44618 -1.70673 6.35
    endloop
  endfacet
  facet normal 0 0 1
    outer loop
      vertex -5.05139 -5.05139 6.35
      vertex -4.44618 -1.70673 6.35
      vertex -4.70387 -0.745019 6.35
    endloop
  endfacet
  facet normal 0 0 1
    outer loop
      vertex -3.3676 -3.3676 6.35
      vertex -5.05139 -5.05139 6.35
      vertex -3.93785 -5.95312 6.35
    endloop
  endfacet
  facet normal 0 0 1
    outer loop
      vertex -5.05139 -5.05139 6.35
      vertex -4.70387 -0.745019 6.35
      vertex -4.75597 0.24925 6.35
    endloop
  endfacet
  facet normal -0 0 1
    outer loop
      vertex 2.92968 6.13246 6.35
      vertex 3.10949 3.68633 6.35
      vertex 3.20082 6.54996 6.35
    endloop
  endfacet
  facet normal -0 0 1
    outer loop
      vertex 2.75128 5.66771 6.35
      vertex 3.10949 3.68633 6.35
      vertex 2.92968 6.13246 6.35
    endloop
  endfacet
  facet normal 0 0 1
    outer loop
      vertex 3.10949 3.68633 6.35
      vertex 2.82831 4.19803 6.35
      vertex 3.05431 3.75447 6.35
    endloop
  endfacet
  facet normal 0 0 1
    outer loop
      vertex 3.10949 3.68633 6.35
      vertex 2.75128 5.66771 6.35
      vertex 2.82831 4.19803 6.35
    endloop
  endfacet
  facet normal 0 0 1
    outer loop
      vertex 2.75128 5.66771 6.35
      vertex 2.69946 4.67888 6.35
      vertex 2.82831 4.19803 6.35
    endloop
  endfacet
  facet normal 0 -0 1
    outer loop
      vertex 2.69946 4.67888 6.35
      vertex 2.75128 5.66771 6.35
      vertex 2.67341 5.17602 6.35
    endloop
  endfacet
  facet normal -0.987688 0.156434 0
    outer loop
      vertex -7.13396 0.373876 -6.35
      vertex -6.90033 1.84894 6.35
      vertex -6.90033 1.84894 -6.35
    endloop
  endfacet
  facet normal -0.987688 0.156434 0
    outer loop
      vertex -6.90033 1.84894 6.35
      vertex -7.13396 0.373876 -6.35
      vertex -7.13396 0.373876 6.35
    endloop
  endfacet
  facet normal 0 0 -1
    outer loop
      vertex 6.35 -8.33437 -6.35
      vertex 3.87762 -5.95312 -6.35
      vertex 6.35 -5.95312 -6.35
    endloop
  endfacet
  facet normal 0 0 -1
    outer loop
      vertex 4.49571 -5.55174 -6.35
      vertex 2.99714 -3.70116 -6.35
      vertex 3.70116 -2.99714 -6.35
    endloop
  endfacet
  facet normal 0 0 -1
    outer loop
      vertex 3.87762 -5.95312 -6.35
      vertex 2.16213 -4.24342 -6.35
      vertex 2.99714 -3.70116 -6.35
    endloop
  endfacet
  facet normal 0 0 -1
    outer loop
      vertex 3.87762 -5.95312 -6.35
      vertex 1.23263 -4.60022 -6.35
      vertex 2.16213 -4.24342 -6.35
    endloop
  endfacet
  facet normal 0 0 -1
    outer loop
      vertex -6.35 -8.33437 -6.35
      vertex 3.87762 -5.95312 -6.35
      vertex 6.35 -8.33437 -6.35
    endloop
  endfacet
  facet normal 0 0 -1
    outer loop
      vertex 3.87762 -5.95312 -6.35
      vertex 0.24925 -4.75597 -6.35
      vertex 1.23263 -4.60022 -6.35
    endloop
  endfacet
  facet normal 0 0 -1
    outer loop
      vertex 3.87762 -5.95312 -6.35
      vertex -3.93785 -5.95312 -6.35
      vertex 0.24925 -4.75597 -6.35
    endloop
  endfacet
  facet normal -0 0 -1
    outer loop
      vertex 0.24925 -4.75597 -6.35
      vertex -3.93785 -5.95312 -6.35
      vertex -0.745019 -4.70387 -6.35
    endloop
  endfacet
  facet normal -0 0 -1
    outer loop
      vertex -2.59384 -3.99417 -6.35
      vertex -3.93785 -5.95312 -6.35
      vertex -3.3676 -3.3676 -6.35
    endloop
  endfacet
  facet normal -0 0 -1
    outer loop
      vertex -1.70673 -4.44618 -6.35
      vertex -3.93785 -5.95312 -6.35
      vertex -2.59384 -3.99417 -6.35
    endloop
  endfacet
  facet normal -0 0 -1
    outer loop
      vertex -0.745019 -4.70387 -6.35
      vertex -3.93785 -5.95312 -6.35
      vertex -1.70673 -4.44618 -6.35
    endloop
  endfacet
  facet normal -0 0 -1
    outer loop
      vertex 3.87762 -5.95312 -6.35
      vertex -6.35 -8.33437 -6.35
      vertex -3.93785 -5.95312 -6.35
    endloop
  endfacet
  facet normal -0 0 -1
    outer loop
      vertex -3.93785 -5.95312 -6.35
      vertex -6.35 -8.33437 -6.35
      vertex -6.35 -5.95312 -6.35
    endloop
  endfacet
  facet normal -0 0 -1
    outer loop
      vertex 6.66926 2.56009 -6.35
      vertex 4.44618 1.70673 -6.35
      vertex 6.3943 3.09973 -6.35
    endloop
  endfacet
  facet normal 0 0 -1
    outer loop
      vertex 3.99417 2.59384 -6.35
      vertex 6.3943 3.09973 -6.35
      vertex 4.44618 1.70673 -6.35
    endloop
  endfacet
  facet normal 0 0 -1
    outer loop
      vertex 3.3676 3.3676 -6.35
      vertex 6.3943 3.09973 -6.35
      vertex 3.99417 2.59384 -6.35
    endloop
  endfacet
  facet normal 0 0 -1
    outer loop
      vertex 3.10949 3.68633 -6.35
      vertex 6.3943 3.09973 -6.35
      vertex 3.3676 3.3676 -6.35
    endloop
  endfacet
  facet normal 0 0 -1
    outer loop
      vertex 6.3943 3.09973 -6.35
      vertex 3.10949 3.68633 -6.35
      vertex 4.92677 7.42938 -6.35
    endloop
  endfacet
  facet normal 0 0 -1
    outer loop
      vertex 4.92677 7.42938 -6.35
      vertex 3.10949 3.68633 -6.35
      vertex 4.43508 7.3515 -6.35
    endloop
  endfacet
  facet normal 0 0 -1
    outer loop
      vertex 4.43508 7.3515 -6.35
      vertex 3.10949 3.68633 -6.35
      vertex 3.97033 7.1731 -6.35
    endloop
  endfacet
  facet normal 0 0 -1
    outer loop
      vertex 3.97033 7.1731 -6.35
      vertex 3.10949 3.68633 -6.35
      vertex 3.55282 6.90197 -6.35
    endloop
  endfacet
  facet normal 0 0 -1
    outer loop
      vertex 3.55282 6.90197 -6.35
      vertex 3.10949 3.68633 -6.35
      vertex 3.20082 6.54996 -6.35
    endloop
  endfacet
  facet normal 0 -0 -1
    outer loop
      vertex 3.10949 3.68633 -6.35
      vertex 3.3676 3.3676 -6.35
      vertex 3.01756 3.65105 -6.35
    endloop
  endfacet
  facet normal 0 0 -1
    outer loop
      vertex 2.82831 4.19803 -6.35
      vertex 3.10949 3.68633 -6.35
      vertex 3.05431 3.75447 -6.35
    endloop
  endfacet
  facet normal 0 0 -1
    outer loop
      vertex 3.10949 3.68633 -6.35
      vertex 2.92968 6.13246 -6.35
      vertex 3.20082 6.54996 -6.35
    endloop
  endfacet
  facet normal 0 0 -1
    outer loop
      vertex 2.75128 5.66771 -6.35
      vertex 3.10949 3.68633 -6.35
      vertex 2.82831 4.19803 -6.35
    endloop
  endfacet
  facet normal 0 0 -1
    outer loop
      vertex 3.10949 3.68633 -6.35
      vertex 2.75128 5.66771 -6.35
      vertex 2.92968 6.13246 -6.35
    endloop
  endfacet
  facet normal 0 0 -1
    outer loop
      vertex 2.69946 4.67888 -6.35
      vertex 2.75128 5.66771 -6.35
      vertex 2.82831 4.19803 -6.35
    endloop
  endfacet
  facet normal 0 0 -1
    outer loop
      vertex 2.75128 5.66771 -6.35
      vertex 2.69946 4.67888 -6.35
      vertex 2.67341 5.17602 -6.35
    endloop
  endfacet
  facet normal 0 0 -1
    outer loop
      vertex -5.05139 -5.05139 -6.35
      vertex -3.3676 -3.3676 -6.35
      vertex -3.93785 -5.95312 -6.35
    endloop
  endfacet
  facet normal -0 0 -1
    outer loop
      vertex -3.3676 -3.3676 -6.35
      vertex -5.05139 -5.05139 -6.35
      vertex -3.99417 -2.59384 -6.35
    endloop
  endfacet
  facet normal 0 0 -1
    outer loop
      vertex -5.99125 -3.89077 -6.35
      vertex -3.99417 -2.59384 -6.35
      vertex -5.05139 -5.05139 -6.35
    endloop
  endfacet
  facet normal 0 0 -1
    outer loop
      vertex -6.66926 -2.56009 -6.35
      vertex -4.44618 -1.70673 -6.35
      vertex -5.99125 -3.89077 -6.35
    endloop
  endfacet
  facet normal -0 0 -1
    outer loop
      vertex -3.99417 -2.59384 -6.35
      vertex -5.99125 -3.89077 -6.35
      vertex -4.44618 -1.70673 -6.35
    endloop
  endfacet
  facet normal 0 0 -1
    outer loop
      vertex 4.75597 -0.24925 -6.35
      vertex 7.13396 -0.373876 -6.35
      vertex 6.90033 -1.84894 -6.35
    endloop
  endfacet
  facet normal 0 0 -1
    outer loop
      vertex 7.13396 -0.373876 -6.35
      vertex 4.75597 -0.24925 -6.35
      vertex 7.0558 1.11753 -6.35
    endloop
  endfacet
  facet normal 0 0 -1
    outer loop
      vertex 4.70387 0.745019 -6.35
      vertex 7.0558 1.11753 -6.35
      vertex 4.75597 -0.24925 -6.35
    endloop
  endfacet
  facet normal 0 0 -1
    outer loop
      vertex 4.60022 -1.23263 -6.35
      vertex 6.90033 -1.84894 -6.35
      vertex 6.36513 -3.24319 -6.35
    endloop
  endfacet
  facet normal 0 0 -1
    outer loop
      vertex 7.3515 4.43508 -6.35
      vertex 7.40333 5.4239 -6.35
      vertex 7.42938 4.92677 -6.35
    endloop
  endfacet
  facet normal 0 0 -1
    outer loop
      vertex 7.3515 4.43508 -6.35
      vertex 7.27448 5.90476 -6.35
      vertex 7.40333 5.4239 -6.35
    endloop
  endfacet
  facet normal 0 0 -1
    outer loop
      vertex 7.1731 3.97033 -6.35
      vertex 7.27448 5.90476 -6.35
      vertex 7.3515 4.43508 -6.35
    endloop
  endfacet
  facet normal 0 0 -1
    outer loop
      vertex 7.1731 3.97033 -6.35
      vertex 7.04848 6.34832 -6.35
      vertex 7.27448 5.90476 -6.35
    endloop
  endfacet
  facet normal 0 0 -1
    outer loop
      vertex 6.3943 3.09973 -6.35
      vertex 7.1731 3.97033 -6.35
      vertex 6.90197 3.55282 -6.35
    endloop
  endfacet
  facet normal -0 0 -1
    outer loop
      vertex 7.1731 3.97033 -6.35
      vertex 6.3943 3.09973 -6.35
      vertex 7.04848 6.34832 -6.35
    endloop
  endfacet
  facet normal 0 0 -1
    outer loop
      vertex 6.3943 3.09973 -6.35
      vertex 6.90197 3.55282 -6.35
      vertex 6.54996 3.20082 -6.35
    endloop
  endfacet
  facet normal -0 0 -1
    outer loop
      vertex 7.04848 6.34832 -6.35
      vertex 6.3943 3.09973 -6.35
      vertex 6.73519 6.73519 -6.35
    endloop
  endfacet
  facet normal 0 0 -1
    outer loop
      vertex 6.3943 3.09973 -6.35
      vertex 6.34832 7.04848 -6.35
      vertex 6.73519 6.73519 -6.35
    endloop
  endfacet
  facet normal -0 0 -1
    outer loop
      vertex 7.0558 1.11753 -6.35
      vertex 4.70387 0.745019 -6.35
      vertex 6.66926 2.56009 -6.35
    endloop
  endfacet
  facet normal 0 0 -1
    outer loop
      vertex 4.44618 1.70673 -6.35
      vertex 6.66926 2.56009 -6.35
      vertex 4.70387 0.745019 -6.35
    endloop
  endfacet
  facet normal 0 0 -1
    outer loop
      vertex 4.24342 -2.16213 -6.35
      vertex 6.36513 -3.24319 -6.35
      vertex 5.55174 -4.49571 -6.35
    endloop
  endfacet
  facet normal 0 0 -1
    outer loop
      vertex 6.3943 3.09973 -6.35
      vertex 4.92677 7.42938 -6.35
      vertex 6.34832 7.04848 -6.35
    endloop
  endfacet
  facet normal 0 0 -1
    outer loop
      vertex 6.34832 7.04848 -6.35
      vertex 4.92677 7.42938 -6.35
      vertex 5.90476 7.27448 -6.35
    endloop
  endfacet
  facet normal 0 0 -1
    outer loop
      vertex 5.90476 7.27448 -6.35
      vertex 4.92677 7.42938 -6.35
      vertex 5.4239 7.40333 -6.35
    endloop
  endfacet
  facet normal 0 0 -1
    outer loop
      vertex 6.90033 -1.84894 -6.35
      vertex 4.60022 -1.23263 -6.35
      vertex 4.75597 -0.24925 -6.35
    endloop
  endfacet
  facet normal 0 0 -1
    outer loop
      vertex 3.70116 -2.99714 -6.35
      vertex 5.55174 -4.49571 -6.35
      vertex 4.49571 -5.55174 -6.35
    endloop
  endfacet
  facet normal 0 0 -1
    outer loop
      vertex 6.36513 -3.24319 -6.35
      vertex 4.24342 -2.16213 -6.35
      vertex 4.60022 -1.23263 -6.35
    endloop
  endfacet
  facet normal 0 0 -1
    outer loop
      vertex 2.99714 -3.70116 -6.35
      vertex 4.49571 -5.55174 -6.35
      vertex 3.87762 -5.95312 -6.35
    endloop
  endfacet
  facet normal 0 0 -1
    outer loop
      vertex 5.55174 -4.49571 -6.35
      vertex 3.70116 -2.99714 -6.35
      vertex 4.24342 -2.16213 -6.35
    endloop
  endfacet
  facet normal 0 0 -1
    outer loop
      vertex -3.70116 2.99714 -6.35
      vertex -3.09973 3.70848 -6.35
      vertex -3.02691 3.67138 -6.35
    endloop
  endfacet
  facet normal 0 0 -1
    outer loop
      vertex -6.41645 3.10949 -6.35
      vertex -3.09973 3.70848 -6.35
      vertex -3.70116 2.99714 -6.35
    endloop
  endfacet
  facet normal -0 0 -1
    outer loop
      vertex -3.09973 3.70848 -6.35
      vertex -6.41645 3.10949 -6.35
      vertex -3.3676 6.73519 -6.35
    endloop
  endfacet
  facet normal -0 0 -1
    outer loop
      vertex -3.3676 6.73519 -6.35
      vertex -6.41645 3.10949 -6.35
      vertex -3.75447 7.04848 -6.35
    endloop
  endfacet
  facet normal 0 0 -1
    outer loop
      vertex -6.41645 3.10949 -6.35
      vertex -3.70116 2.99714 -6.35
      vertex -4.24342 2.16213 -6.35
    endloop
  endfacet
  facet normal 0 0 -1
    outer loop
      vertex -6.41645 3.10949 -6.35
      vertex -4.24342 2.16213 -6.35
      vertex -4.60022 1.23263 -6.35
    endloop
  endfacet
  facet normal -0 0 -1
    outer loop
      vertex -3.75447 7.04848 -6.35
      vertex -6.41645 3.10949 -6.35
      vertex -4.19803 7.27448 -6.35
    endloop
  endfacet
  facet normal 0 0 -1
    outer loop
      vertex -6.90033 1.84894 -6.35
      vertex -4.60022 1.23263 -6.35
      vertex -4.75597 0.24925 -6.35
    endloop
  endfacet
  facet normal -0 0 -1
    outer loop
      vertex -4.44618 -1.70673 -6.35
      vertex -6.66926 -2.56009 -6.35
      vertex -4.70387 -0.745019 -6.35
    endloop
  endfacet
  facet normal -0 0 -1
    outer loop
      vertex -4.19803 7.27448 -6.35
      vertex -6.41645 3.10949 -6.35
      vertex -4.67888 7.40333 -6.35
    endloop
  endfacet
  facet normal -0 0 -1
    outer loop
      vertex -4.67888 7.40333 -6.35
      vertex -6.41645 3.10949 -6.35
      vertex -5.17602 7.42938 -6.35
    endloop
  endfacet
  facet normal 0 0 -1
    outer loop
      vertex -7.0558 -1.11753 -6.35
      vertex -4.70387 -0.745019 -6.35
      vertex -6.66926 -2.56009 -6.35
    endloop
  endfacet
  facet normal 0 0 -1
    outer loop
      vertex -5.17602 7.42938 -6.35
      vertex -6.41645 3.10949 -6.35
      vertex -5.66771 7.3515 -6.35
    endloop
  endfacet
  facet normal 0 0 -1
    outer loop
      vertex -5.66771 7.3515 -6.35
      vertex -6.41645 3.10949 -6.35
      vertex -6.13246 7.1731 -6.35
    endloop
  endfacet
  facet normal -0 0 -1
    outer loop
      vertex -4.70387 -0.745019 -6.35
      vertex -7.0558 -1.11753 -6.35
      vertex -4.75597 0.24925 -6.35
    endloop
  endfacet
  facet normal 0 0 -1
    outer loop
      vertex -4.60022 1.23263 -6.35
      vertex -6.90033 1.84894 -6.35
      vertex -6.41645 3.10949 -6.35
    endloop
  endfacet
  facet normal 0 0 -1
    outer loop
      vertex -7.13396 0.373876 -6.35
      vertex -4.75597 0.24925 -6.35
      vertex -7.0558 -1.11753 -6.35
    endloop
  endfacet
  facet normal 0 0 -1
    outer loop
      vertex -4.75597 0.24925 -6.35
      vertex -7.13396 0.373876 -6.35
      vertex -6.90033 1.84894 -6.35
    endloop
  endfacet
  facet normal 0 0 -1
    outer loop
      vertex -2.75128 4.43508 -6.35
      vertex -2.69946 5.4239 -6.35
      vertex -2.67341 4.92677 -6.35
    endloop
  endfacet
  facet normal 0 0 -1
    outer loop
      vertex -3.09973 3.70848 -6.35
      vertex -2.69946 5.4239 -6.35
      vertex -2.75128 4.43508 -6.35
    endloop
  endfacet
  facet normal 0 0 -1
    outer loop
      vertex -3.09973 3.70848 -6.35
      vertex -2.75128 4.43508 -6.35
      vertex -2.92968 3.97033 -6.35
    endloop
  endfacet
  facet normal -0 0 -1
    outer loop
      vertex -2.69946 5.4239 -6.35
      vertex -3.09973 3.70848 -6.35
      vertex -2.82831 5.90476 -6.35
    endloop
  endfacet
  facet normal -0 0 -1
    outer loop
      vertex -2.82831 5.90476 -6.35
      vertex -3.09973 3.70848 -6.35
      vertex -3.05431 6.34831 -6.35
    endloop
  endfacet
  facet normal -0 0 -1
    outer loop
      vertex -3.05431 6.34831 -6.35
      vertex -3.09973 3.70848 -6.35
      vertex -3.3676 6.73519 -6.35
    endloop
  endfacet
  facet normal 0 0 -1
    outer loop
      vertex -6.41645 3.10949 -6.35
      vertex -6.54996 6.90197 -6.35
      vertex -6.13246 7.1731 -6.35
    endloop
  endfacet
  facet normal 0 0 -1
    outer loop
      vertex -7.04848 3.75447 -6.35
      vertex -6.41645 3.10949 -6.35
      vertex -6.73519 3.3676 -6.35
    endloop
  endfacet
  facet normal 0 0 -1
    outer loop
      vertex -6.41645 3.10949 -6.35
      vertex -6.90197 6.54996 -6.35
      vertex -6.54996 6.90197 -6.35
    endloop
  endfacet
  facet normal 0 0 -1
    outer loop
      vertex -6.41645 3.10949 -6.35
      vertex -7.04848 3.75447 -6.35
      vertex -6.90197 6.54996 -6.35
    endloop
  endfacet
  facet normal 0 0 -1
    outer loop
      vertex -7.04848 3.75447 -6.35
      vertex -7.1731 6.13246 -6.35
      vertex -6.90197 6.54996 -6.35
    endloop
  endfacet
  facet normal 0 0 -1
    outer loop
      vertex -7.27448 4.19803 -6.35
      vertex -7.1731 6.13246 -6.35
      vertex -7.04848 3.75447 -6.35
    endloop
  endfacet
  facet normal 0 0 -1
    outer loop
      vertex -7.27448 4.19803 -6.35
      vertex -7.3515 5.66771 -6.35
      vertex -7.1731 6.13246 -6.35
    endloop
  endfacet
  facet normal 0 0 -1
    outer loop
      vertex -7.40333 4.67888 -6.35
      vertex -7.3515 5.66771 -6.35
      vertex -7.27448 4.19803 -6.35
    endloop
  endfacet
  facet normal 0 0 -1
    outer loop
      vertex -7.3515 5.66771 -6.35
      vertex -7.40333 4.67888 -6.35
      vertex -7.42938 5.17602 -6.35
    endloop
  endfacet
  facet normal 0.99863 0.0523354 0
    outer loop
      vertex 7.13396 -0.373876 6.35
      vertex 7.0558 1.11753 -6.35
      vertex 7.0558 1.11753 6.35
    endloop
  endfacet
  facet normal 0.99863 0.0523354 0
    outer loop
      vertex 7.0558 1.11753 -6.35
      vertex 7.13396 -0.373876 6.35
      vertex 7.13396 -0.373876 -6.35
    endloop
  endfacet
  facet normal 0.891006 0.453991 0
    outer loop
      vertex 6.66926 2.56009 6.35
      vertex 6.3943 3.09973 -6.35
      vertex 6.3943 3.09973 6.35
    endloop
  endfacet
  facet normal 0.891006 0.453991 0
    outer loop
      vertex 6.3943 3.09973 -6.35
      vertex 6.66926 2.56009 6.35
      vertex 6.66926 2.56009 -6.35
    endloop
  endfacet
  facet normal -0.62932 -0.777146 0
    outer loop
      vertex -5.05139 -5.05139 -6.35
      vertex -3.93785 -5.95312 6.35
      vertex -5.05139 -5.05139 6.35
    endloop
  endfacet
  facet normal -0.62932 -0.777146 -0
    outer loop
      vertex -3.93785 -5.95312 6.35
      vertex -5.05139 -5.05139 -6.35
      vertex -3.93785 -5.95312 -6.35
    endloop
  endfacet
  facet normal 0.838671 -0.544639 0
    outer loop
      vertex 5.55174 -4.49571 6.35
      vertex 6.36513 -3.24319 -6.35
      vertex 6.36513 -3.24319 6.35
    endloop
  endfacet
  facet normal 0.838671 -0.544639 0
    outer loop
      vertex 6.36513 -3.24319 -6.35
      vertex 5.55174 -4.49571 6.35
      vertex 5.55174 -4.49571 -6.35
    endloop
  endfacet
  facet normal 0.987688 -0.156434 0
    outer loop
      vertex 6.90033 -1.84894 6.35
      vertex 7.13396 -0.373876 -6.35
      vertex 7.13396 -0.373876 6.35
    endloop
  endfacet
  facet normal 0.987688 -0.156434 0
    outer loop
      vertex 7.13396 -0.373876 -6.35
      vertex 6.90033 -1.84894 6.35
      vertex 6.90033 -1.84894 -6.35
    endloop
  endfacet
  facet normal 0.544639 -0.838671 0
    outer loop
      vertex 3.87762 -5.95312 -6.35
      vertex 4.49571 -5.55174 6.35
      vertex 3.87762 -5.95312 6.35
    endloop
  endfacet
  facet normal 0.544639 -0.838671 0
    outer loop
      vertex 4.49571 -5.55174 6.35
      vertex 3.87762 -5.95312 -6.35
      vertex 4.49571 -5.55174 -6.35
    endloop
  endfacet
  facet normal 0.93358 -0.358368 0
    outer loop
      vertex 6.36513 -3.24319 6.35
      vertex 6.90033 -1.84894 -6.35
      vertex 6.90033 -1.84894 6.35
    endloop
  endfacet
  facet normal 0.93358 -0.358368 0
    outer loop
      vertex 6.90033 -1.84894 -6.35
      vertex 6.36513 -3.24319 6.35
      vertex 6.36513 -3.24319 -6.35
    endloop
  endfacet
  facet normal -0.62932 -0.777146 0
    outer loop
      vertex 3.01756 3.65105 -6.35
      vertex 3.3676 3.3676 6.35
      vertex 3.01756 3.65105 6.35
    endloop
  endfacet
  facet normal -0.62932 -0.777146 -0
    outer loop
      vertex 3.3676 3.3676 6.35
      vertex 3.01756 3.65105 -6.35
      vertex 3.3676 3.3676 -6.35
    endloop
  endfacet
  facet normal 0.777146 0.62932 0
    outer loop
      vertex -3.3676 -3.3676 6.35
      vertex -3.99417 -2.59384 -6.35
      vertex -3.99417 -2.59384 6.35
    endloop
  endfacet
  facet normal 0.777146 0.62932 0
    outer loop
      vertex -3.99417 -2.59384 -6.35
      vertex -3.3676 -3.3676 6.35
      vertex -3.3676 -3.3676 -6.35
    endloop
  endfacet
  facet normal 0.707107 -0.707107 0
    outer loop
      vertex -3.70116 2.99714 6.35
      vertex -3.02691 3.67138 -6.35
      vertex -3.02691 3.67138 6.35
    endloop
  endfacet
  facet normal 0.707107 -0.707107 0
    outer loop
      vertex -3.02691 3.67138 -6.35
      vertex -3.70116 2.99714 6.35
      vertex -3.70116 2.99714 -6.35
    endloop
  endfacet
  facet normal -0.707107 0.707107 0
    outer loop
      vertex 2.99714 -3.70116 -6.35
      vertex 3.70116 -2.99714 6.35
      vertex 3.70116 -2.99714 -6.35
    endloop
  endfacet
  facet normal -0.707107 0.707107 0
    outer loop
      vertex 3.70116 -2.99714 6.35
      vertex 2.99714 -3.70116 -6.35
      vertex 2.99714 -3.70116 6.35
    endloop
  endfacet
  facet normal 0.99863 0.0523354 0
    outer loop
      vertex -4.70387 -0.745019 6.35
      vertex -4.75597 0.24925 -6.35
      vertex -4.75597 0.24925 6.35
    endloop
  endfacet
  facet normal 0.99863 0.0523354 0
    outer loop
      vertex -4.75597 0.24925 -6.35
      vertex -4.70387 -0.745019 6.35
      vertex -4.70387 -0.745019 -6.35
    endloop
  endfacet
  facet normal 0.965926 0.25882 0
    outer loop
      vertex -4.44618 -1.70673 6.35
      vertex -4.70387 -0.745019 -6.35
      vertex -4.70387 -0.745019 6.35
    endloop
  endfacet
  facet normal 0.965926 0.25882 0
    outer loop
      vertex -4.70387 -0.745019 -6.35
      vertex -4.44618 -1.70673 6.35
      vertex -4.44618 -1.70673 -6.35
    endloop
  endfacet
  facet normal 0.93358 -0.358368 0
    outer loop
      vertex -4.60022 1.23263 6.35
      vertex -4.24342 2.16213 -6.35
      vertex -4.24342 2.16213 6.35
    endloop
  endfacet
  facet normal 0.93358 -0.358368 0
    outer loop
      vertex -4.24342 2.16213 -6.35
      vertex -4.60022 1.23263 6.35
      vertex -4.60022 1.23263 -6.35
    endloop
  endfacet
  facet normal 0.891007 0.45399 0
    outer loop
      vertex -3.99417 -2.59384 6.35
      vertex -4.44618 -1.70673 -6.35
      vertex -4.44618 -1.70673 6.35
    endloop
  endfacet
  facet normal 0.891007 0.45399 0
    outer loop
      vertex -4.44618 -1.70673 -6.35
      vertex -3.99417 -2.59384 6.35
      vertex -3.99417 -2.59384 -6.35
    endloop
  endfacet
  facet normal 0.987688 -0.156434 0
    outer loop
      vertex -4.75597 0.24925 6.35
      vertex -4.60022 1.23263 -6.35
      vertex -4.60022 1.23263 6.35
    endloop
  endfacet
  facet normal 0.987688 -0.156434 0
    outer loop
      vertex -4.60022 1.23263 -6.35
      vertex -4.75597 0.24925 6.35
      vertex -4.75597 0.24925 -6.35
    endloop
  endfacet
  facet normal 0.83867 -0.544639 0
    outer loop
      vertex -4.24342 2.16213 6.35
      vertex -3.70116 2.99714 -6.35
      vertex -3.70116 2.99714 6.35
    endloop
  endfacet
  facet normal 0.83867 -0.544639 0
    outer loop
      vertex -3.70116 2.99714 -6.35
      vertex -4.24342 2.16213 6.35
      vertex -4.24342 2.16213 -6.35
    endloop
  endfacet
  facet normal -0.777146 -0.62932 0
    outer loop
      vertex 3.99417 2.59384 -6.35
      vertex 3.3676 3.3676 6.35
      vertex 3.3676 3.3676 -6.35
    endloop
  endfacet
  facet normal -0.777146 -0.62932 0
    outer loop
      vertex 3.3676 3.3676 6.35
      vertex 3.99417 2.59384 -6.35
      vertex 3.99417 2.59384 6.35
    endloop
  endfacet
  facet normal -0.83867 0.544639 0
    outer loop
      vertex 3.70116 -2.99714 -6.35
      vertex 4.24342 -2.16213 6.35
      vertex 4.24342 -2.16213 -6.35
    endloop
  endfacet
  facet normal -0.83867 0.544639 0
    outer loop
      vertex 4.24342 -2.16213 6.35
      vertex 3.70116 -2.99714 -6.35
      vertex 3.70116 -2.99714 6.35
    endloop
  endfacet
  facet normal -0.99863 -0.0523354 0
    outer loop
      vertex 4.75597 -0.24925 -6.35
      vertex 4.70387 0.745019 6.35
      vertex 4.70387 0.745019 -6.35
    endloop
  endfacet
  facet normal -0.99863 -0.0523354 0
    outer loop
      vertex 4.70387 0.745019 6.35
      vertex 4.75597 -0.24925 -6.35
      vertex 4.75597 -0.24925 6.35
    endloop
  endfacet
  facet normal -0.891007 -0.45399 0
    outer loop
      vertex 4.44618 1.70673 -6.35
      vertex 3.99417 2.59384 6.35
      vertex 3.99417 2.59384 -6.35
    endloop
  endfacet
  facet normal -0.891007 -0.45399 0
    outer loop
      vertex 3.99417 2.59384 6.35
      vertex 4.44618 1.70673 -6.35
      vertex 4.44618 1.70673 6.35
    endloop
  endfacet
  facet normal -0.965926 -0.25882 0
    outer loop
      vertex 4.70387 0.745019 -6.35
      vertex 4.44618 1.70673 6.35
      vertex 4.44618 1.70673 -6.35
    endloop
  endfacet
  facet normal -0.965926 -0.25882 0
    outer loop
      vertex 4.44618 1.70673 6.35
      vertex 4.70387 0.745019 -6.35
      vertex 4.70387 0.745019 6.35
    endloop
  endfacet
  facet normal 0.25882 0.965926 -0
    outer loop
      vertex -0.745019 -4.70387 -6.35
      vertex -1.70673 -4.44618 6.35
      vertex -0.745019 -4.70387 6.35
    endloop
  endfacet
  facet normal 0.25882 0.965926 0
    outer loop
      vertex -1.70673 -4.44618 6.35
      vertex -0.745019 -4.70387 -6.35
      vertex -1.70673 -4.44618 -6.35
    endloop
  endfacet
  facet normal -0.987688 0.156434 0
    outer loop
      vertex 4.60022 -1.23263 -6.35
      vertex 4.75597 -0.24925 6.35
      vertex 4.75597 -0.24925 -6.35
    endloop
  endfacet
  facet normal -0.987688 0.156434 0
    outer loop
      vertex 4.75597 -0.24925 6.35
      vertex 4.60022 -1.23263 -6.35
      vertex 4.60022 -1.23263 6.35
    endloop
  endfacet
  facet normal -0.93358 0.358368 0
    outer loop
      vertex 4.24342 -2.16213 -6.35
      vertex 4.60022 -1.23263 6.35
      vertex 4.60022 -1.23263 -6.35
    endloop
  endfacet
  facet normal -0.93358 0.358368 0
    outer loop
      vertex 4.60022 -1.23263 6.35
      vertex 4.24342 -2.16213 -6.35
      vertex 4.24342 -2.16213 6.35
    endloop
  endfacet
  facet normal -0.544639 0.83867 0
    outer loop
      vertex 2.99714 -3.70116 -6.35
      vertex 2.16213 -4.24342 6.35
      vertex 2.99714 -3.70116 6.35
    endloop
  endfacet
  facet normal -0.544639 0.83867 0
    outer loop
      vertex 2.16213 -4.24342 6.35
      vertex 2.99714 -3.70116 -6.35
      vertex 2.16213 -4.24342 -6.35
    endloop
  endfacet
  facet normal -0.358368 0.93358 0
    outer loop
      vertex 2.16213 -4.24342 -6.35
      vertex 1.23263 -4.60022 6.35
      vertex 2.16213 -4.24342 6.35
    endloop
  endfacet
  facet normal -0.358368 0.93358 0
    outer loop
      vertex 1.23263 -4.60022 6.35
      vertex 2.16213 -4.24342 -6.35
      vertex 1.23263 -4.60022 -6.35
    endloop
  endfacet
  facet normal 0.0523354 0.99863 -0
    outer loop
      vertex 0.24925 -4.75597 -6.35
      vertex -0.745019 -4.70387 6.35
      vertex 0.24925 -4.75597 6.35
    endloop
  endfacet
  facet normal 0.0523354 0.99863 0
    outer loop
      vertex -0.745019 -4.70387 6.35
      vertex 0.24925 -4.75597 -6.35
      vertex -0.745019 -4.70387 -6.35
    endloop
  endfacet
  facet normal 0.45399 0.891007 -0
    outer loop
      vertex -1.70673 -4.44618 -6.35
      vertex -2.59384 -3.99417 6.35
      vertex -1.70673 -4.44618 6.35
    endloop
  endfacet
  facet normal 0.45399 0.891007 0
    outer loop
      vertex -2.59384 -3.99417 6.35
      vertex -1.70673 -4.44618 -6.35
      vertex -2.59384 -3.99417 -6.35
    endloop
  endfacet
  facet normal 0.62932 0.777146 -0
    outer loop
      vertex -2.59384 -3.99417 -6.35
      vertex -3.3676 -3.3676 6.35
      vertex -2.59384 -3.99417 6.35
    endloop
  endfacet
  facet normal 0.62932 0.777146 0
    outer loop
      vertex -3.3676 -3.3676 6.35
      vertex -2.59384 -3.99417 -6.35
      vertex -3.3676 -3.3676 -6.35
    endloop
  endfacet
  facet normal -0.156434 0.987688 0
    outer loop
      vertex 1.23263 -4.60022 -6.35
      vertex 0.24925 -4.75597 6.35
      vertex 1.23263 -4.60022 6.35
    endloop
  endfacet
  facet normal -0.156434 0.987688 0
    outer loop
      vertex 0.24925 -4.75597 6.35
      vertex 1.23263 -4.60022 -6.35
      vertex 0.24925 -4.75597 -6.35
    endloop
  endfacet
  facet normal -0.358367 0.933581 0
    outer loop
      vertex 3.10949 3.68633 -6.35
      vertex 3.01756 3.65105 6.35
      vertex 3.10949 3.68633 6.35
    endloop
  endfacet
  facet normal -0.358367 0.933581 0
    outer loop
      vertex 3.01756 3.65105 6.35
      vertex 3.10949 3.68633 -6.35
      vertex 3.01756 3.65105 -6.35
    endloop
  endfacet
  facet normal 0.453991 0.891006 -0
    outer loop
      vertex -3.02691 3.67138 -6.35
      vertex -3.09973 3.70848 6.35
      vertex -3.02691 3.67138 6.35
    endloop
  endfacet
  facet normal 0.453991 0.891006 0
    outer loop
      vertex -3.09973 3.70848 6.35
      vertex -3.02691 3.67138 -6.35
      vertex -3.09973 3.70848 -6.35
    endloop
  endfacet
  facet normal 0.62932 0.777147 -0
    outer loop
      vertex 6.73519 6.73519 -6.35
      vertex 6.34832 7.04848 6.35
      vertex 6.73519 6.73519 6.35
    endloop
  endfacet
  facet normal 0.62932 0.777147 0
    outer loop
      vertex 6.34832 7.04848 6.35
      vertex 6.73519 6.73519 -6.35
      vertex 6.34832 7.04848 -6.35
    endloop
  endfacet
  facet normal -0.707107 0.707107 0
    outer loop
      vertex 3.20082 6.54996 -6.35
      vertex 3.55282 6.90197 6.35
      vertex 3.55282 6.90197 -6.35
    endloop
  endfacet
  facet normal -0.707107 0.707107 0
    outer loop
      vertex 3.55282 6.90197 6.35
      vertex 3.20082 6.54996 -6.35
      vertex 3.20082 6.54996 6.35
    endloop
  endfacet
  facet normal 0.0523363 0.99863 -0
    outer loop
      vertex 5.4239 7.40333 -6.35
      vertex 4.92677 7.42938 6.35
      vertex 5.4239 7.40333 6.35
    endloop
  endfacet
  facet normal 0.0523363 0.99863 0
    outer loop
      vertex 4.92677 7.42938 6.35
      vertex 5.4239 7.40333 -6.35
      vertex 4.92677 7.42938 -6.35
    endloop
  endfacet
  facet normal 0.453991 0.891006 -0
    outer loop
      vertex 6.34832 7.04848 -6.35
      vertex 5.90476 7.27448 6.35
      vertex 6.34832 7.04848 6.35
    endloop
  endfacet
  facet normal 0.453991 0.891006 0
    outer loop
      vertex 5.90476 7.27448 6.35
      vertex 6.34832 7.04848 -6.35
      vertex 5.90476 7.27448 -6.35
    endloop
  endfacet
  facet normal -0.99863 -0.0523358 0
    outer loop
      vertex 2.69946 4.67888 -6.35
      vertex 2.67341 5.17602 6.35
      vertex 2.67341 5.17602 -6.35
    endloop
  endfacet
  facet normal -0.99863 -0.0523358 0
    outer loop
      vertex 2.67341 5.17602 6.35
      vertex 2.69946 4.67888 -6.35
      vertex 2.69946 4.67888 6.35
    endloop
  endfacet
  facet normal -0.933581 0.358368 0
    outer loop
      vertex 2.75128 5.66771 -6.35
      vertex 2.92968 6.13246 6.35
      vertex 2.92968 6.13246 -6.35
    endloop
  endfacet
  facet normal -0.933581 0.358368 0
    outer loop
      vertex 2.92968 6.13246 6.35
      vertex 2.75128 5.66771 -6.35
      vertex 2.75128 5.66771 6.35
    endloop
  endfacet
  facet normal 0.99863 0.0523363 0
    outer loop
      vertex 7.42938 4.92677 6.35
      vertex 7.40333 5.4239 -6.35
      vertex 7.40333 5.4239 6.35
    endloop
  endfacet
  facet normal 0.99863 0.0523363 0
    outer loop
      vertex 7.40333 5.4239 -6.35
      vertex 7.42938 4.92677 6.35
      vertex 7.42938 4.92677 -6.35
    endloop
  endfacet
  facet normal 0.965926 0.258818 0
    outer loop
      vertex 7.40333 5.4239 6.35
      vertex 7.27448 5.90476 -6.35
      vertex 7.27448 5.90476 6.35
    endloop
  endfacet
  facet normal 0.965926 0.258818 0
    outer loop
      vertex 7.27448 5.90476 -6.35
      vertex 7.40333 5.4239 6.35
      vertex 7.40333 5.4239 -6.35
    endloop
  endfacet
  facet normal 0.258818 0.965926 -0
    outer loop
      vertex 5.90476 7.27448 -6.35
      vertex 5.4239 7.40333 6.35
      vertex 5.90476 7.27448 6.35
    endloop
  endfacet
  facet normal 0.258818 0.965926 0
    outer loop
      vertex 5.4239 7.40333 6.35
      vertex 5.90476 7.27448 -6.35
      vertex 5.4239 7.40333 -6.35
    endloop
  endfacet
  facet normal -0.358368 0.93358 0
    outer loop
      vertex 4.43508 7.3515 -6.35
      vertex 3.97033 7.1731 6.35
      vertex 4.43508 7.3515 6.35
    endloop
  endfacet
  facet normal -0.358368 0.93358 0
    outer loop
      vertex 3.97033 7.1731 6.35
      vertex 4.43508 7.3515 -6.35
      vertex 3.97033 7.1731 -6.35
    endloop
  endfacet
  facet normal -0.544638 0.838671 0
    outer loop
      vertex 3.97033 7.1731 -6.35
      vertex 3.55282 6.90197 6.35
      vertex 3.97033 7.1731 6.35
    endloop
  endfacet
  facet normal -0.544638 0.838671 0
    outer loop
      vertex 3.55282 6.90197 6.35
      vertex 3.97033 7.1731 -6.35
      vertex 3.55282 6.90197 -6.35
    endloop
  endfacet
  facet normal -0.156434 0.987688 0
    outer loop
      vertex 4.92677 7.42938 -6.35
      vertex 4.43508 7.3515 6.35
      vertex 4.92677 7.42938 6.35
    endloop
  endfacet
  facet normal -0.156434 0.987688 0
    outer loop
      vertex 4.43508 7.3515 6.35
      vertex 4.92677 7.42938 -6.35
      vertex 4.43508 7.3515 -6.35
    endloop
  endfacet
  facet normal -0.891007 -0.453989 0
    outer loop
      vertex 3.05431 3.75447 -6.35
      vertex 2.82831 4.19803 6.35
      vertex 2.82831 4.19803 -6.35
    endloop
  endfacet
  facet normal -0.891007 -0.453989 0
    outer loop
      vertex 2.82831 4.19803 6.35
      vertex 3.05431 3.75447 -6.35
      vertex 3.05431 3.75447 6.35
    endloop
  endfacet
  facet normal -0.965926 -0.258819 0
    outer loop
      vertex 2.82831 4.19803 -6.35
      vertex 2.69946 4.67888 6.35
      vertex 2.69946 4.67888 -6.35
    endloop
  endfacet
  facet normal -0.965926 -0.258819 0
    outer loop
      vertex 2.69946 4.67888 6.35
      vertex 2.82831 4.19803 -6.35
      vertex 2.82831 4.19803 6.35
    endloop
  endfacet
  facet normal -0.777145 -0.629321 0
    outer loop
      vertex 3.10949 3.68633 -6.35
      vertex 3.05431 3.75447 6.35
      vertex 3.05431 3.75447 -6.35
    endloop
  endfacet
  facet normal -0.777145 -0.629321 0
    outer loop
      vertex 3.05431 3.75447 6.35
      vertex 3.10949 3.68633 -6.35
      vertex 3.10949 3.68633 6.35
    endloop
  endfacet
  facet normal -0.987688 0.156435 0
    outer loop
      vertex 2.67341 5.17602 -6.35
      vertex 2.75128 5.66771 6.35
      vertex 2.75128 5.66771 -6.35
    endloop
  endfacet
  facet normal -0.987688 0.156435 0
    outer loop
      vertex 2.75128 5.66771 6.35
      vertex 2.67341 5.17602 -6.35
      vertex 2.67341 5.17602 6.35
    endloop
  endfacet
  facet normal -0.838671 0.544638 0
    outer loop
      vertex 2.92968 6.13246 -6.35
      vertex 3.20082 6.54996 6.35
      vertex 3.20082 6.54996 -6.35
    endloop
  endfacet
  facet normal -0.838671 0.544638 0
    outer loop
      vertex 3.20082 6.54996 6.35
      vertex 2.92968 6.13246 -6.35
      vertex 2.92968 6.13246 6.35
    endloop
  endfacet
  facet normal 0.838671 -0.544638 0
    outer loop
      vertex 6.90197 3.55282 6.35
      vertex 7.1731 3.97033 -6.35
      vertex 7.1731 3.97033 6.35
    endloop
  endfacet
  facet normal 0.838671 -0.544638 0
    outer loop
      vertex 7.1731 3.97033 -6.35
      vertex 6.90197 3.55282 6.35
      vertex 6.90197 3.55282 -6.35
    endloop
  endfacet
  facet normal 0.987688 -0.156434 0
    outer loop
      vertex 7.3515 4.43508 6.35
      vertex 7.42938 4.92677 -6.35
      vertex 7.42938 4.92677 6.35
    endloop
  endfacet
  facet normal 0.987688 -0.156434 0
    outer loop
      vertex 7.42938 4.92677 -6.35
      vertex 7.3515 4.43508 6.35
      vertex 7.3515 4.43508 -6.35
    endloop
  endfacet
  facet normal 0.707107 -0.707107 0
    outer loop
      vertex 6.54996 3.20082 6.35
      vertex 6.90197 3.55282 -6.35
      vertex 6.90197 3.55282 6.35
    endloop
  endfacet
  facet normal 0.707107 -0.707107 0
    outer loop
      vertex 6.90197 3.55282 -6.35
      vertex 6.54996 3.20082 6.35
      vertex 6.54996 3.20082 -6.35
    endloop
  endfacet
  facet normal 0.93358 -0.358368 0
    outer loop
      vertex 7.1731 3.97033 6.35
      vertex 7.3515 4.43508 -6.35
      vertex 7.3515 4.43508 6.35
    endloop
  endfacet
  facet normal 0.93358 -0.358368 0
    outer loop
      vertex 7.3515 4.43508 -6.35
      vertex 7.1731 3.97033 6.35
      vertex 7.1731 3.97033 -6.35
    endloop
  endfacet
  facet normal 0.891006 0.453991 0
    outer loop
      vertex 7.27448 5.90476 6.35
      vertex 7.04848 6.34832 -6.35
      vertex 7.04848 6.34832 6.35
    endloop
  endfacet
  facet normal 0.891006 0.453991 0
    outer loop
      vertex 7.04848 6.34832 -6.35
      vertex 7.27448 5.90476 6.35
      vertex 7.27448 5.90476 -6.35
    endloop
  endfacet
  facet normal 0.544638 -0.838671 0
    outer loop
      vertex 6.3943 3.09973 -6.35
      vertex 6.54996 3.20082 6.35
      vertex 6.3943 3.09973 6.35
    endloop
  endfacet
  facet normal 0.544638 -0.838671 0
    outer loop
      vertex 6.54996 3.20082 6.35
      vertex 6.3943 3.09973 -6.35
      vertex 6.54996 3.20082 -6.35
    endloop
  endfacet
  facet normal 0.777147 0.62932 0
    outer loop
      vertex 7.04848 6.34832 6.35
      vertex 6.73519 6.73519 -6.35
      vertex 6.73519 6.73519 6.35
    endloop
  endfacet
  facet normal 0.777147 0.62932 0
    outer loop
      vertex 6.73519 6.73519 -6.35
      vertex 7.04848 6.34832 6.35
      vertex 7.04848 6.34832 -6.35
    endloop
  endfacet
  facet normal 0.62932 0.777146 -0
    outer loop
      vertex -3.3676 6.73519 -6.35
      vertex -3.75447 7.04848 6.35
      vertex -3.3676 6.73519 6.35
    endloop
  endfacet
  facet normal 0.62932 0.777146 0
    outer loop
      vertex -3.75447 7.04848 6.35
      vertex -3.3676 6.73519 -6.35
      vertex -3.75447 7.04848 -6.35
    endloop
  endfacet
  facet normal -0.777146 -0.62932 0
    outer loop
      vertex -6.73519 3.3676 -6.35
      vertex -7.04848 3.75447 6.35
      vertex -7.04848 3.75447 -6.35
    endloop
  endfacet
  facet normal -0.777146 -0.62932 0
    outer loop
      vertex -7.04848 3.75447 6.35
      vertex -6.73519 3.3676 -6.35
      vertex -6.73519 3.3676 6.35
    endloop
  endfacet
  facet normal -0.707107 0.707107 0
    outer loop
      vertex -6.90197 6.54996 -6.35
      vertex -6.54996 6.90197 6.35
      vertex -6.54996 6.90197 -6.35
    endloop
  endfacet
  facet normal -0.707107 0.707107 0
    outer loop
      vertex -6.54996 6.90197 6.35
      vertex -6.90197 6.54996 -6.35
      vertex -6.90197 6.54996 6.35
    endloop
  endfacet
  facet normal 0.0523353 0.99863 -0
    outer loop
      vertex -4.67888 7.40333 -6.35
      vertex -5.17602 7.42938 6.35
      vertex -4.67888 7.40333 6.35
    endloop
  endfacet
  facet normal 0.0523353 0.99863 0
    outer loop
      vertex -5.17602 7.42938 6.35
      vertex -4.67888 7.40333 -6.35
      vertex -5.17602 7.42938 -6.35
    endloop
  endfacet
  facet normal -0.99863 -0.0523353 0
    outer loop
      vertex -7.40333 4.67888 -6.35
      vertex -7.42938 5.17602 6.35
      vertex -7.42938 5.17602 -6.35
    endloop
  endfacet
  facet normal -0.99863 -0.0523353 0
    outer loop
      vertex -7.42938 5.17602 6.35
      vertex -7.40333 4.67888 -6.35
      vertex -7.40333 4.67888 6.35
    endloop
  endfacet
  facet normal -0.965926 -0.25882 0
    outer loop
      vertex -7.27448 4.19803 -6.35
      vertex -7.40333 4.67888 6.35
      vertex -7.40333 4.67888 -6.35
    endloop
  endfacet
  facet normal -0.965926 -0.25882 0
    outer loop
      vertex -7.40333 4.67888 6.35
      vertex -7.27448 4.19803 -6.35
      vertex -7.27448 4.19803 6.35
    endloop
  endfacet
  facet normal -0.93358 0.358368 0
    outer loop
      vertex -7.3515 5.66771 -6.35
      vertex -7.1731 6.13246 6.35
      vertex -7.1731 6.13246 -6.35
    endloop
  endfacet
  facet normal -0.93358 0.358368 0
    outer loop
      vertex -7.1731 6.13246 6.35
      vertex -7.3515 5.66771 -6.35
      vertex -7.3515 5.66771 6.35
    endloop
  endfacet
  facet normal 0.25882 0.965926 -0
    outer loop
      vertex -4.19803 7.27448 -6.35
      vertex -4.67888 7.40333 6.35
      vertex -4.19803 7.27448 6.35
    endloop
  endfacet
  facet normal 0.25882 0.965926 0
    outer loop
      vertex -4.67888 7.40333 6.35
      vertex -4.19803 7.27448 -6.35
      vertex -4.67888 7.40333 -6.35
    endloop
  endfacet
  facet normal 0.453991 0.891006 -0
    outer loop
      vertex -3.75447 7.04848 -6.35
      vertex -4.19803 7.27448 6.35
      vertex -3.75447 7.04848 6.35
    endloop
  endfacet
  facet normal 0.453991 0.891006 0
    outer loop
      vertex -4.19803 7.27448 6.35
      vertex -3.75447 7.04848 -6.35
      vertex -4.19803 7.27448 -6.35
    endloop
  endfacet
  facet normal -0.358368 0.93358 0
    outer loop
      vertex -5.66771 7.3515 -6.35
      vertex -6.13246 7.1731 6.35
      vertex -5.66771 7.3515 6.35
    endloop
  endfacet
  facet normal -0.358368 0.93358 0
    outer loop
      vertex -6.13246 7.1731 6.35
      vertex -5.66771 7.3515 -6.35
      vertex -6.13246 7.1731 -6.35
    endloop
  endfacet
  facet normal -0.544638 0.838671 0
    outer loop
      vertex -6.13246 7.1731 -6.35
      vertex -6.54996 6.90197 6.35
      vertex -6.13246 7.1731 6.35
    endloop
  endfacet
  facet normal -0.544638 0.838671 0
    outer loop
      vertex -6.54996 6.90197 6.35
      vertex -6.13246 7.1731 -6.35
      vertex -6.54996 6.90197 -6.35
    endloop
  endfacet
  facet normal -0.156434 0.987688 0
    outer loop
      vertex -5.17602 7.42938 -6.35
      vertex -5.66771 7.3515 6.35
      vertex -5.17602 7.42938 6.35
    endloop
  endfacet
  facet normal -0.156434 0.987688 0
    outer loop
      vertex -5.66771 7.3515 6.35
      vertex -5.17602 7.42938 -6.35
      vertex -5.66771 7.3515 -6.35
    endloop
  endfacet
  facet normal -0.891006 -0.453991 0
    outer loop
      vertex -7.04848 3.75447 -6.35
      vertex -7.27448 4.19803 6.35
      vertex -7.27448 4.19803 -6.35
    endloop
  endfacet
  facet normal -0.891006 -0.453991 0
    outer loop
      vertex -7.27448 4.19803 6.35
      vertex -7.04848 3.75447 -6.35
      vertex -7.04848 3.75447 6.35
    endloop
  endfacet
  facet normal -0.987688 0.156434 0
    outer loop
      vertex -7.42938 5.17602 -6.35
      vertex -7.3515 5.66771 6.35
      vertex -7.3515 5.66771 -6.35
    endloop
  endfacet
  facet normal -0.987688 0.156434 0
    outer loop
      vertex -7.3515 5.66771 6.35
      vertex -7.42938 5.17602 -6.35
      vertex -7.42938 5.17602 6.35
    endloop
  endfacet
  facet normal -0.838671 0.544638 0
    outer loop
      vertex -7.1731 6.13246 -6.35
      vertex -6.90197 6.54996 6.35
      vertex -6.90197 6.54996 -6.35
    endloop
  endfacet
  facet normal -0.838671 0.544638 0
    outer loop
      vertex -6.90197 6.54996 6.35
      vertex -7.1731 6.13246 -6.35
      vertex -7.1731 6.13246 6.35
    endloop
  endfacet
  facet normal 0.777146 0.62932 0
    outer loop
      vertex -3.05431 6.34831 6.35
      vertex -3.3676 6.73519 -6.35
      vertex -3.3676 6.73519 6.35
    endloop
  endfacet
  facet normal 0.777146 0.62932 0
    outer loop
      vertex -3.3676 6.73519 -6.35
      vertex -3.05431 6.34831 6.35
      vertex -3.05431 6.34831 -6.35
    endloop
  endfacet
  facet normal 0.99863 0.0523358 0
    outer loop
      vertex -2.67341 4.92677 6.35
      vertex -2.69946 5.4239 -6.35
      vertex -2.69946 5.4239 6.35
    endloop
  endfacet
  facet normal 0.99863 0.0523358 0
    outer loop
      vertex -2.69946 5.4239 -6.35
      vertex -2.67341 4.92677 6.35
      vertex -2.67341 4.92677 -6.35
    endloop
  endfacet
  facet normal 0.891006 0.453991 0
    outer loop
      vertex -2.82831 5.90476 6.35
      vertex -3.05431 6.34831 -6.35
      vertex -3.05431 6.34831 6.35
    endloop
  endfacet
  facet normal 0.891006 0.453991 0
    outer loop
      vertex -3.05431 6.34831 -6.35
      vertex -2.82831 5.90476 6.35
      vertex -2.82831 5.90476 -6.35
    endloop
  endfacet
  facet normal 0.965926 0.258819 0
    outer loop
      vertex -2.69946 5.4239 6.35
      vertex -2.82831 5.90476 -6.35
      vertex -2.82831 5.90476 6.35
    endloop
  endfacet
  facet normal 0.965926 0.258819 0
    outer loop
      vertex -2.82831 5.90476 -6.35
      vertex -2.69946 5.4239 6.35
      vertex -2.69946 5.4239 -6.35
    endloop
  endfacet
  facet normal 0.987688 -0.156435 0
    outer loop
      vertex -2.75128 4.43508 6.35
      vertex -2.67341 4.92677 -6.35
      vertex -2.67341 4.92677 6.35
    endloop
  endfacet
  facet normal 0.987688 -0.156435 0
    outer loop
      vertex -2.67341 4.92677 -6.35
      vertex -2.75128 4.43508 6.35
      vertex -2.75128 4.43508 -6.35
    endloop
  endfacet
  facet normal -0.629319 -0.777147 0
    outer loop
      vertex -6.73519 3.3676 -6.35
      vertex -6.41645 3.10949 6.35
      vertex -6.73519 3.3676 6.35
    endloop
  endfacet
  facet normal -0.629319 -0.777147 -0
    outer loop
      vertex -6.41645 3.10949 6.35
      vertex -6.73519 3.3676 -6.35
      vertex -6.41645 3.10949 -6.35
    endloop
  endfacet
  facet normal 0.933581 -0.358368 0
    outer loop
      vertex -2.92968 3.97033 6.35
      vertex -2.75128 4.43508 -6.35
      vertex -2.75128 4.43508 6.35
    endloop
  endfacet
  facet normal 0.933581 -0.358368 0
    outer loop
      vertex -2.75128 4.43508 -6.35
      vertex -2.92968 3.97033 6.35
      vertex -2.92968 3.97033 -6.35
    endloop
  endfacet
  facet normal 0.838671 -0.544638 0
    outer loop
      vertex -3.09973 3.70848 6.35
      vertex -2.92968 3.97033 -6.35
      vertex -2.92968 3.97033 6.35
    endloop
  endfacet
  facet normal 0.838671 -0.544638 0
    outer loop
      vertex -2.92968 3.97033 -6.35
      vertex -3.09973 3.70848 6.35
      vertex -3.09973 3.70848 -6.35
    endloop
  endfacet
  facet normal -1 0 0
    outer loop
      vertex -6.35 -8.33437 -6.35
      vertex -6.35 -5.95312 6.35
      vertex -6.35 -5.95312 -6.35
    endloop
  endfacet
  facet normal -1 -0 0
    outer loop
      vertex -6.35 -5.95312 6.35
      vertex -6.35 -8.33437 -6.35
      vertex -6.35 -8.33437 6.35
    endloop
  endfacet
  facet normal 1 -0 0
    outer loop
      vertex 6.35 -8.33437 6.35
      vertex 6.35 -5.95312 -6.35
      vertex 6.35 -5.95312 6.35
    endloop
  endfacet
  facet normal 1 0 0
    outer loop
      vertex 6.35 -5.95312 -6.35
      vertex 6.35 -8.33437 6.35
      vertex 6.35 -8.33437 -6.35
    endloop
  endfacet
  facet normal 0 -1 0
    outer loop
      vertex -6.35 -8.33437 6.35
      vertex -3.175 -8.33437 3.175
      vertex 6.35 -8.33437 6.35
    endloop
  endfacet
  facet normal 0 -1 0
    outer loop
      vertex -6.35 -8.33437 6.35
      vertex -3.175 -8.33437 -3.175
      vertex -3.175 -8.33437 3.175
    endloop
  endfacet
  facet normal 0 -1 -0
    outer loop
      vertex -3.175 -8.33437 -3.175
      vertex -6.35 -8.33437 -6.35
      vertex 3.175 -8.33437 -3.175
    endloop
  endfacet
  facet normal 0 -1 0
    outer loop
      vertex -6.35 -8.33437 -6.35
      vertex -3.175 -8.33437 -3.175
      vertex -6.35 -8.33437 6.35
    endloop
  endfacet
  facet normal 0 -1 0
    outer loop
      vertex 3.175 -8.33437 3.175
      vertex 6.35 -8.33437 6.35
      vertex -3.175 -8.33437 3.175
    endloop
  endfacet
  facet normal 0 -1 0
    outer loop
      vertex 3.175 -8.33437 -3.175
      vertex 6.35 -8.33437 6.35
      vertex 3.175 -8.33437 3.175
    endloop
  endfacet
  facet normal 0 -1 0
    outer loop
      vertex 3.175 -8.33437 -3.175
      vertex 6.35 -8.33437 -6.35
      vertex 6.35 -8.33437 6.35
    endloop
  endfacet
  facet normal 0 -1 0
    outer loop
      vertex 6.35 -8.33437 -6.35
      vertex 3.175 -8.33437 -3.175
      vertex -6.35 -8.33437 -6.35
    endloop
  endfacet
  facet normal 0 1 -0
    outer loop
      vertex 6.35 -5.95312 -6.35
      vertex 3.87762 -5.95312 6.35
      vertex 6.35 -5.95312 6.35
    endloop
  endfacet
  facet normal 0 1 0
    outer loop
      vertex 3.87762 -5.95312 6.35
      vertex 6.35 -5.95312 -6.35
      vertex 3.87762 -5.95312 -6.35
    endloop
  endfacet
  facet normal 0 1 -0
    outer loop
      vertex -3.93785 -5.95312 -6.35
      vertex -6.35 -5.95312 6.35
      vertex -3.93785 -5.95312 6.35
    endloop
  endfacet
  facet normal 0 1 0
    outer loop
      vertex -6.35 -5.95312 6.35
      vertex -3.93785 -5.95312 -6.35
      vertex -6.35 -5.95312 -6.35
    endloop
  endfacet
endsolid OpenSCAD_Model
